<?xml version="1.0" encoding="utf-8"?>
<!-- Generator: Adobe Illustrator 21.0.2, SVG Export Plug-In . SVG Version: 6.00 Build 0)  -->
<svg version="1.1" id="Layer_1" xmlns="http://www.w3.org/2000/svg" xmlns:xlink="http://www.w3.org/1999/xlink" x="0px" y="0px"
	 viewBox="0 0 100 100" style="enable-background:new 0 0 100 100;" xml:space="preserve">
<style type="text/css">
	.st0{fill:#008000;}
	.st1{fill:#FFFFFF;stroke:#FFFFFF;stroke-width:2;stroke-miterlimit:10;}
</style>
<rect y="0" class="st0" width="100" height="100"/>
<g>
	<path class="st1" d="M43.3,48.2c-6.3-2.3-9.8-6.3-9.8-12.1c0-12.6,16-18.1,26.4-12.4c0,0.7,0.7,4.7,0.9,7.3
		c-13.2-7-29.9,6.1-8.9,12.7c5.2-1.6,7.9-2.6,11.4-3.2l-1,8c-16.5,3.7-23,12-22.6,15.8c0.5,3.8,4.5,9.6,14.8,10.5
		c3.9,0,8.4,0,13.7-1.3c-1.9,4.8-2.8,6.6-5.7,11.1c-7.2,2.1-15.1,2.3-21.8-2.1C27.7,73.6,31.4,57.8,43.3,48.2z"/>
</g>
</svg>
