<?xml version="1.0" encoding="utf-8"?>
<!-- Generator: Adobe Illustrator 21.0.2, SVG Export Plug-In . SVG Version: 6.00 Build 0)  -->
<svg version="1.1" id="Capa_1" xmlns="http://www.w3.org/2000/svg" xmlns:xlink="http://www.w3.org/1999/xlink" x="0px" y="0px"
	 viewBox="0 0 480 480" style="enable-background:new 0 0 480 480;" xml:space="preserve">
<g>
	<path d="M440,160H320V40c0-22.1-17.9-40-40-40h-80c-22.1,0-40,17.9-40,40v120H40c-22.1,0-40,17.9-40,40v80c0,22.1,17.9,40,40,40
		h120v120c0,22.1,17.9,40,40,40h80c22.1,0,40-17.9,40-40V320h120c22.1,0,40-17.9,40-40v-80C480,177.9,462.1,160,440,160z M136,280
		c0,1.2-0.3,2.5-0.8,3.6c-2,4-6.8,5.6-10.7,3.6l-80-40c-1.6-0.8-2.8-2-3.6-3.6c-2-4-0.4-8.8,3.6-10.7l80-40c2.5-1.2,5.4-1.1,7.8,0.4
		c2.4,1.5,3.8,4,3.8,6.8V280z M287.2,355.6l-40,80c-0.8,1.6-2,2.8-3.6,3.6c-4,2-8.8,0.4-10.7-3.6l-40-80c-0.6-1.1-0.8-2.3-0.8-3.6
		c0-4.4,3.6-8,8-8h80c1.2,0,2.5,0.3,3.6,0.8C287.5,346.8,289.1,351.6,287.2,355.6z M200,240c0-22.1,17.9-40,40-40s40,17.9,40,40
		c0,22.1-17.9,40-40,40C217.9,280,200,262.1,200,240z M280,136h-80c-1.2,0-2.4-0.3-3.5-0.8c-4-2-5.6-6.8-3.6-10.7l40-80
		c0.7-1.2,1.7-2.2,2.9-2.9c4-2.4,9.1-1.1,11.4,2.9l40,80c0.6,1.1,0.9,2.4,0.8,3.6C288,132.5,284.4,136,280,136z M435.6,247.2l-80,40
		c-1.1,0.6-2.4,0.9-3.6,0.8c-4.4,0-8-3.6-8-8v-80c0-1.2,0.3-2.5,0.8-3.6c2-4,6.8-5.6,10.7-3.6l80,40v0c1.6,0.8,2.8,2,3.6,3.6
		C441.1,240.4,439.5,245.2,435.6,247.2z"/>
</g>
</svg>
