<?xml version="1.0" encoding="utf-8"?>
<!-- Generator: Adobe Illustrator 21.0.2, SVG Export Plug-In . SVG Version: 6.00 Build 0)  -->
<svg version="1.1" id="Layer_1" xmlns="http://www.w3.org/2000/svg" xmlns:xlink="http://www.w3.org/1999/xlink" x="0px" y="0px"
	 viewBox="0 0 90 90" style="enable-background:new 0 0 90 90;" xml:space="preserve">
<style type="text/css">
	.st0{fill:#A0BFDD;}
	.st1{fill:#84A6C2;}
	.st2{fill:#4690C0;}
	.st3{fill:#5C8295;}
	.st4{fill:#3FA868;}
	.st5{fill:#15363F;}
	.st6{fill:#070707;}
</style>
<g>
	<g>
		<path class="st0" d="M50.8,74.7c-1.6-0.2-4-0.4-5.5-0.6c-3.1-0.3-10.9-0.3-13.6,0c-5.4,0.4-8,0.4-10.4-0.4
			c-1.9-0.6-2.9-1.2-3.7-2.1c-1.1-1.2-3-4.1-4-6c-0.6-1.2-1-1.8-1.3-1.9c-1-0.5-2.8-7.1-3.7-12.9c-0.2-1.4-0.3-2.9-0.3-6.6
			c0-4.7,0-4.8,0.3-5c0.3-0.2,0.4-0.4,0.4-1c0.8-6.5,7-12.3,15.6-14.8c4.4-1.3,13.4-2.5,18.1-2.5c1.5,0,1.5,0,1.5-0.3
			c0-0.3,0.1-0.3,0.4-0.3c0.3,0,0.4,0.1,0.4,0.2c0,0.2,0.6,0.3,2.8,0.3c5.6,0.2,9.9,0.6,14.4,1.5c4.9,0.9,8.7,2.6,12.1,5.4
			c0.8,0.6,1.1,1.1,1.5,1.8c0.7,1.3,1.3,3.2,1.7,5.4C78,37.2,78,43,77.6,45.9c-1.9,14.4-9.1,25.8-17.7,28.6
			C57.3,75.2,55.2,75.3,50.8,74.7L50.8,74.7z M49.6,67.6c10.7-1,18.4-4.1,22.5-9.2c1.8-2.2,2.8-4.9,3.2-8.4c0.1-1.3,0.1-1.8-0.1-3.2
			c-0.6-3.4-1.9-6-4.4-8.5c-2.1-2.1-4.2-3.3-7-4c-1.9-0.5-5.7-0.8-13.6-1C43.7,33,33.2,33.4,29,33.9c-5.2,0.6-9.7,3.8-12,8.4
			c-1.3,2.6-1.8,5.3-1.5,7.8c0.5,4.2,1.8,7.1,4.6,9.8c2.9,2.8,7.4,5.1,12.7,6.5c2.2,0.6,5.1,1.1,7.3,1.3
			C42.1,67.8,47.6,67.8,49.6,67.6L49.6,67.6z"/>
		<path class="st0" d="M80.8,61.6c0-0.1,0.2-0.9,0.4-1.7c1.9-5.4,2.8-10.2,2.9-15.4c0.1-1.8,0.1-3.3,0.2-3.3s0.7,0.6,1.4,1.3L87,44
			l-0.1,2c-0.2,3.9-0.6,6.9-1.6,10.7c-0.6,2.2-0.6,2.3-1.2,2.9c-0.7,0.6-2.9,2.2-3.1,2.2C80.9,61.9,80.8,61.8,80.8,61.6L80.8,61.6z"
			/>
		<path class="st0" d="M7.8,61.1c-0.6-0.4-1.4-1-1.9-1.5L5,58.9l-0.5-2.2c-0.8-3.8-1.3-7.6-1.4-11.1c-0.1-1.4,0-1.5,0.4-2.1
			c0.3-0.4,0.8-1,1.3-1.4l0.8-0.8l0.1,2.8c0.2,5.7,1.1,10.9,2.6,15.6c0.3,0.8,0.4,1.5,0.4,1.7C8.8,61.8,8.7,61.8,7.8,61.1z"/>
	</g>
	<g>
		<path class="st1" d="M56.6,78.4c-1.5-0.2-5.7-0.6-7.3-0.7c-0.8-0.1-0.9,0-0.9,0.3c0,0.3-0.1,0.3-0.5,0.2c-0.3-0.1-2.2-0.1-4.2-0.1
			c-3.2,0-3.7-0.1-3.7-0.3s-0.3-0.2-2.6-0.1c-1.4,0.1-3.3,0.2-4.2,0.3c-4.5,0.4-8.2-0.4-11.6-2.6c-1.2-0.8-3.7-3.1-4.2-3.9l-0.3-0.4
			l0.6,0.4c1,0.7,2.8,1.5,4.1,1.9c2.5,0.8,4.2,0.8,9.5,0.4c2.6-0.3,11.6-0.3,14.5,0c1.3,0.1,3.9,0.4,5.8,0.6c3,0.4,3.5,0.4,4.9,0.3
			c7.5-0.8,14-7.4,18-18.3c0.3-0.8,0.5-1.5,0.5-1.5c0-0.1-0.3,0.6-0.8,1.5c-1.1,2.3-2.6,4-4.8,5.7c-1,0.7-3.3,2.2-3.5,2.2
			c-0.1,0-0.1-0.2-0.1-0.4c0-0.4,0.5-0.7,1.1-0.7c0.2,0,0.3-0.1,0.3-0.3c0-0.1,0.1-0.3,0.3-0.3c0.1,0,0.3-0.1,0.3-0.1
			c0-0.1,0.1-0.1,0.3-0.1c0.1,0,0.3-0.1,0.3-0.1c0-0.1,0.1-0.1,0.3-0.1s0.3-0.1,0.3-0.1c0-0.1,0.1-0.1,0.3-0.1
			c0.2,0,0.3-0.1,0.3-0.3c0-0.1,0.1-0.3,0.4-0.3s0.4-0.1,0.4-0.3c0-0.4,0.3-0.6,0.9-0.6c0.4,0,0.5,0,0.5-0.5c0-0.6,0.3-0.9,0.6-0.9
			c0.2,0,0.3-0.1,0.3-0.4c0-0.3,0.1-0.4,0.3-0.4c0.1,0,0.3-0.1,0.3-0.3s0.1-0.3,0.3-0.3s0.3-0.1,0.3-0.4s0.1-0.4,0.3-0.4
			c0.3,0,0.6-0.8,0.6-1.4c0-0.3,0.1-0.4,0.1-0.4c0.2-0.1,1-3.3,1-4.6c0.1-1,0.1-1.1,0.4-1.1c0.2,0,0.3,0.1,0.3,0.3
			c0,0.3-0.4,2.8-0.5,3.7c-0.3,1.3,0.6-1.8,1-3.5c0.8-3.6,1-5.8,1-9.4c0-5.4-0.8-8.7-3.1-12.4L74.1,27l0.9,0.8
			c1.8,1.5,3.8,4.1,4.8,6.3c0.5,1.2,1.3,3.6,1.3,4.1c0,0.1,0.2,0.4,0.4,0.7c0.3,0.3,0.4,0.6,0.5,1.8c0.6,6.2-0.6,14.5-3.3,21.3
			c-0.5,1.3-0.7,1.6-1.2,1.9c-0.4,0.3-0.7,0.7-1.2,1.7c-1.5,3-3.5,5.7-5.6,7.8C66.4,77.5,61.8,79.2,56.6,78.4L56.6,78.4z"/>
		<path class="st1" d="M40.6,68.1c-0.1,0-0.3-0.2-0.3-0.3c0-0.1,0.2-0.2,0.8-0.2c0.6,0,0.8,0.1,0.8,0.3c0,0.3-0.1,0.3-0.5,0.3
			C41.2,68.2,40.8,68.1,40.6,68.1z"/>
		<path class="st1" d="M47.9,67.9c0-0.3,0.1-0.3,0.8-0.3c0.6,0,0.8,0.1,0.8,0.2c0,0.3-0.4,0.4-1.1,0.4C48,68.2,47.9,68.1,47.9,67.9z
			"/>
		<path class="st1" d="M38.8,67.9c-0.1,0-0.3-0.2-0.3-0.3c0-0.1,0.2-0.2,0.7-0.2c0.6,0,0.7,0.1,0.7,0.3c0,0.3-0.1,0.3-0.4,0.3
			C39.3,68.1,39,68,38.8,67.9z"/>
		<path class="st1" d="M50.1,67.7c0-0.3,0.1-0.3,0.6-0.3c0.7,0,0.9,0.4,0.3,0.5C50.3,68.1,50.1,68.1,50.1,67.7z"/>
		<path class="st1" d="M35.9,67.5c-7.1-1.2-12.9-3.9-16.5-7.3c-1.2-1.2-2.4-2.8-2.7-3.5c-0.1-0.2,0-0.3,0.3-0.3s0.4,0.1,0.4,0.4
			s0.1,0.4,0.3,0.4c0.2,0,0.3,0.1,0.3,0.2c0,0.1,0.1,0.3,0.3,0.3c0.1,0.1,0.3,0.2,0.3,0.4c0,0.2,0.1,0.4,0.4,0.4
			c0.3,0.1,0.4,0.3,0.4,0.7C19.5,60,19.5,60,20,60c0.6,0,0.8,0.3,0.8,0.6c0,0.2,0.1,0.3,0.4,0.3c0.3,0,0.4,0.1,0.4,0.3
			c0.1,0.2,0.2,0.3,0.4,0.3s0.3,0.1,0.3,0.1c0,0.1,0.1,0.1,0.3,0.1c0.1,0,0.3,0.1,0.3,0.1c0,0.1,0.1,0.1,0.3,0.1
			c0.1,0,0.3,0.1,0.3,0.3c0,0.1,0.1,0.3,0.4,0.3c0.3,0,0.4,0.1,0.4,0.3s0.1,0.3,0.4,0.3c0.4,0,2.1,0.7,2.1,1c0,0.1,0.2,0.1,0.4,0.1
			c0.2,0,0.4,0.1,0.6,0.3c0.1,0.1,0.4,0.3,0.5,0.3c0.2,0,0.3,0.1,0.3,0.1s0.1,0.1,0.3,0.1c0.1,0,1,0.3,1.9,0.5
			c1.9,0.6,4.6,1.2,6.5,1.5c1.1,0.1,1.3,0.3,1.3,0.4C38.4,68,38.2,68,35.9,67.5L35.9,67.5z"/>
		<path class="st1" d="M51.4,67.6c0-0.3,0.2-0.3,1.1-0.4c1.3-0.1,3.9-0.6,5.5-1c0.6-0.1,1.3-0.3,1.5-0.3c0.2,0,0.4-0.1,0.4-0.1
			c0.1-0.1,2.4-1,2.8-1c0.1,0,0.3-0.1,0.3-0.1c0-0.1,0.2-0.1,0.4-0.1s0.4-0.1,0.4-0.1c0-0.2,0.7-0.5,1.2-0.5c1.3,0-0.3,0.8-3.6,1.9
			c-2.4,0.8-4.9,1.3-7.7,1.8C51.4,68,51.4,68,51.4,67.6z"/>
		<path class="st1" d="M12.3,63.7c-0.2-0.1-0.4-0.3-0.4-0.4s-0.1-0.2-0.1-0.2s-0.1-0.2-0.1-0.4c0-0.2-0.1-0.4-0.1-0.4
			c-0.2,0-0.5-1.1-0.5-1.6c0-0.5,0.3-0.5,0.4-0.1c0.4,1.1,1.2,3.1,1.2,3.1C12.7,63.9,12.5,63.8,12.3,63.7L12.3,63.7z"/>
		<path class="st1" d="M80.8,61.6c0-0.4,0.5-2,0.6-2c0.1,0,0.1-0.1,0.1-0.3c0-0.4,0.3-1.5,0.5-1.5c0.1,0,0.1-0.2,0.1-0.4
			c0-0.2,0.2-1.2,0.4-2.2c0.5-2,1.2-6,1.2-6.9c0-0.4,0.1-0.5,0.3-0.5c0.4,0,0.4,0,0.1,2.2c-0.3,2.1-0.8,4.9-1.4,6.8
			c-0.5,1.9-1.5,4.7-1.7,4.9C81,62,80.8,61.9,80.8,61.6z"/>
		<path class="st1" d="M8.4,61.4c0-0.1-0.1-0.1-0.2-0.1c-0.1,0.1-0.1,0.1-0.1-0.1c0.1-0.1-0.1-1-0.4-1.9c-0.8-2.8-1.7-6.8-2-9.7
			c-0.1-0.8-0.1-0.9,0.2-0.9s0.3,0.2,0.4,1.5c0.3,2.1,1,5.6,1.6,7.8c0.6,2.1,0.8,3.5,0.6,3.5C8.5,61.6,8.4,61.5,8.4,61.4L8.4,61.4z"
			/>
		<path class="st1" d="M10.1,58.4c-0.6-2.4-1-4.2-1.4-6.7c-0.4-2.6-0.4-3-0.1-3c0.3,0,0.3,0.1,0.5,2.2c0.3,2,0.9,5.1,1.5,7.1
			c0.3,1,0.5,1.9,0.5,2s-0.1,0.1-0.3,0.1C10.7,60.1,10.5,59.8,10.1,58.4L10.1,58.4z"/>
		<path class="st1" d="M84,59.6c0.7-1.8,1.4-5.1,2.2-9.9c0.1-0.6,0.5-0.7,0.5-0.1c0,1.2-1.3,8-1.5,8C85,57.5,85,57.8,85,58
			c0,0.3-0.1,0.5-0.1,0.5c-0.1,0-0.1,0.2-0.1,0.4c0,0.3-0.1,0.4-0.4,0.6C83.9,59.8,83.8,59.8,84,59.6z"/>
		<path class="st1" d="M5.5,59.3C5,58.9,4.6,57.1,4,53.8c-0.5-2.9-0.6-3.7-0.3-3.7c0.1,0,0.3,0.2,0.3,0.5c0.6,3.5,1,5.3,1.3,7
			c0.3,1.1,0.5,2.1,0.5,2.1C5.9,59.6,5.7,59.4,5.5,59.3z"/>
		<path class="st1" d="M16,55c-0.4-0.8-0.8-2.8-1-4c-0.1-0.7-0.1-0.8,0.2-0.8c0.3,0,0.3,0.1,0.4,0.9c0.1,1.1,0.7,3.5,0.9,3.5
			c0.2,0.1,0.1,1.1,0,1.1C16.3,55.8,16.1,55.5,16,55L16,55z"/>
		<path class="st1" d="M14.8,49.7c-0.1-0.2-0.1-0.7-0.1-1.1c0-1,0.1-1.5,0.4-1.5c0.2,0,0.2,0.3,0.2,1.5c0,1.2-0.1,1.5-0.2,1.5
			C15,50.1,14.9,49.9,14.8,49.7z"/>
		<path class="st1" d="M3.4,49.3c0-0.7,0.4-0.9,0.5-0.3c0.2,0.6,0.1,0.9-0.2,0.9C3.4,49.9,3.4,49.8,3.4,49.3z"/>
		<path class="st1" d="M86.2,48.6c0-0.6,0.2-1,0.4-1c0.1,0,0.2,0.2,0.2,0.7c0,0.6-0.1,0.7-0.3,0.7C86.3,49,86.2,48.9,86.2,48.6z"/>
		<path class="st1" d="M5.6,48.2c-0.2-0.7-0.1-1,0.2-1c0.3,0,0.3,0.1,0.3,0.7C6.1,48.6,5.7,48.8,5.6,48.2z"/>
		<path class="st1" d="M3.2,47.7c0-0.8,0.4-1,0.5-0.3c0.2,0.7,0.1,1-0.2,1C3.2,48.4,3.2,48.3,3.2,47.7z"/>
		<path class="st1" d="M8.2,47.6c0-0.8,0.4-1,0.5-0.3c0.2,0.7,0.1,1-0.2,1C8.3,48.3,8.2,48.1,8.2,47.6z"/>
		<path class="st1" d="M75.2,47.1c-0.1-0.5-0.2-1.3-0.3-1.7c-0.1-0.4-0.3-1.1-0.4-1.5c-0.1-0.4-0.3-0.8-0.3-0.8
			c-0.2-0.2-0.8-1.4-0.8-1.7c0-0.2-0.1-0.3-0.3-0.3s-0.3-0.1-0.3-0.3c0-0.1-0.1-0.3-0.1-0.3c-0.1,0-0.1-0.1-0.1-0.3S72.5,40,72.5,40
			c-0.1,0-0.1-0.2-0.1-0.4c0-0.3-0.1-0.4-0.3-0.4c-0.3,0-0.4-0.1-0.4-0.6v-0.6l0.6,0.7c1.9,2.1,3.2,5.2,3.6,8.5
			c0.1,0.8,0.1,0.9-0.2,0.9C75.3,48.1,75.3,47.9,75.2,47.1L75.2,47.1z"/>
		<path class="st1" d="M84,46.8c0-0.6,0.1-0.7,0.3-0.7c0.3,0,0.4,0.4,0.2,1C84.4,47.7,84,47.6,84,46.8z"/>
		<path class="st1" d="M86.3,46.7c0-0.7,0.1-1.2,0.4-1.2c0.1,0,0.2,0.3,0.2,0.8c0,0.7,0,0.8-0.3,0.8C86.4,47.2,86.3,47,86.3,46.7z"
			/>
		<path class="st1" d="M14.9,46.3c0.4-2.4,1.6-5.3,1.6-3.8c0,0.4-0.3,1.2-0.4,1.4C16,44,16,44.2,15.9,44.4c-0.4,2.5-0.4,2.5-0.8,2.5
			C14.9,47,14.9,46.9,14.9,46.3L14.9,46.3z"/>
		<path class="st1" d="M5.4,45.9c-0.1-0.2-0.1-0.6-0.1-0.9c0-0.4,0.1-0.6,0.3-0.6S6,44.5,6,45.3c0,0.7-0.1,0.9-0.2,0.9
			C5.6,46.2,5.5,46.1,5.4,45.9z"/>
		<path class="st1" d="M3,45c0-1,0.4-1.7,0.5-1.1c0.1,0.2,0.1,0.7,0.1,1.2c0,0.7-0.1,0.8-0.3,0.8C3.1,45.9,3,45.8,3,45z"/>
		<path class="st1" d="M8.1,43.8c0-1.4,0-1.5,0.3-1.5c0.3,0,0.3,0.1,0.3,1.5c0,1.4,0,1.5-0.3,1.5C8.1,45.3,8.1,45.2,8.1,43.8z"/>
		<path class="st1" d="M5.4,42c0-0.2,0.1-0.4,0.3-0.6C6,41.1,6,41.1,6,41.6c0,0.4-0.1,0.6-0.3,0.6C5.5,42.2,5.4,42.2,5.4,42z"/>
		<path class="st1" d="M16.8,41.1c0.3-0.6,1.5-2.2,2.5-3.3c1-1,3.3-2.8,3.7-2.8c0.1,0,0.1,0.2,0.1,0.4c0,0.3-0.1,0.4-0.4,0.4
			c-0.2,0.1-0.4,0.1-0.4,0.3c0,0.1-0.1,0.1-0.3,0.1c-0.1,0-0.3,0.1-0.3,0.1s-0.1,0.1-0.3,0.1s-0.3,0.1-0.3,0.1s-0.2,0.1-0.4,0.1
			c-0.3,0-0.4,0.1-0.4,0.3c0,0.4-0.3,0.6-0.9,0.6c-0.4,0-0.5,0-0.5,0.5c0,0.6-0.3,0.9-0.6,0.9c-0.2,0-0.3,0.1-0.3,0.4
			c0,0.2-0.1,0.4-0.1,0.4c-0.1,0-0.1,0.1-0.1,0.3c0,0.1-0.1,0.3-0.1,0.3c-0.1,0-0.1,0.1-0.1,0.3c0,0.1-0.1,0.3-0.1,0.3
			c-0.1,0-0.1,0.1-0.1,0.3c0,0.1-0.1,0.3-0.4,0.3C16.8,41.3,16.7,41.3,16.8,41.1z"/>
		<path class="st1" d="M8.2,40.2c0-0.6,0.1-0.7,0.3-0.7c0.3,0,0.4,0.4,0.2,1C8.6,41.1,8.2,40.9,8.2,40.2z"/>
		<path class="st1" d="M69.8,37.1c-0.1-0.2-0.2-0.3-0.4-0.3c-0.2,0-0.3-0.1-0.4-0.3c-0.1-0.1-0.2-0.3-0.3-0.3
			c-0.1,0-0.2-0.1-0.2-0.1s-0.2-0.2-0.4-0.3s-0.4-0.2-0.4-0.3c0-0.1-0.1-0.3-0.3-0.3c-0.4,0-0.8-0.2-0.8-0.4c0-0.1-0.2-0.2-0.5-0.2
			c-0.4,0-0.5-0.1-0.5-0.4c0-0.3,0-0.4,0.4-0.3c1.5,0.6,3.4,1.7,4.4,2.6l0.6,0.6h-0.6C70,37.5,69.9,37.4,69.8,37.1L69.8,37.1z"/>
		<path class="st1" d="M23.6,34.8c0-0.3,1.2-0.7,2.9-1.2c1.8-0.4,2.1-0.4,2.1-0.1c0,0.2-0.1,0.3-0.7,0.4c-0.4,0.1-1.3,0.3-2.1,0.6
			C24.3,35,23.6,35.2,23.6,34.8z"/>
		<path class="st1" d="M63.5,34.2c-0.4-0.1-1.2-0.3-1.8-0.3c-0.9-0.1-1-0.1-1-0.4s0.1-0.3,1-0.2s2.5,0.4,3.3,0.6
			c0.2,0.1,0.3,0.2,0.3,0.3C65.3,34.4,64.5,34.4,63.5,34.2z"/>
		<path class="st1" d="M28.7,33.5c0-0.2,0.4-0.4,1-0.4c0.3,0,0.3,0.1,0.3,0.3s-0.1,0.3-0.7,0.3C28.9,33.8,28.7,33.7,28.7,33.5z"/>
		<path class="st1" d="M30.7,33.4c0-0.3,0.4-0.4,1.1-0.4c0.3,0,0.4,0.1,0.4,0.3c0,0.3-0.1,0.3-0.8,0.3
			C30.9,33.6,30.7,33.5,30.7,33.4z"/>
		<path class="st1" d="M58.4,33.4c0-0.3,0.1-0.3,0.4-0.3c0.6,0,1.1,0.2,1.1,0.4c0,0.1-0.2,0.2-0.8,0.2
			C58.5,33.6,58.4,33.6,58.4,33.4z"/>
		<path class="st1" d="M33.3,33.3c0-0.3,0.4-0.4,1.1-0.4c0.3,0,0.4,0.1,0.4,0.3c0,0.3-0.1,0.3-0.8,0.3
			C33.5,33.5,33.3,33.4,33.3,33.3z"/>
		<path class="st1" d="M55.7,33.2c0-0.3,0.1-0.3,0.4-0.3c0.6,0,1.1,0.2,1.1,0.4c0,0.1-0.2,0.2-0.8,0.2
			C55.9,33.5,55.7,33.4,55.7,33.2z"/>
		<path class="st1" d="M36.5,33.1c0-0.3,0.4-0.4,1.3-0.4c0.4,0,0.6,0.1,0.6,0.3c0,0.3-0.1,0.3-0.9,0.3
			C36.8,33.4,36.5,33.3,36.5,33.1z"/>
		<path class="st1" d="M52.2,33c0-0.3,0.1-0.3,0.6-0.3c0.8,0,1.3,0.1,1.3,0.4c0,0.1-0.3,0.2-0.9,0.2C52.3,33.4,52.2,33.3,52.2,33z"
			/>
		<path class="st1" d="M42.6,33c0-0.3,0.5-0.4,2.8-0.4s2.8,0.1,2.8,0.4c0,0.2-0.5,0.2-2.8,0.2C43,33.2,42.6,33.1,42.6,33z"/>
	</g>
	<g>
		<path class="st2" d="M80.2,54.5c0-0.4,0.2-0.9,0.4-0.9c0.1,0,0.2,0.2,0.2,0.5c0,0.4-0.1,0.5-0.3,0.5
			C80.4,54.7,80.2,54.6,80.2,54.5z"/>
		<path class="st2" d="M81.1,48.8c0-0.4,0.2-0.9,0.4-0.9c0.1,0,0.2,0.2,0.2,0.5c0,0.4-0.1,0.5-0.3,0.5C81.3,49,81.1,48.9,81.1,48.8z
			"/>
		<path class="st2" d="M81.3,46.8c0-0.4,0.2-0.9,0.4-0.9c0.1,0,0.2,0.2,0.2,0.5c0,0.4-0.1,0.5-0.3,0.5C81.4,47,81.3,46.9,81.3,46.8z
			"/>
		<path class="st2" d="M81.1,39.5c-0.1-0.6-0.1-0.6,0.2-0.4c0.4,0.3,0.4,0.7,0.1,0.7C81.3,39.8,81.1,39.6,81.1,39.5L81.1,39.5z"/>
	</g>
	<g>
		<path class="st3" d="M41.3,68.1c-0.1,0-0.3-0.2-0.3-0.3c0-0.2,0.3-0.2,1-0.2c0.9,0,1,0,1,0.3c0,0.3-0.1,0.3-0.7,0.3
			C41.9,68.2,41.4,68.1,41.3,68.1z"/>
		<path class="st3" d="M46.6,67.9c0-0.3,0.1-0.3,1.2-0.3c0.9,0,1.2,0.1,1.2,0.2c0,0.3-0.4,0.4-1.5,0.4
			C46.6,68.2,46.6,68.2,46.6,67.9z"/>
		<path class="st3" d="M38.4,67.9c-2.1-0.3-5.3-0.9-7.2-1.4C23.4,64.2,18,60.2,16,55c-0.4-1.2-0.8-2.7-1-4.2
			c-0.1-0.7-0.1-0.8,0.2-0.8c0.3,0,0.3,0.1,0.4,1c0.3,2,1.3,5.2,2.1,6c0.1,0.2,0.3,0.4,0.3,0.5c0,0.1,0.1,0.2,0.1,0.2
			c0.1,0,0.1,0.1,0.1,0.3c0,0.2,0.1,0.3,0.3,0.3c0.1,0,0.3,0.1,0.3,0.4c0,0.4,0.1,0.4,0.4,0.4c0.4,0,1.2,0.8,1.2,1.2
			c0,0.3,0.1,0.3,0.4,0.3c0.3,0,0.5,0.1,0.6,0.3c0.1,0.2,0.2,0.3,0.4,0.3s0.3,0.1,0.4,0.3c0.1,0.1,0.2,0.3,0.3,0.3
			c0.1,0,0.2,0.1,0.2,0.1c0,0.1,0.1,0.1,0.3,0.1c0.1,0,0.3,0.1,0.3,0.1c0,0.1,0.1,0.1,0.2,0.1c0.1,0,0.3,0.1,0.4,0.2
			c0.1,0.1,0.9,0.5,1.8,1c0.8,0.4,1.5,0.8,1.5,0.8s0.2,0.1,0.4,0.2c0.3,0.1,1.4,0.4,2.6,0.8c2.5,0.8,5.9,1.6,8.7,1.9
			c1.5,0.2,1.8,0.3,1.8,0.4C40.6,68.1,40.3,68.1,38.4,67.9z"/>
		<path class="st3" d="M49.3,67.7c0-0.3,0.1-0.3,0.6-0.3c1,0,4.9-0.6,6.9-1c2.4-0.5,5.3-1.4,7.3-2.3c0.8-0.4,1.7-0.7,1.8-0.7
			c0.2,0,0.3-0.1,0.3-0.2c0-0.1,0.3-0.3,0.5-0.4c0.3-0.1,0.5-0.3,0.5-0.3c0-0.1,0.1-0.1,0.3-0.1s0.3-0.1,0.3-0.1
			c0-0.1,0.1-0.1,0.3-0.1s0.3-0.1,0.3-0.1s0.1-0.1,0.3-0.1s0.3-0.1,0.3-0.1c0-0.1,0.1-0.1,0.3-0.1c0.1,0,0.3-0.1,0.4-0.3
			c0.1-0.3,0.2-0.3,0.6-0.3s0.4-0.1,0.4-0.4c0-0.4,0.8-1.2,1.2-1.2c0.3,0,0.3-0.1,0.3-0.4c0-0.3,0.1-0.5,0.3-0.6
			c0.1-0.1,0.3-0.2,0.3-0.3s0.1-0.3,0.3-0.3c0.1-0.1,0.3-0.2,0.3-0.3s0.1-0.3,0.2-0.4c0.2-0.3,1.1-2,1.4-3c0.4-1.1,0.8-4,0.8-5.3
			c0-1.4-0.4-3.6-1-4.9c-0.2-0.6-0.4-1.2-0.4-1.3c0-0.2-0.1-0.3-0.2-0.3s-0.3-0.3-0.4-0.5c-0.1-0.3-0.3-0.5-0.3-0.5
			c-0.1,0-0.1-0.1-0.1-0.3c0-0.1-0.1-0.3-0.1-0.3c-0.1,0-0.1-0.1-0.1-0.2c0-0.1-0.1-0.3-0.3-0.3c-0.1-0.1-0.3-0.3-0.3-0.4
			c0-0.3-0.1-0.4-0.3-0.4c-0.4,0-1.7-1.4-1.7-1.7c0-0.2-0.1-0.3-0.4-0.3c-0.3,0-0.4-0.1-0.4-0.3c0-0.1-0.1-0.3-0.3-0.3
			c-0.2,0-0.3-0.1-0.3-0.1s-0.1-0.1-0.3-0.1c-0.1,0-0.3-0.1-0.3-0.3s-0.1-0.3-0.3-0.3c-0.1,0-0.8-0.3-1.5-0.6
			c-1.2-0.6-3.5-1.2-4.2-1.2c-0.3,0-0.4-0.1-0.4-0.3c0-0.3,0.1-0.3,0.8-0.2c4.2,0.6,8.2,3.1,10.5,6.6c1.5,2.3,2.4,4.8,2.7,7.8
			c0.1,1.4-0.2,4.3-0.7,6c-2.1,7.5-10.1,12.5-22.6,14C49.4,68.1,49.3,68.1,49.3,67.7L49.3,67.7z"/>
		<path class="st3" d="M77.2,63.5c1.9-4.3,3-8.1,3.6-12.3c0.2-1.2,0.4-2.4,0.4-2.6c0.1-0.3,0.2-0.5,0.3-0.5c0.2,0,0.3,0.2,0.1,1.2
			c-0.3,3.5-1.5,8.6-3.2,12.8c-0.5,1.3-0.6,1.5-1.1,1.7L76.9,64L77.2,63.5L77.2,63.5z"/>
		<path class="st3" d="M12.2,63.6c-0.4-0.3-0.6-0.6-1.3-2.6C9.7,57.4,9,54.1,8.4,50.4c-0.3-2.4-0.3-3,0-3c0.3,0,0.4,0.4,0.4,1.2
			c0,1,0.6,4.8,1.1,6.9c0.5,2.2,1.5,5.6,2.2,7.3c0.3,0.6,0.4,1.1,0.4,1.1C12.7,63.9,12.4,63.8,12.2,63.6z"/>
		<path class="st3" d="M43.7,63.8c-0.4-0.1-0.5-0.1-0.5-0.6c0-0.6,0.1-0.6,1.3-0.4c0.7,0.1,0.7,0.1,0.7,0.6
			C45.1,63.9,45.1,63.9,43.7,63.8L43.7,63.8z"/>
		<path class="st3" d="M46.4,63.4v-0.5l1.2-0.2c0.7-0.1,1.2-0.3,1.2-0.3c0-0.1,0.3-0.1,0.5-0.1c0.5,0,0.5,0,0.5,0.5s0,0.5-0.4,0.5
			c-0.3,0-0.4,0.1-0.4,0.1c0,0.1-1.6,0.4-2.2,0.4C46.4,63.9,46.4,63.8,46.4,63.4L46.4,63.4z"/>
		<path class="st3" d="M40.6,62.8c-0.3-0.1-0.4-0.3-0.4-0.7c0-0.4,0.1-0.5,0.4-0.5c0.8,0,1.2,0.3,1.2,0.9c0,0.4,0,0.5-0.5,0.5
			C41.2,63,40.8,62.9,40.6,62.8L40.6,62.8z"/>
		<path class="st3" d="M50.7,61.8c0-0.4,0.1-0.5,0.3-0.5c0.1,0,0.3-0.1,0.3-0.1c0-0.1,0.2-0.1,0.4-0.1c0.4,0,0.4-0.1,0.5-0.4
			c0-0.3,0.1-0.4,0.4-0.4c0.3-0.1,0.4-0.1,0.4-0.4c0-0.9,0.1-1.1,0.7-1.1c0.4,0,0.5,0.1,0.5,0.4c0,0.8-0.2,1.1-0.6,1.1
			c-0.3,0-0.4,0.1-0.4,0.6c-0.1,0.5-0.1,0.6-0.5,0.6c-0.4,0.1-0.5,0.1-0.5,0.4c0,0.3-0.1,0.4-0.3,0.4c-0.1,0-0.3,0.1-0.3,0.1
			c0,0.1-0.3,0.1-0.5,0.1C50.7,62.4,50.7,62.3,50.7,61.8L50.7,61.8z"/>
		<path class="st3" d="M8.7,61.7C8.1,61.2,6.6,55.4,6,51.1c-0.4-2.7-0.4-2.8-0.1-2.8c0.3,0,0.3,0.3,0.4,1.7c0.4,3.1,1.2,7,2.2,10
			C8.8,60.7,9,61.4,9,61.6C9,61.8,9,61.9,8.7,61.7z"/>
		<path class="st3" d="M80.8,61.5c0-0.3,0.3-1.2,0.5-2.1c1.2-3.3,2.2-8.2,2.5-10.9c0.1-1,0.1-1.2,0.4-1.2c0.3,0,0.3,0.1,0.2,1
			c-0.2,1.8-0.8,5.4-1.3,7.3c-0.4,1.8-1.6,5.5-1.9,6C81.1,62.1,80.8,61.9,80.8,61.5L80.8,61.5z"/>
		<path class="st3" d="M38.7,61c0-0.5,0-0.5,0.5-0.5c0.5,0,0.5,0,0.5,0.5c0,0.5,0,0.5-0.5,0.5C38.7,61.6,38.7,61.6,38.7,61z"/>
		<path class="st3" d="M37.3,58.7v-1h0.5c0.4,0,0.5-0.1,0.5-0.4s0.1-0.4,0.5-0.4c0.5,0,0.5,0,0.5,0.5s0,0.5-0.5,0.5h-0.5v0.8v0.8
			h-0.5h-0.5V58.7z"/>
		<path class="st3" d="M84.3,58.2c0.6-2.1,1.3-5.3,1.6-7.4c0.4-2.7,0.4-2.8,0.6-2.8c0.3,0,0.3,0.6-0.1,3.1c-0.3,2.2-0.8,4.5-1.4,6.7
			c-0.3,1-0.4,1.3-0.8,1.5l-0.4,0.3L84.3,58.2L84.3,58.2z"/>
		<path class="st3" d="M5.4,59.1c-0.5-0.4-1.3-4-1.9-8.3c-0.4-2.8-0.4-3.4-0.1-3.4c0.3,0,0.3,0.1,0.6,3.1c0.3,2.4,0.8,5.3,1.4,7.4
			c0.1,0.8,0.3,1.5,0.3,1.5C5.7,59.4,5.5,59.3,5.4,59.1L5.4,59.1z"/>
		<path class="st3" d="M51.3,57.4c0-0.5,0-0.5,0.5-0.5c0.5,0,0.5,0,0.5,0.5c0,0.5,0,0.5-0.5,0.5C51.3,57.9,51.3,57.9,51.3,57.4z"/>
		<path class="st3" d="M40.6,57.2v-0.5h0.8h0.8v0.5v0.5h-0.8h-0.8V57.2z"/>
		<path class="st3" d="M49.4,57.2c0-0.5,0-0.5,0.7-0.5c0.7,0,0.7,0,0.7,0.5c0,0.5,0,0.5-0.7,0.5C49.4,57.7,49.4,57.8,49.4,57.2z"/>
		<path class="st3" d="M31,50.8c0-0.1-0.3-0.1-0.5-0.1c-0.5,0-0.5,0-0.5-0.5c0-0.5,0-0.5,0.5-0.5c0.3,0,0.5,0.1,0.5,0.1
			c0,0.1,0.3,0.1,0.7,0.1s0.7-0.1,0.7-0.1c0-0.1,0.1-0.1,0.2-0.1c0.1,0,0.3-0.1,0.3-0.3c0.1-0.1,0.2-0.3,0.3-0.3
			c0.1,0,0.3-0.1,0.3-0.3c0-0.3,0.1-0.3,0.5-0.3c0.5,0,0.5,0,0.5,0.5c0,0.4-0.1,0.5-0.3,0.5c-0.1,0-0.3,0.1-0.3,0.3
			s-0.1,0.4-0.3,0.4c-0.2,0.1-0.3,0.1-0.3,0.2s-0.3,0.1-0.5,0.1c-0.3,0-0.5,0.1-0.5,0.1c0,0.1-0.3,0.1-0.7,0.1S31,51,31,50.8z"/>
		<path class="st3" d="M58.5,49.5c0-0.5,0-0.5,0.5-0.5c0.5,0,0.5,0,0.5,0.5s0,0.5-0.5,0.5C58.5,50.1,58.5,50.1,58.5,49.5z"/>
		<path class="st3" d="M56.7,49.4c0-0.5,0-0.5,0.5-0.5c0.5,0,0.5,0,0.5,0.5c0,0.5,0,0.5-0.5,0.5C56.7,49.9,56.7,49.9,56.7,49.4z"/>
		<path class="st3" d="M28.7,48.6c0-0.5,0-0.5,0.5-0.5s0.5,0,0.5,0.5c0,0.5,0,0.5-0.5,0.5C28.7,49.2,28.7,49.1,28.7,48.6z"/>
		<path class="st3" d="M55.4,48.1c0-0.5,0-0.5,0.5-0.5c0.5,0,0.5,0,0.5,0.5c0,0.5,0,0.5-0.5,0.5C55.4,48.6,55.4,48.6,55.4,48.1z"/>
		<path class="st3" d="M5.6,47.7c-0.1-0.2-0.1-0.6-0.1-0.8c0-0.4,0.1-0.5,0.3-0.5s0.3,0.1,0.3,0.8c0,0.6-0.1,0.8-0.2,0.8
			C5.8,48.1,5.7,47.9,5.6,47.7z"/>
		<path class="st3" d="M81.3,47.4c0-0.8,0.1-1.3,0.4-1.3c0.1,0,0.2,0.3,0.2,0.9c0,0.8,0,0.9-0.3,0.9C81.3,47.9,81.3,47.8,81.3,47.4z
			"/>
		<path class="st3" d="M86.3,47.4c0-0.7,0.1-1.2,0.4-1.2c0.1,0,0.2,0.3,0.2,0.8c0,0.7,0,0.8-0.3,0.8C86.4,47.9,86.3,47.8,86.3,47.4z
			"/>
		<path class="st3" d="M60.4,47.1c0-0.4-0.1-0.7-0.1-0.7c-0.1,0-0.1-0.1-0.1-0.2c0-0.1-0.1-0.3-0.3-0.3c-0.1-0.1-0.3-0.3-0.3-0.6
			c0-0.5,0-0.5,0.6-0.5c0.4,0,0.6,0.1,0.6,0.3c0.1,0.2,0.1,0.3,0.2,0.3c0.1,0,0.1,0.3,0.1,0.5s0.1,0.5,0.1,0.5
			c0.1,0,0.1,0.3,0.1,0.7c0,0.7,0,0.7-0.5,0.7S60.4,47.7,60.4,47.1z"/>
		<path class="st3" d="M33.6,47.3c0-0.2-0.1-0.3-0.1-0.3s-0.1-0.2-0.1-0.4c0-0.3-0.1-0.4-0.3-0.4c-0.1,0-0.5-0.1-0.8-0.2
			c-0.4-0.1-0.5-0.3-0.5-0.7s0.1-0.5,0.4-0.5c0.8,0,1.4,0.3,1.4,0.7c0,0.3,0.1,0.4,0.4,0.4c0.3,0,0.4,0.1,0.4,0.3
			c0,0.2,0.1,0.3,0.1,0.3s0.1,0.3,0.1,0.5c0,0.5,0,0.5-0.5,0.5C33.8,47.6,33.6,47.6,33.6,47.3z"/>
		<path class="st3" d="M14.9,46.6c0.6-4.4,3.1-8.4,6.8-10.7c2-1.3,4.3-2.2,6.4-2.4c0.8-0.1,0.9-0.1,0.9,0.2c0,0.3-0.1,0.3-0.8,0.4
			c-0.4,0.1-1.4,0.3-2.1,0.4s-1.3,0.4-1.5,0.4s-0.3,0.1-0.3,0.1c0,0.2-1,0.6-1.4,0.6c-0.2,0-0.3,0.1-0.3,0.3s-0.1,0.3-0.3,0.3
			s-0.3,0.1-0.3,0.1c0,0.1-0.1,0.1-0.3,0.1c-0.1,0-0.3,0.1-0.3,0.1s-0.1,0.1-0.2,0.1c-0.1,0-0.3,0.1-0.3,0.3
			c-0.1,0.1-0.3,0.3-0.6,0.3c-0.4,0-0.4,0.1-0.4,0.4c0,0.4-0.8,1.2-1.2,1.2c-0.3,0-0.3,0.1-0.3,0.4c0,0.3-0.1,0.5-0.3,0.6
			c-0.1,0.1-0.3,0.2-0.3,0.3S18,40.2,18,40.2c-0.1,0-0.1,0.1-0.1,0.3c0,0.1-0.1,0.3-0.1,0.3c-0.1,0-0.1,0.1-0.1,0.2
			c0,0.1-0.1,0.3-0.1,0.3c-0.1,0-0.3,0.4-0.5,0.8c-0.2,0.4-0.4,0.8-0.5,0.8s-0.1,0.1-0.1,0.3c0,0.1-0.2,0.8-0.4,1.4
			c-0.2,0.6-0.4,1.5-0.4,2c-0.1,0.6-0.1,0.8-0.4,0.8C14.9,47.3,14.9,47.2,14.9,46.6L14.9,46.6z"/>
		<path class="st3" d="M28.9,46.8c0-0.5,0-0.5,0.5-0.5s0.5,0,0.5,0.5s0,0.5-0.5,0.5S28.9,47.3,28.9,46.8z"/>
		<path class="st3" d="M3,46c0-0.8,0.1-1,0.2-1c0.3,0,0.4,0.4,0.4,1.3c0,0.5-0.1,0.6-0.3,0.6C3.1,47,3,46.9,3,46z"/>
		<path class="st3" d="M84,46c0-0.9,0-1,0.3-1c0.3,0,0.3,0.1,0.3,0.6c0,0.8-0.1,1.3-0.4,1.3C84.1,47,84,46.8,84,46z"/>
		<path class="st3" d="M8.1,45.6c0-1,0.1-1.2,0.2-1.2c0.3,0,0.4,0.4,0.4,1.6c0,0.8,0,0.9-0.3,0.9S8.1,46.7,8.1,45.6z"/>
		<path class="st3" d="M55.6,45.7c0-0.5,0-0.5,0.5-0.5c0.5,0,0.5,0,0.5,0.5s0,0.5-0.5,0.5C55.6,46.2,55.6,46.2,55.6,45.7z"/>
		<path class="st3" d="M30.1,45.6c0-0.6,0.3-0.7,1.1-0.7c0.4,0,0.4,0.1,0.4,0.5c0,0.6-0.3,0.7-1.1,0.7C30.2,46.1,30.1,46,30.1,45.6z
			"/>
		<path class="st3" d="M5.4,45c-0.1-0.6-0.1-3,0.1-3.3c0.4-0.6,0.4-0.3,0.4,1.7c0,1.6-0.1,2-0.2,2C5.6,45.3,5.5,45.2,5.4,45z"/>
		<path class="st3" d="M57,44.6c0-0.5,0-0.5,0.5-0.5s0.5,0,0.5,0.5c0,0.5,0,0.5-0.5,0.5S57,45.1,57,44.6z"/>
		<path class="st3" d="M86.5,44.1v-0.5l0.3,0.4c0.4,0.4,0.4,0.6,0,0.6C86.5,44.5,86.5,44.4,86.5,44.1z"/>
		<path class="st3" d="M8.1,42c0-1,0-1.2,0.3-1.2c0.3,0,0.3,0.1,0.3,0.8c0,1-0.1,1.5-0.4,1.5C8.2,43.2,8.1,42.9,8.1,42z"/>
		<path class="st3" d="M81.4,42c-0.1-0.6-0.4-3.1-0.3-3.1c0,0,0.2,0.1,0.4,0.3c0.3,0.3,0.4,0.4,0.4,1.9c0.1,1.4,0.1,1.5-0.1,1.5
			C81.5,42.5,81.4,42.3,81.4,42z"/>
		<path class="st3" d="M84,41.8c0-0.6,0-0.6,0.3-0.4c0.2,0.1,0.3,0.3,0.3,0.6c0,0.4-0.1,0.4-0.3,0.4S84,42.3,84,41.8z"/>
		<path class="st3" d="M8.2,39.8c0-0.4,0.1-0.6,0.3-0.7s0.3-0.1,0.3,0.2c0,0.6-0.2,1-0.4,1C8.4,40.4,8.2,40.2,8.2,39.8z"/>
		<path class="st3" d="M29.2,33.5c0-0.3,0.4-0.4,1.2-0.4c0.4,0,0.5,0.1,0.5,0.3s-0.1,0.3-0.8,0.3C29.4,33.8,29.2,33.7,29.2,33.5z"/>
		<path class="st3" d="M59.7,33.5c0-0.3,0.1-0.3,0.6-0.3c0.8,0,1.3,0.1,1.3,0.4c0,0.1-0.3,0.2-0.9,0.2
			C59.9,33.8,59.7,33.7,59.7,33.5z"/>
		<path class="st3" d="M31.3,33.4c0-0.3,0.4-0.4,1.3-0.4c0.4,0,0.6,0.1,0.6,0.3c0,0.3-0.1,0.3-0.9,0.3
			C31.6,33.6,31.3,33.5,31.3,33.4z"/>
		<path class="st3" d="M57.5,33.4c0-0.3,0.1-0.3,0.6-0.3c0.8,0,1.3,0.1,1.3,0.4c0,0.1-0.3,0.2-0.9,0.2
			C57.5,33.6,57.5,33.6,57.5,33.4z"/>
		<path class="st3" d="M34,33.3c0-0.3,0.4-0.4,1.4-0.4c0.6,0,0.7,0.1,0.7,0.3c0,0.3-0.1,0.3-1.1,0.3C34.2,33.5,34,33.4,34,33.3z"/>
		<path class="st3" d="M54.5,33.2c0-0.3,0.1-0.3,0.7-0.3c1,0,1.4,0.1,1.4,0.4c0,0.2-0.3,0.2-1.1,0.2C54.6,33.5,54.5,33.5,54.5,33.2z
			"/>
		<path class="st3" d="M37.5,33.1c0-0.3,0.5-0.4,1.8-0.4c1,0,1.1,0,1.1,0.3c0,0.3-0.1,0.3-1.5,0.3C37.8,33.4,37.5,33.3,37.5,33.1z"
			/>
		<path class="st3" d="M50.2,33c0-0.3,0.1-0.3,1.1-0.3c1.3,0,1.8,0.1,1.8,0.4c0,0.2-0.3,0.2-1.5,0.2C50.3,33.4,50.2,33.3,50.2,33z"
			/>
	</g>
	<g>
		<path class="st4" d="M43.2,63.7c-2.2-0.4-5.1-2.3-5.7-3.7c-0.3-0.7-0.3-1.9,0-2.4c0.1-0.2,0.6-0.4,1.1-0.6
			c0.8-0.3,1.6-0.3,6.9-0.3c6.6,0,7.6,0.1,8.2,0.8c0.4,0.4,0.5,1.5,0.1,2.4c-0.6,1.5-3.3,3.2-5.7,3.7C46.7,63.9,44.7,63.9,43.2,63.7
			L43.2,63.7z"/>
		<path class="st4" d="M30,50.5c-1-0.6-1.2-1.1-1.2-2.5c0-1.1,0-1.3,0.3-1.9c1-1.7,4.1-1.8,5.2-0.2c0.3,0.4,0.4,0.8,0.4,1.8
			c0.1,1.2,0,1.3-0.3,1.9c-0.6,1-1.2,1.2-2.6,1.2C30.7,50.8,30.4,50.8,30,50.5L30,50.5z"/>
		<path class="st4" d="M56.6,49.7c-0.3-0.2-0.8-0.6-1-1c-0.3-0.5-0.3-0.8-0.3-1.9c0.1-1.1,0.1-1.3,0.5-1.8c0.6-0.8,1.2-1,2.6-1
			c1.3,0,1.9,0.3,2.5,1.2c0.3,0.4,0.4,0.7,0.4,1.8s-0.1,1.3-0.3,1.8c-0.6,1-1.1,1.2-2.5,1.2C57.4,50.1,57.2,50.1,56.6,49.7
			L56.6,49.7z"/>
	</g>
	<g>
		<path class="st5" d="M41.7,68.1c-5.8-0.3-11.7-1.7-16.1-3.9c-2.6-1.3-4.2-2.4-5.9-3.9c-3.1-2.9-4.6-6.3-4.8-10.9
			c-0.3-6.1,3-11.8,8.5-14.5c2.7-1.3,4.9-1.7,14.2-2.1c9.6-0.4,23.3,0.1,26.6,1c1.6,0.4,3.9,1.4,5.1,2.4c2.2,1.5,4.4,4.4,5.4,6.9
			c1.6,4.1,1.2,9.8-1,13.8c-2.1,3.9-6.4,6.9-12.3,8.9C56,67.5,48.4,68.4,41.7,68.1L41.7,68.1z M47.8,63.2c2.7-0.6,5.5-2.6,5.8-4.2
			c0.1-0.8-0.3-1.2-1.3-1.5c-0.8-0.3-1.5-0.3-6.4-0.3c-6,0-6.9,0.1-7.7,0.6c-1.9,1.3,1.3,4.6,5.3,5.4C44.9,63.5,46.6,63.5,47.8,63.2
			L47.8,63.2z M32.9,50.1c0.8-0.4,1.2-1.1,1.3-2.1c0.1-0.8,0-1-0.3-1.4c-0.5-0.8-1.1-1.1-1.9-1.2c-1.5-0.1-2.6,0.8-2.8,2.3
			c-0.1,0.9,0.1,1.5,0.8,2.1C30.8,50.5,31.8,50.6,32.9,50.1L32.9,50.1z M59.4,49.4c1.4-0.7,1.9-2.5,1-3.9c-0.6-1-2.5-1.3-3.5-0.6
			c-0.9,0.6-1.2,1.1-1.2,2.2c0,0.8,0.1,1,0.4,1.5c0.3,0.3,0.6,0.6,0.9,0.8C57.8,49.7,58.9,49.7,59.4,49.4z"/>
		<path class="st5" d="M77.1,63.9c0,0,0.2-0.5,0.4-1.1c1.7-3.8,3.3-9.9,3.7-14.6c0.2-1.9,0.1-7.6-0.1-8.7L81.1,39l0.5,0.3
			c0.4,0.3,1.6,1.1,2.6,1.9l0.4,0.4v2.6c0,5.1-0.8,9.6-2.6,15.2l-0.8,2.5l-0.8,0.5C78.7,63.2,77.1,64,77.1,63.9L77.1,63.9z"/>
		<path class="st5" d="M10.6,62.8c-1-0.5-1.8-1-1.9-1.2c-0.4-0.4-1.4-3.8-2.1-7.3c-0.8-3.7-1-6.1-1-9.7v-3.2l1.6-1.2
			c0.9-0.6,1.6-1.2,1.6-1.2s0,0.7-0.1,1.6c-0.3,3.1,0.1,8.8,0.8,12.8c0.6,3.3,2.1,8.3,2.8,9.7C12.7,64,12.7,63.9,10.6,62.8
			L10.6,62.8z"/>
		<path class="st5" d="M84.1,59.3c0.3-0.7,1.3-5.1,1.6-6.7c0.4-2.5,0.8-5.5,0.8-7.1c0-1.9,0.1-2,0.9-0.8c1.7,2.7,2.2,5.2,1.5,7.9
			c-0.5,2.1-2,4.4-3.9,6.2C84.1,59.6,84,59.8,84.1,59.3z"/>
		<path class="st5" d="M4.7,58.5c-1.8-1.8-3.1-3.9-3.6-5.8c-0.3-1.2-0.4-3.1-0.1-4.3c0.3-1,1.2-3.1,1.9-4l0.5-0.7l0.1,2.2
			c0.2,3.8,0.8,8.3,1.9,12.2c0.2,0.8,0.3,1.4,0.3,1.4S5.2,59.1,4.7,58.5L4.7,58.5z"/>
	</g>
	<g>
		<path class="st6" d="M44.2,19.1c0-2,0-2.1,1-2.4c0.4-0.1,0.8-0.3,0.9-0.4c0.1-0.1-0.9-0.4-2.1-0.8s-2.3-0.7-2.4-0.8
			c-0.1-0.1,0.4-0.4,1.3-0.9l1.5-0.8l0.1-1.9c0.1-1.8,0.1-1.9,0.4-1.9l0.4-0.1l-0.1,2.1l-0.1,2.2l-0.8,0.4c-0.4,0.3-0.8,0.4-0.7,0.5
			c0,0.1,1.3,0.4,2.8,0.9c1.5,0.4,2.6,0.8,2.6,0.8c-0.1,0-0.9,0.3-1.9,0.6l-1.9,0.6L45,19.1c-0.1,1.5-0.1,1.5-0.4,1.5
			C44.2,20.6,44.2,20.6,44.2,19.1z"/>
		<path class="st6" d="M44.1,9.1c-1.2-0.6-1.3-2.1-0.4-3c0.8-0.8,1.9-0.7,2.6,0.2c0.8,1,0.4,2.4-0.8,2.8C44.9,9.4,44.8,9.4,44.1,9.1
			L44.1,9.1z"/>
	</g>
</g>
</svg>
