<?xml version="1.0" encoding="utf-8"?>
<!-- Generator: Adobe Illustrator 21.0.2, SVG Export Plug-In . SVG Version: 6.00 Build 0)  -->
<svg version="1.1" id="Layer_1" xmlns="http://www.w3.org/2000/svg" xmlns:xlink="http://www.w3.org/1999/xlink" x="0px" y="0px"
	 viewBox="0 0 161 137.3" style="enable-background:new 0 0 161 137.3;" xml:space="preserve">
<style type="text/css">
	.st0{fill:#A0BEDC;}
	.st1{fill:#84A6C2;}
	.st2{fill:#468FBF;}
	.st3{fill:#5B8294;}
	.st4{fill:#2DC66F;}
	.st5{fill:#0D363F;}
</style>
<g>
	<path class="st0" d="M88,118.9c-2.5-0.3-6.3-0.7-8.5-0.9c-4.9-0.4-17-0.4-21.2,0c-8.4,0.7-12.4,0.6-16.2-0.6
		c-2.9-0.9-4.5-1.8-5.8-3.2c-1.7-1.9-4.6-6.4-6.2-9.4c-1-1.9-1.6-2.8-2-3c-1.5-0.8-4.4-11.1-5.7-20.1c-0.3-2.2-0.4-4.5-0.4-10.3
		c0-7.3,0-7.5,0.5-7.8c0.4-0.3,0.6-0.7,0.7-1.6c1.3-10.1,10.9-19.2,24.2-23c6.8-2,20.9-3.9,28.1-3.9c2.3,0,2.4,0,2.4-0.5
		c0-0.4,0.2-0.5,0.6-0.5c0.4,0,0.6,0.1,0.6,0.3c0,0.3,0.9,0.4,4.3,0.5c8.7,0.3,15.4,1,22.4,2.3c7.7,1.4,13.5,4,18.9,8.4
		c1.2,1,1.7,1.7,2.3,2.8c1.1,2.1,2,5,2.6,8.4c0.7,3.7,0.7,12.7,0.1,17.3c-3,22.4-14.1,40.2-27.6,44.5
		C98.1,119.6,94.9,119.7,88,118.9L88,118.9z M86.2,107.8c16.7-1.5,28.7-6.4,35-14.3c2.8-3.5,4.4-7.7,5-13.1c0.2-2.1,0.2-2.8-0.1-5
		c-0.9-5.3-2.9-9.3-6.8-13.2c-3.3-3.3-6.6-5.2-10.9-6.3c-3-0.8-8.8-1.2-21.1-1.6c-10.3-0.3-26.6,0.2-33.2,1
		c-8.1,1-15.1,5.9-18.7,13.1c-2,4-2.8,8.2-2.4,12.1c0.8,6.6,2.8,11,7.2,15.3c4.5,4.4,11.5,8,19.7,10.1c3.5,0.9,8,1.7,11.4,2
		C74.4,108.1,83,108.1,86.2,107.8L86.2,107.8z"/>
	<path class="st0" d="M134.7,98.5c0-0.2,0.3-1.4,0.7-2.6c2.9-8.4,4.3-15.8,4.5-23.9c0.1-2.8,0.2-5.1,0.3-5.1c0.1,0,1.1,0.9,2.2,2.1
		l2,2.1l-0.2,3.1c-0.3,6-1,10.8-2.5,16.7c-0.9,3.5-0.9,3.6-1.9,4.5c-1.1,1-4.5,3.5-4.9,3.5C134.8,98.9,134.7,98.7,134.7,98.5
		L134.7,98.5z"/>
	<path class="st0" d="M21.1,97.7c-0.9-0.6-2.2-1.6-2.9-2.3l-1.4-1.2l-0.8-3.4c-1.3-5.9-2.1-11.8-2.2-17.2c-0.1-2.2,0-2.3,0.6-3.3
		c0.4-0.6,1.3-1.6,2-2.2l1.3-1.2l0.2,4.4c0.3,8.8,1.7,17,4,24.3c0.4,1.2,0.7,2.4,0.6,2.7C22.7,98.7,22.5,98.7,21.1,97.7z"/>
</g>
<g>
	<path class="st1" d="M97,124.6c-2.4-0.3-8.8-1-11.4-1.1c-1.2-0.1-1.4,0-1.4,0.4c0,0.4-0.1,0.4-0.8,0.3c-0.4-0.1-3.4-0.2-6.6-0.2
		c-5,0-5.8-0.1-5.8-0.4c0-0.3-0.5-0.3-4-0.2c-2.2,0.1-5.2,0.3-6.6,0.4c-7,0.7-12.8-0.6-18-4.1c-1.9-1.3-5.7-4.8-6.6-6.1l-0.5-0.7
		l0.9,0.6c1.5,1.1,4.4,2.4,6.4,3c3.9,1.2,6.6,1.3,14.8,0.6c4.1-0.4,18-0.4,22.6,0c2,0.1,6.1,0.6,9,0.9c4.6,0.6,5.5,0.6,7.7,0.4
		c11.7-1.2,21.8-11.5,28-28.4c0.5-1.2,0.8-2.3,0.8-2.4c0-0.1-0.5,0.9-1.2,2.3c-1.7,3.6-4.1,6.3-7.4,8.9c-1.5,1.1-5.2,3.4-5.5,3.4
		c-0.1,0-0.2-0.3-0.2-0.6c0-0.6,0.8-1.1,1.7-1.1c0.3,0,0.5-0.2,0.5-0.4c0-0.2,0.2-0.4,0.4-0.4c0.2,0,0.4-0.1,0.4-0.2
		c0-0.1,0.2-0.2,0.4-0.2c0.2,0,0.4-0.1,0.4-0.2c0-0.1,0.2-0.2,0.4-0.2s0.4-0.1,0.4-0.2c0-0.1,0.2-0.2,0.5-0.2c0.3,0,0.5-0.2,0.5-0.4
		c0-0.2,0.2-0.4,0.6-0.4c0.4,0,0.6-0.1,0.6-0.4c0-0.6,0.5-1,1.4-1c0.7,0,0.8,0,0.8-0.8c0-0.9,0.4-1.4,1-1.4c0.3,0,0.4-0.2,0.4-0.6
		c0-0.4,0.1-0.6,0.4-0.6c0.2,0,0.4-0.2,0.4-0.5c0-0.3,0.2-0.5,0.4-0.5c0.2,0,0.4-0.2,0.4-0.6c0-0.4,0.1-0.6,0.4-0.6
		c0.5,0,1-1.2,1-2.2c0-0.4,0.1-0.7,0.2-0.7c0.3-0.1,1.5-5.1,1.6-7.1c0.1-1.5,0.2-1.7,0.6-1.7c0.3,0,0.5,0.2,0.5,0.4
		c0,0.4-0.6,4.4-0.8,5.7c-0.4,2.1,0.9-2.8,1.5-5.5c1.2-5.6,1.5-9,1.5-14.6c0-8.4-1.3-13.6-4.8-19.3l-0.6-1.1l1.4,1.2
		c2.8,2.4,5.9,6.4,7.4,9.8c0.8,1.8,2,5.6,2,6.4c0,0.2,0.3,0.7,0.6,1.1c0.5,0.5,0.6,1,0.8,2.8c1,9.7-1,22.6-5.1,33.1
		c-0.8,2.1-1.1,2.5-1.8,2.9c-0.6,0.4-1.1,1.1-1.9,2.7c-2.3,4.6-5.4,8.9-8.7,12.2C112.3,123.2,105.2,125.8,97,124.6L97,124.6z"/>
	<path class="st1" d="M72.2,108.6c-0.2,0-0.4-0.3-0.4-0.5c0-0.2,0.3-0.3,1.2-0.3c1,0,1.2,0.1,1.2,0.5c0,0.4-0.1,0.5-0.8,0.5
		C73,108.7,72.5,108.6,72.2,108.6z"/>
	<path class="st1" d="M83.5,108.3c0-0.4,0.2-0.5,1.2-0.5c0.9,0,1.2,0.1,1.2,0.3c0,0.4-0.7,0.6-1.7,0.6
		C83.7,108.7,83.5,108.6,83.5,108.3z"/>
	<path class="st1" d="M69.4,108.3c-0.2,0-0.4-0.3-0.4-0.5c0-0.2,0.3-0.3,1.1-0.3c0.9,0,1.1,0.1,1.1,0.5c0,0.4-0.1,0.5-0.6,0.5
		C70.1,108.5,69.6,108.4,69.4,108.3z"/>
	<path class="st1" d="M86.9,108c0-0.4,0.2-0.5,1-0.5c1.1,0,1.4,0.6,0.4,0.8C87.3,108.6,86.9,108.5,86.9,108z"/>
	<path class="st1" d="M64.9,107.7c-11-1.9-20.1-6-25.6-11.4c-1.9-1.8-3.8-4.4-4.2-5.4c-0.1-0.3,0-0.4,0.5-0.4c0.5,0,0.6,0.1,0.6,0.7
		c0,0.6,0.1,0.7,0.5,0.7c0.3,0,0.5,0.1,0.5,0.3s0.2,0.4,0.4,0.5c0.2,0.1,0.4,0.3,0.4,0.6s0.2,0.6,0.6,0.7c0.4,0.2,0.6,0.5,0.6,1.1
		c0.1,0.8,0.1,0.9,0.9,0.9c0.9,0,1.3,0.4,1.3,1c0,0.3,0.2,0.4,0.6,0.4c0.4,0,0.7,0.1,0.7,0.5c0.1,0.3,0.3,0.5,0.6,0.5
		c0.3,0,0.5,0.1,0.5,0.2c0,0.1,0.2,0.2,0.4,0.2s0.4,0.1,0.4,0.2c0,0.1,0.2,0.2,0.4,0.2c0.2,0,0.4,0.2,0.4,0.4c0,0.2,0.2,0.4,0.6,0.4
		c0.4,0,0.6,0.1,0.6,0.5c0,0.4,0.2,0.5,0.7,0.5c0.7,0,3.2,1.1,3.3,1.5c0,0.1,0.3,0.2,0.6,0.2s0.7,0.2,0.9,0.4
		c0.2,0.2,0.6,0.4,0.8,0.4c0.3,0,0.5,0.1,0.5,0.2c0,0.1,0.2,0.2,0.4,0.2c0.2,0,1.6,0.4,3,0.8c3,0.9,7.1,1.9,10.1,2.3
		c1.7,0.2,2.1,0.4,2.1,0.7C68.7,108.4,68.4,108.4,64.9,107.7L64.9,107.7z"/>
	<path class="st1" d="M89,107.8c0-0.4,0.3-0.5,1.7-0.6c2-0.2,6-0.9,8.6-1.6c1-0.2,2.1-0.5,2.4-0.5c0.3,0,0.6-0.1,0.7-0.2
		c0.1-0.2,3.7-1.5,4.3-1.5c0.2,0,0.4-0.1,0.4-0.2c0-0.1,0.3-0.2,0.6-0.2c0.3,0,0.6-0.1,0.6-0.2c0-0.3,1.1-0.8,1.9-0.8
		c2,0-0.5,1.3-5.6,3c-3.7,1.2-7.7,2.1-12,2.8C88.9,108.4,89,108.4,89,107.8z"/>
	<path class="st1" d="M28.1,101.7c-0.3-0.1-0.6-0.4-0.6-0.6c0-0.2-0.1-0.3-0.2-0.3c-0.1,0-0.2-0.3-0.2-0.6c0-0.3-0.1-0.6-0.2-0.6
		c-0.3,0-0.8-1.7-0.8-2.5c0-0.8,0.4-0.8,0.7-0.1c0.7,1.7,1.9,4.8,1.8,4.9C28.7,102,28.4,101.9,28.1,101.7L28.1,101.7z"/>
	<path class="st1" d="M134.7,98.4c0-0.7,0.8-3.1,1-3.1c0.1,0,0.2-0.2,0.2-0.5c0-0.7,0.5-2.4,0.8-2.4c0.1,0,0.2-0.3,0.2-0.6
		s0.3-1.9,0.7-3.4c0.8-3.1,1.9-9.4,1.9-10.7c0-0.6,0.1-0.8,0.5-0.8c0.6,0,0.6,0,0.1,3.4c-0.4,3.2-1.3,7.6-2.2,10.6
		c-0.8,3-2.3,7.3-2.6,7.7C135,99.1,134.7,99,134.7,98.4z"/>
	<path class="st1" d="M22.1,98.2c0-0.1-0.1-0.2-0.3-0.1c-0.1,0.1-0.2,0.1-0.1-0.1c0.1-0.1-0.2-1.5-0.7-3c-1.3-4.3-2.6-10.6-3.1-15.1
		c-0.1-1.2-0.1-1.4,0.3-1.4s0.5,0.3,0.7,2.3c0.4,3.3,1.6,8.7,2.5,12.1c1,3.3,1.3,5.4,0.9,5.4C22.2,98.5,22.1,98.3,22.1,98.2
		L22.1,98.2z"/>
	<path class="st1" d="M24.7,93.4c-1-3.8-1.6-6.5-2.2-10.4c-0.6-4-0.6-4.7-0.1-4.7c0.4,0,0.4,0.2,0.8,3.5c0.4,3.1,1.4,7.9,2.3,11
		c0.5,1.6,0.8,2.9,0.8,3.1s-0.2,0.2-0.5,0.2C25.6,96.1,25.3,95.6,24.7,93.4L24.7,93.4z"/>
	<path class="st1" d="M139.6,95.3c1.1-2.8,2.2-7.9,3.4-15.4c0.1-0.9,0.8-1.1,0.8-0.2c0,1.9-2.1,12.4-2.4,12.4
		c-0.1,0-0.2,0.4-0.2,0.8s-0.1,0.8-0.2,0.8c-0.1,0-0.2,0.3-0.2,0.6c0,0.4-0.2,0.7-0.6,1C139.5,95.6,139.4,95.6,139.6,95.3z"/>
	<path class="st1" d="M17.5,94.8c-0.7-0.6-1.4-3.3-2.3-8.5c-0.8-4.5-0.9-5.7-0.4-5.7c0.2,0,0.4,0.3,0.5,0.8
		c0.9,5.4,1.5,8.2,2.1,10.9c0.5,1.7,0.8,3.2,0.8,3.2C18.1,95.4,17.8,95.1,17.5,94.8z"/>
	<path class="st1" d="M33.8,88.2c-0.6-1.3-1.3-4.3-1.5-6.2c-0.1-1.1-0.1-1.3,0.3-1.3c0.4,0,0.5,0.2,0.6,1.4c0.2,1.7,1.1,5.4,1.4,5.5
		c0.3,0.1,0.2,1.7,0,1.7C34.4,89.4,34,88.9,33.8,88.2L33.8,88.2z"/>
	<path class="st1" d="M32,80c-0.1-0.3-0.1-1.1-0.1-1.7c0-1.5,0.2-2.3,0.6-2.3c0.3,0,0.3,0.5,0.3,2.3s-0.1,2.3-0.3,2.3
		C32.3,80.5,32.1,80.3,32,80z"/>
	<path class="st1" d="M14.2,79.3c0-1.1,0.6-1.4,0.8-0.4c0.3,1,0.2,1.4-0.3,1.4C14.3,80.3,14.2,80.1,14.2,79.3z"/>
	<path class="st1" d="M143.1,78.3c0-0.9,0.3-1.6,0.6-1.6c0.2,0,0.3,0.3,0.3,1.1c0,0.9-0.1,1.1-0.5,1.1
		C143.2,78.9,143.1,78.7,143.1,78.3z"/>
	<path class="st1" d="M17.7,77.6C17.4,76.5,17.5,76,18,76c0.4,0,0.5,0.2,0.5,1.1C18.5,78.2,17.9,78.6,17.7,77.6z"/>
	<path class="st1" d="M13.9,76.8c0-1.2,0.6-1.5,0.8-0.5c0.3,1.1,0.2,1.6-0.3,1.6C14,77.9,13.9,77.7,13.9,76.8z"/>
	<path class="st1" d="M21.8,76.6c0-1.2,0.6-1.5,0.8-0.5c0.3,1.1,0.2,1.6-0.3,1.6C21.9,77.7,21.8,77.5,21.8,76.6z"/>
	<path class="st1" d="M126,75.9c-0.1-0.8-0.3-2-0.5-2.7c-0.2-0.6-0.5-1.7-0.7-2.4c-0.2-0.6-0.4-1.2-0.5-1.3
		c-0.3-0.3-1.2-2.2-1.2-2.6c0-0.3-0.2-0.5-0.4-0.5c-0.2,0-0.4-0.2-0.4-0.4s-0.1-0.4-0.2-0.4c-0.1,0-0.2-0.2-0.2-0.4
		s-0.1-0.4-0.2-0.4c-0.1,0-0.2-0.3-0.2-0.6c0-0.4-0.1-0.6-0.5-0.7c-0.5,0-0.6-0.2-0.6-1l0-1l1,1.1c3,3.3,5,8.1,5.6,13.2
		c0.2,1.2,0.1,1.4-0.3,1.4C126.2,77.4,126.1,77.2,126,75.9L126,75.9z"/>
	<path class="st1" d="M139.7,75.4c0-0.9,0.1-1.1,0.5-1.1c0.5,0,0.6,0.6,0.3,1.6C140.3,76.9,139.7,76.6,139.7,75.4z"/>
	<path class="st1" d="M143.3,75.2c0-1.1,0.2-1.9,0.6-1.9c0.2,0,0.3,0.4,0.3,1.3c0,1.1,0,1.3-0.5,1.3C143.4,76,143.3,75.8,143.3,75.2
		z"/>
	<path class="st1" d="M32.2,74.6c0.6-3.7,2.5-8.3,2.5-5.9c0,0.7-0.4,1.9-0.7,2.2c-0.1,0.1-0.2,0.5-0.3,0.8c-0.7,3.9-0.7,3.9-1.2,3.9
		C32.1,75.7,32.1,75.6,32.2,74.6L32.2,74.6z"/>
	<path class="st1" d="M17.4,74c-0.1-0.3-0.1-1-0.1-1.4c0-0.7,0.1-0.9,0.5-0.9c0.4,0,0.5,0.2,0.5,1.4c0,1.1-0.1,1.4-0.3,1.4
		C17.7,74.5,17.5,74.3,17.4,74z"/>
	<path class="st1" d="M13.7,72.7c0-1.6,0.6-2.7,0.8-1.7c0.1,0.3,0.1,1.1,0.1,1.8c0,1.1-0.1,1.2-0.5,1.2
		C13.8,74.1,13.7,73.9,13.7,72.7z"/>
	<path class="st1" d="M21.6,70.7c0-2.2,0-2.4,0.5-2.4s0.5,0.2,0.5,2.4c0,2.2,0,2.4-0.5,2.4S21.6,72.9,21.6,70.7z"/>
	<path class="st1" d="M17.3,67.9c0-0.3,0.2-0.6,0.5-0.9c0.5-0.4,0.5-0.4,0.5,0.4c0,0.7-0.1,0.9-0.5,0.9
		C17.5,68.3,17.3,68.2,17.3,67.9z"/>
	<path class="st1" d="M35.1,66.5c0.4-1,2.3-3.5,3.9-5.2c1.6-1.6,5.2-4.3,5.8-4.3c0.1,0,0.2,0.3,0.2,0.6c0,0.4-0.2,0.6-0.6,0.7
		c-0.3,0.1-0.6,0.2-0.6,0.4c0,0.1-0.2,0.2-0.4,0.2s-0.4,0.1-0.4,0.2c0,0.1-0.2,0.2-0.4,0.2s-0.4,0.1-0.4,0.2c0,0.1-0.3,0.2-0.6,0.2
		c-0.4,0-0.6,0.1-0.6,0.4c0,0.6-0.5,1-1.4,1c-0.7,0-0.8,0-0.8,0.8c0,0.9-0.4,1.4-1,1.4c-0.3,0-0.4,0.2-0.4,0.6
		c0,0.3-0.1,0.6-0.2,0.6c-0.1,0-0.2,0.2-0.2,0.4s-0.1,0.4-0.2,0.4c-0.1,0-0.2,0.2-0.2,0.4c0,0.2-0.1,0.4-0.2,0.4
		c-0.1,0-0.2,0.2-0.2,0.4c0,0.2-0.2,0.4-0.6,0.4C35.1,66.9,35,66.8,35.1,66.5z"/>
	<path class="st1" d="M21.8,65.1c0-0.9,0.1-1.1,0.5-1.1c0.5,0,0.6,0.6,0.3,1.6C22.4,66.6,21.8,66.3,21.8,65.1z"/>
	<path class="st1" d="M117.6,60.4c-0.1-0.3-0.3-0.5-0.6-0.5c-0.3,0-0.5-0.2-0.6-0.4c-0.1-0.2-0.3-0.4-0.5-0.4
		c-0.2,0-0.3-0.1-0.3-0.2s-0.3-0.3-0.6-0.4c-0.3-0.1-0.6-0.3-0.6-0.5c0-0.2-0.2-0.4-0.5-0.4c-0.7,0-1.2-0.3-1.2-0.6
		c0-0.2-0.3-0.3-0.8-0.3c-0.7,0-0.8-0.1-0.8-0.6c0-0.5,0-0.6,0.6-0.4c2.3,0.9,5.3,2.6,6.9,4.1l1,0.9l-0.9,0
		C117.9,60.9,117.7,60.8,117.6,60.4L117.6,60.4z"/>
	<path class="st1" d="M45.7,56.8c0-0.4,1.9-1.1,4.5-1.8c2.8-0.7,3.2-0.7,3.2-0.1c0,0.3-0.2,0.5-1.1,0.6c-0.6,0.1-2.1,0.5-3.2,0.9
		C46.8,57.1,45.7,57.3,45.7,56.8z"/>
	<path class="st1" d="M107.8,55.8c-0.6-0.2-1.9-0.4-2.8-0.5c-1.4-0.1-1.6-0.2-1.6-0.6c0-0.4,0.1-0.5,1.5-0.3c1.4,0.2,3.9,0.6,5.1,1
		c0.3,0.1,0.5,0.3,0.5,0.5C110.6,56.2,109.4,56.2,107.8,55.8z"/>
	<path class="st1" d="M53.6,54.8c0-0.3,0.7-0.6,1.6-0.6c0.4,0,0.5,0.1,0.5,0.5c0,0.4-0.2,0.5-1.1,0.5C53.9,55.2,53.6,55.1,53.6,54.8
		z"/>
	<path class="st1" d="M56.7,54.6c0-0.4,0.7-0.6,1.7-0.6c0.5,0,0.6,0.1,0.6,0.5c0,0.4-0.2,0.5-1.2,0.5C57.1,54.9,56.7,54.8,56.7,54.6
		z"/>
	<path class="st1" d="M99.8,54.5c0-0.4,0.2-0.5,0.7-0.5c1,0,1.7,0.3,1.7,0.6c0,0.2-0.3,0.3-1.2,0.3C100,54.9,99.8,54.9,99.8,54.5z"
		/>
	<path class="st1" d="M60.8,54.4c0-0.4,0.7-0.6,1.7-0.6c0.5,0,0.6,0.1,0.6,0.5c0,0.4-0.2,0.5-1.2,0.5C61.1,54.7,60.8,54.6,60.8,54.4
		z"/>
	<path class="st1" d="M95.7,54.2c0-0.4,0.2-0.5,0.7-0.5c1,0,1.7,0.3,1.7,0.6c0,0.2-0.3,0.3-1.2,0.3C95.9,54.7,95.7,54.6,95.7,54.2z"
		/>
	<path class="st1" d="M65.8,54.1c0-0.4,0.7-0.6,2-0.6c0.7,0,0.9,0.1,0.9,0.5c0,0.4-0.2,0.5-1.4,0.5C66.2,54.5,65.8,54.4,65.8,54.1z"
		/>
	<path class="st1" d="M90.2,54c0-0.4,0.2-0.5,0.9-0.5c1.2,0,2,0.2,2,0.6c0,0.2-0.4,0.3-1.4,0.3C90.4,54.5,90.2,54.4,90.2,54z"/>
	<path class="st1" d="M75.2,53.9c0-0.5,0.8-0.6,4.3-0.6c3.5,0,4.3,0.1,4.3,0.6c0,0.3-0.8,0.3-4.3,0.3C75.9,54.2,75.2,54.1,75.2,53.9
		z"/>
</g>
<g>
	<path class="st2" d="M133.7,87.4c0-0.7,0.3-1.4,0.6-1.4c0.2,0,0.3,0.3,0.3,0.8c0,0.7-0.1,0.8-0.5,0.8
		C134,87.7,133.7,87.6,133.7,87.4z"/>
	<path class="st2" d="M135.2,78.6c0-0.7,0.3-1.4,0.6-1.4c0.2,0,0.3,0.3,0.3,0.8c0,0.7-0.1,0.8-0.5,0.8
		C135.4,78.9,135.2,78.7,135.2,78.6z"/>
	<path class="st2" d="M135.4,75.5c0-0.7,0.3-1.4,0.6-1.4c0.2,0,0.3,0.3,0.3,0.8c0,0.7-0.1,0.8-0.5,0.8
		C135.6,75.7,135.4,75.6,135.4,75.5z"/>
	<path class="st2" d="M135.1,64c-0.2-0.9-0.2-0.9,0.3-0.6c0.6,0.4,0.6,1.1,0.1,1.1C135.4,64.5,135.2,64.3,135.1,64L135.1,64z"/>
</g>
<g>
	<path class="st3" d="M73.2,108.6c-0.2,0-0.4-0.3-0.4-0.5c0-0.3,0.4-0.3,1.6-0.3c1.4,0,1.6,0,1.6,0.5c0,0.4-0.1,0.5-1.1,0.5
		C74.1,108.7,73.4,108.6,73.2,108.6z"/>
	<path class="st3" d="M81.4,108.3c0-0.4,0.2-0.5,1.8-0.5c1.4,0,1.8,0.1,1.8,0.3c0,0.4-0.7,0.6-2.3,0.6
		C81.5,108.7,81.4,108.7,81.4,108.3z"/>
	<path class="st3" d="M68.7,108.2c-3.2-0.4-8.2-1.4-11.2-2.2c-12.2-3.5-20.5-9.8-23.7-17.8c-0.7-1.8-1.3-4.2-1.6-6.6
		c-0.1-1.1-0.1-1.3,0.3-1.3c0.4,0,0.5,0.2,0.6,1.5c0.4,3.1,2.1,8.1,3.3,9.4c0.2,0.3,0.4,0.6,0.4,0.8c0,0.2,0.1,0.3,0.2,0.3
		c0.1,0,0.2,0.2,0.2,0.5c0,0.3,0.2,0.5,0.4,0.5c0.2,0,0.4,0.2,0.4,0.7c0,0.6,0.1,0.7,0.6,0.7c0.7,0,1.8,1.2,1.8,1.9
		c0,0.4,0.1,0.5,0.7,0.5c0.5,0,0.8,0.1,0.9,0.5c0.1,0.3,0.3,0.5,0.6,0.5c0.3,0,0.5,0.2,0.6,0.4c0.1,0.2,0.3,0.4,0.5,0.4
		c0.2,0,0.3,0.1,0.3,0.2c0,0.1,0.2,0.2,0.4,0.2s0.4,0.1,0.4,0.2c0,0.1,0.1,0.2,0.3,0.2c0.2,0,0.5,0.1,0.7,0.3
		c0.2,0.1,1.4,0.8,2.8,1.5c1.3,0.6,2.4,1.2,2.4,1.3s0.3,0.2,0.7,0.3c0.4,0.1,2.2,0.7,4.1,1.3c3.9,1.3,9.2,2.5,13.5,2.9
		c2.4,0.3,2.8,0.4,2.8,0.7C72.1,108.6,71.7,108.6,68.7,108.2z"/>
	<path class="st3" d="M85.7,108c0-0.4,0.2-0.5,0.9-0.5c1.5,0,7.6-0.9,10.7-1.6c3.7-0.8,8.3-2.2,11.4-3.6c1.3-0.6,2.6-1.1,2.8-1.1
		c0.3,0,0.5-0.1,0.5-0.3c0-0.2,0.4-0.5,0.8-0.6s0.8-0.4,0.8-0.5c0-0.1,0.2-0.2,0.4-0.2s0.4-0.1,0.4-0.2c0-0.1,0.2-0.2,0.4-0.2
		c0.2,0,0.4-0.1,0.4-0.2c0-0.1,0.2-0.2,0.4-0.2c0.2,0,0.4-0.1,0.4-0.2c0-0.1,0.2-0.2,0.5-0.2c0.2,0,0.5-0.2,0.6-0.5
		c0.1-0.4,0.3-0.5,0.9-0.5c0.6,0,0.7-0.1,0.7-0.6c0-0.7,1.2-1.8,1.9-1.8c0.4,0,0.5-0.1,0.5-0.7c0-0.4,0.1-0.8,0.4-0.9
		c0.2-0.1,0.4-0.3,0.4-0.5c0-0.2,0.2-0.4,0.4-0.5c0.2-0.1,0.4-0.3,0.4-0.5c0-0.2,0.1-0.5,0.3-0.6c0.3-0.4,1.7-3.1,2.2-4.7
		c0.6-1.7,1.3-6.3,1.3-8.3c0-2.2-0.7-5.6-1.5-7.7c-0.3-0.9-0.6-1.8-0.6-2.1c0-0.3-0.1-0.5-0.3-0.5s-0.5-0.4-0.6-0.8
		c-0.2-0.5-0.4-0.8-0.5-0.8c-0.1,0-0.2-0.2-0.2-0.4s-0.1-0.4-0.2-0.4c-0.1,0-0.2-0.1-0.2-0.3s-0.2-0.4-0.4-0.5
		c-0.2-0.1-0.4-0.4-0.4-0.7c0-0.4-0.1-0.6-0.4-0.6c-0.6,0-2.7-2.2-2.7-2.7c0-0.3-0.2-0.4-0.6-0.4c-0.4,0-0.6-0.1-0.6-0.4
		c0-0.2-0.2-0.4-0.5-0.4s-0.5-0.1-0.5-0.2c0-0.1-0.2-0.2-0.4-0.2c-0.2,0-0.4-0.2-0.4-0.4c0-0.2-0.2-0.4-0.5-0.4
		c-0.2,0-1.3-0.4-2.4-0.9c-1.9-0.9-5.5-1.9-6.6-1.9c-0.4,0-0.6-0.1-0.6-0.5c0-0.5,0.1-0.5,1.3-0.3c6.5,0.9,12.7,4.8,16.4,10.2
		c2.4,3.6,3.8,7.5,4.2,12.1c0.2,2.2-0.3,6.7-1.1,9.4c-3.3,11.7-15.7,19.4-35.2,21.8C85.8,108.6,85.7,108.6,85.7,108L85.7,108z"/>
	<path class="st3" d="M129.1,101.4c2.9-6.7,4.6-12.6,5.6-19.1c0.3-1.8,0.6-3.7,0.6-4.1c0.1-0.5,0.3-0.8,0.5-0.8
		c0.3,0,0.4,0.3,0.2,1.9c-0.5,5.5-2.4,13.4-5,19.9c-0.8,2.1-1,2.4-1.7,2.7l-0.7,0.3L129.1,101.4L129.1,101.4z"/>
	<path class="st3" d="M27.9,101.6c-0.6-0.4-0.9-0.9-2-4.1c-1.9-5.6-3-10.7-3.8-16.5c-0.5-3.7-0.5-4.7,0-4.7c0.4,0,0.6,0.7,0.6,1.9
		c0,1.5,1,7.4,1.7,10.8c0.8,3.5,2.4,8.7,3.5,11.4c0.4,1,0.7,1.7,0.7,1.7C28.7,102,28.3,101.9,27.9,101.6z"/>
	<path class="st3" d="M76.9,101.9c-0.7-0.1-0.8-0.2-0.8-0.9c0-0.9,0.1-0.9,2-0.7c1.1,0.1,1.1,0.2,1.1,1
		C79.2,102.1,79.1,102.1,76.9,101.9L76.9,101.9z"/>
	<path class="st3" d="M81.1,101.3v-0.8l1.9-0.3c1.1-0.2,1.9-0.4,1.9-0.5c0-0.1,0.4-0.2,0.8-0.2c0.8,0,0.8,0,0.8,0.8
		c0,0.8,0,0.8-0.7,0.8c-0.4,0-0.7,0.1-0.7,0.2c0,0.2-2.5,0.7-3.5,0.7C81.2,102,81.1,101.9,81.1,101.3L81.1,101.3z"/>
	<path class="st3" d="M72.1,100.3c-0.4-0.2-0.6-0.5-0.6-1.1c0-0.7,0.1-0.8,0.7-0.8c1.3,0,1.9,0.5,1.9,1.4c0,0.7,0,0.8-0.8,0.8
		C73,100.6,72.4,100.5,72.1,100.3L72.1,100.3z"/>
	<path class="st3" d="M87.8,98.8c0-0.6,0.1-0.8,0.4-0.8c0.2,0,0.4-0.1,0.4-0.2c0-0.1,0.3-0.2,0.7-0.2c0.6,0,0.7-0.1,0.8-0.6
		c0-0.5,0.2-0.7,0.7-0.7c0.5-0.1,0.6-0.2,0.6-0.7c0-1.4,0.2-1.7,1.1-1.7c0.7,0,0.8,0.1,0.8,0.7c0,1.2-0.3,1.7-0.9,1.7
		c-0.5,0-0.6,0.1-0.6,0.9c-0.1,0.8-0.1,0.9-0.8,1c-0.6,0.1-0.8,0.2-0.8,0.7c0,0.4-0.1,0.6-0.4,0.6c-0.2,0-0.4,0.1-0.4,0.2
		c0,0.1-0.4,0.2-0.8,0.2C87.9,99.7,87.8,99.6,87.8,98.8L87.8,98.8z"/>
	<path class="st3" d="M22.5,98.6c-0.9-0.7-3.2-9.8-4.2-16.5c-0.6-4.2-0.6-4.4-0.1-4.4c0.4,0,0.5,0.4,0.7,2.6
		c0.6,4.8,1.9,10.9,3.4,15.5c0.4,1.2,0.7,2.4,0.6,2.7C22.9,98.8,22.9,98.9,22.5,98.6z"/>
	<path class="st3" d="M134.7,98.3c0-0.4,0.4-1.8,0.8-3.2c1.8-5.1,3.4-12.7,3.9-17c0.1-1.6,0.2-1.9,0.6-1.9c0.4,0,0.5,0.1,0.3,1.6
		c-0.3,2.8-1.3,8.4-2,11.4c-0.7,2.8-2.5,8.5-2.9,9.3C135.1,99.2,134.7,99,134.7,98.3L134.7,98.3z"/>
	<path class="st3" d="M69.2,97.6c0-0.8,0-0.8,0.8-0.8s0.8,0,0.8,0.8s0,0.8-0.8,0.8S69.2,98.4,69.2,97.6z"/>
	<path class="st3" d="M67,94v-1.6h0.8c0.7,0,0.8-0.1,0.8-0.6s0.1-0.6,0.8-0.6c0.8,0,0.8,0,0.8,0.8s0,0.8-0.8,0.8h-0.8v1.3v1.3h-0.8
		H67V94z"/>
	<path class="st3" d="M140.2,93.2c0.9-3.2,2-8.2,2.5-11.5c0.6-4.2,0.6-4.3,1-4.3c0.5,0,0.5,0.9-0.1,4.9c-0.5,3.5-1.2,7-2.2,10.4
		c-0.4,1.5-0.7,2.1-1.2,2.4l-0.7,0.5L140.2,93.2L140.2,93.2z"/>
	<path class="st3" d="M17.4,94.6c-0.8-0.6-2.1-6.2-2.9-12.9c-0.6-4.4-0.6-5.3-0.1-5.3c0.4,0,0.4,0.1,1,4.8c0.5,3.7,1.3,8.2,2.2,11.5
		C17.7,93.9,18,95,18,95C17.9,95,17.6,94.9,17.4,94.6L17.4,94.6z"/>
	<path class="st3" d="M88.8,91.9c0-0.8,0-0.8,0.8-0.8c0.8,0,0.8,0,0.8,0.8s0,0.8-0.8,0.8C88.8,92.7,88.8,92.7,88.8,91.9z"/>
	<path class="st3" d="M72.1,91.6v-0.8h1.2h1.2v0.8v0.8h-1.2h-1.2V91.6z"/>
	<path class="st3" d="M85.9,91.6c0-0.8,0-0.8,1.1-0.8s1.1,0,1.1,0.8s0,0.8-1.1,0.8S85.9,92.5,85.9,91.6z"/>
	<path class="st3" d="M57.2,81.7c0-0.1-0.4-0.2-0.8-0.2c-0.8,0-0.8,0-0.8-0.8s0-0.8,0.8-0.8c0.5,0,0.8,0.1,0.8,0.2
		c0,0.1,0.5,0.2,1.1,0.2s1.1-0.1,1.1-0.2c0-0.1,0.1-0.2,0.3-0.2s0.4-0.2,0.5-0.4c0.1-0.2,0.3-0.4,0.5-0.4c0.2,0,0.4-0.2,0.4-0.5
		c0-0.4,0.2-0.5,0.8-0.5c0.8,0,0.8,0,0.8,0.8c0,0.6-0.1,0.8-0.4,0.8c-0.2,0-0.4,0.2-0.4,0.5s-0.2,0.6-0.5,0.6
		c-0.3,0.1-0.5,0.2-0.5,0.3s-0.4,0.2-0.8,0.2s-0.8,0.1-0.8,0.2c0,0.1-0.5,0.2-1.1,0.2S57.2,81.9,57.2,81.7z"/>
	<path class="st3" d="M100,79.7c0-0.8,0-0.8,0.8-0.8s0.8,0,0.8,0.8s0,0.8-0.8,0.8S100,80.5,100,79.7z"/>
	<path class="st3" d="M97.2,79.4c0-0.8,0-0.8,0.8-0.8s0.8,0,0.8,0.8s0,0.8-0.8,0.8S97.2,80.2,97.2,79.4z"/>
	<path class="st3" d="M53.6,78.3c0-0.8,0-0.8,0.8-0.8c0.8,0,0.8,0,0.8,0.8s0,0.8-0.8,0.8C53.7,79.1,53.6,79,53.6,78.3z"/>
	<path class="st3" d="M95.2,77.5c0-0.8,0-0.8,0.8-0.8s0.8,0,0.8,0.8c0,0.8,0,0.8-0.8,0.8S95.2,78.3,95.2,77.5z"/>
	<path class="st3" d="M17.7,76.9c-0.1-0.3-0.1-0.9-0.1-1.3c0-0.6,0.1-0.8,0.5-0.8c0.4,0,0.5,0.2,0.5,1.3c0,1-0.1,1.3-0.3,1.3
		C18,77.4,17.8,77.2,17.7,76.9z"/>
	<path class="st3" d="M135.4,76.3c0-1.3,0.2-2,0.6-2c0.2,0,0.3,0.4,0.3,1.4c0,1.3,0,1.4-0.5,1.4C135.5,77.2,135.4,77,135.4,76.3z"/>
	<path class="st3" d="M143.3,76.4c0-1.1,0.2-1.9,0.6-1.9c0.2,0,0.3,0.4,0.3,1.3c0,1.1,0,1.3-0.5,1.3C143.4,77.2,143.3,77,143.3,76.4
		z"/>
	<path class="st3" d="M102.9,75.9c0-0.6-0.1-1.1-0.2-1.1c-0.1,0-0.2-0.1-0.2-0.3s-0.2-0.4-0.4-0.5c-0.2-0.1-0.4-0.5-0.4-1
		c0-0.8,0-0.8,0.9-0.8c0.6,0,0.9,0.1,1,0.5c0.1,0.3,0.2,0.5,0.3,0.5c0.1,0,0.2,0.4,0.2,0.8s0.1,0.8,0.2,0.8c0.1,0,0.2,0.5,0.2,1.1
		c0,1.1,0,1.1-0.8,1.1S102.9,76.9,102.9,75.9z"/>
	<path class="st3" d="M61.3,76.2c0-0.3-0.1-0.5-0.2-0.5c-0.1,0-0.2-0.3-0.2-0.6c0-0.4-0.1-0.6-0.4-0.6c-0.2,0-0.8-0.1-1.2-0.3
		c-0.7-0.2-0.8-0.4-0.8-1.1c0-0.7,0.1-0.8,0.7-0.8c1.2,0,2.2,0.5,2.2,1.1c0,0.5,0.1,0.6,0.6,0.6c0.4,0,0.6,0.1,0.6,0.5
		c0,0.3,0.1,0.5,0.2,0.5c0.1,0,0.2,0.4,0.2,0.8c0,0.8,0,0.8-0.8,0.8C61.5,76.7,61.3,76.6,61.3,76.2z"/>
	<path class="st3" d="M32.2,75.1c1-6.8,4.9-13.1,10.6-16.7c3.1-2,6.7-3.4,10-3.8c1.3-0.2,1.4-0.1,1.4,0.3c0,0.4-0.2,0.5-1.3,0.6
		c-0.7,0.1-2.2,0.4-3.2,0.7c-1,0.3-2.1,0.6-2.3,0.6c-0.2,0-0.4,0.1-0.4,0.2c0,0.3-1.6,1-2.2,1c-0.3,0-0.5,0.2-0.5,0.4
		s-0.2,0.4-0.4,0.4s-0.4,0.1-0.4,0.2c0,0.1-0.2,0.2-0.4,0.2s-0.4,0.1-0.4,0.2c0,0.1-0.1,0.2-0.3,0.2c-0.2,0-0.4,0.2-0.5,0.4
		c-0.1,0.2-0.4,0.4-0.9,0.4c-0.6,0-0.7,0.1-0.7,0.6c0,0.7-1.2,1.8-1.9,1.8c-0.4,0-0.5,0.1-0.5,0.7c0,0.4-0.1,0.8-0.4,0.9
		c-0.2,0.1-0.4,0.3-0.4,0.5s-0.1,0.3-0.2,0.3c-0.1,0-0.2,0.2-0.2,0.4s-0.1,0.4-0.2,0.4c-0.1,0-0.2,0.1-0.2,0.3
		c0,0.2-0.1,0.4-0.2,0.4c-0.1,0-0.5,0.6-0.8,1.3c-0.3,0.7-0.7,1.2-0.8,1.2c-0.1,0-0.2,0.2-0.2,0.4c0,0.2-0.3,1.2-0.6,2.2
		c-0.3,1-0.6,2.4-0.7,3.1c-0.1,1-0.2,1.2-0.6,1.2C32.1,76.2,32.1,76.1,32.2,75.1L32.2,75.1z"/>
	<path class="st3" d="M53.9,75.4c0-0.8,0-0.8,0.8-0.8s0.8,0,0.8,0.8c0,0.8,0,0.8-0.8,0.8S53.9,76.2,53.9,75.4z"/>
	<path class="st3" d="M13.7,74.2c0-1.2,0.1-1.6,0.3-1.6c0.4,0,0.6,0.7,0.6,2.1c0,0.8-0.1,1-0.5,1C13.8,75.7,13.7,75.6,13.7,74.2z"/>
	<path class="st3" d="M139.7,74.2c0-1.4,0-1.6,0.5-1.6c0.4,0,0.5,0.2,0.5,1c0,1.3-0.2,2.1-0.6,2.1C139.8,75.7,139.7,75.4,139.7,74.2
		z"/>
	<path class="st3" d="M21.6,73.6c0-1.5,0.1-1.9,0.3-1.9c0.4,0,0.6,0.7,0.6,2.5c0,1.2,0,1.4-0.5,1.4S21.6,75.3,21.6,73.6z"/>
	<path class="st3" d="M95.5,73.7c0-0.8,0-0.8,0.8-0.8s0.8,0,0.8,0.8s0,0.8-0.8,0.8S95.5,74.5,95.5,73.7z"/>
	<path class="st3" d="M55.8,73.5c0-0.9,0.4-1.1,1.7-1.1c0.6,0,0.6,0.1,0.6,0.8c0,0.9-0.4,1.1-1.7,1.1C55.9,74.3,55.8,74.2,55.8,73.5
		z"/>
	<path class="st3" d="M17.4,72.6c-0.2-0.9-0.2-4.7,0.1-5.2c0.6-1,0.7-0.4,0.7,2.7c0,2.5-0.1,3.1-0.3,3.1
		C17.7,73.1,17.5,72.9,17.4,72.6z"/>
	<path class="st3" d="M97.6,72c0-0.8,0-0.8,0.8-0.8s0.8,0,0.8,0.8c0,0.8,0,0.8-0.8,0.8S97.6,72.8,97.6,72z"/>
	<path class="st3" d="M143.6,71.2l0-0.8l0.5,0.6c0.6,0.7,0.6,1,0,1C143.6,71.9,143.6,71.7,143.6,71.2z"/>
	<path class="st3" d="M21.6,68c0-1.6,0-1.8,0.5-1.8c0.4,0,0.5,0.2,0.5,1.3c0,1.6-0.2,2.3-0.6,2.3C21.7,69.8,21.6,69.3,21.6,68z"/>
	<path class="st3" d="M135.6,68c-0.1-1-0.6-4.8-0.5-4.9c0,0,0.3,0.1,0.6,0.4c0.5,0.4,0.6,0.7,0.7,2.9s0.1,2.4-0.2,2.4
		C135.8,68.8,135.6,68.5,135.6,68z"/>
	<path class="st3" d="M139.7,67.6c0-0.9,0-1,0.5-0.7c0.3,0.2,0.5,0.5,0.5,1c0,0.6-0.1,0.7-0.5,0.7C139.8,68.6,139.7,68.4,139.7,67.6
		z"/>
	<path class="st3" d="M21.8,64.6c0-0.6,0.1-0.9,0.5-1.1c0.4-0.2,0.5-0.2,0.5,0.3c0,0.9-0.3,1.6-0.6,1.6C22,65.5,21.8,65.2,21.8,64.6
		z"/>
	<path class="st3" d="M54.4,54.8c0-0.4,0.7-0.6,1.9-0.6c0.6,0,0.8,0.1,0.8,0.5c0,0.4-0.2,0.5-1.3,0.5C54.7,55.2,54.4,55.1,54.4,54.8
		z"/>
	<path class="st3" d="M101.9,54.7c0-0.4,0.2-0.5,0.9-0.5c1.2,0,2,0.2,2,0.6c0,0.2-0.4,0.3-1.4,0.3C102.1,55.2,101.9,55.1,101.9,54.7
		z"/>
	<path class="st3" d="M57.7,54.6c0-0.4,0.7-0.6,2-0.6c0.7,0,0.9,0.1,0.9,0.5c0,0.4-0.2,0.5-1.4,0.5C58.1,54.9,57.7,54.8,57.7,54.6z"
		/>
	<path class="st3" d="M98.4,54.5c0-0.4,0.2-0.5,0.9-0.5c1.2,0,2,0.2,2,0.6c0,0.2-0.4,0.3-1.4,0.3C98.5,54.9,98.4,54.9,98.4,54.5z"/>
	<path class="st3" d="M61.8,54.4c0-0.4,0.7-0.6,2.2-0.6c1,0,1.1,0.1,1.1,0.5c0,0.4-0.2,0.5-1.7,0.5C62.2,54.7,61.8,54.6,61.8,54.4z"
		/>
	<path class="st3" d="M93.8,54.2c0-0.4,0.2-0.5,1.1-0.5c1.5,0,2.2,0.2,2.2,0.6c0,0.3-0.4,0.3-1.7,0.3C94,54.7,93.8,54.7,93.8,54.2z"
		/>
	<path class="st3" d="M67.3,54.1c0-0.5,0.8-0.6,2.8-0.6c1.6,0,1.7,0,1.7,0.5c0,0.5-0.2,0.5-2.3,0.5C67.8,54.5,67.3,54.4,67.3,54.1z"
		/>
	<path class="st3" d="M87.1,54c0-0.4,0.2-0.5,1.7-0.5c2,0,2.8,0.2,2.8,0.6c0,0.3-0.5,0.3-2.3,0.3C87.3,54.5,87.1,54.4,87.1,54z"/>
</g>
<g>
	<path class="st4" d="M76.2,101.7c-3.5-0.7-8-3.6-8.8-5.7c-0.5-1.1-0.5-3,0-3.7c0.2-0.3,1-0.7,1.7-0.9c1.2-0.4,2.5-0.4,10.8-0.4
		c10.2,0,11.8,0.1,12.8,1.2c0.7,0.7,0.8,2.4,0.1,3.8c-1,2.3-5.2,5-8.9,5.7C81.7,102.1,78.5,102.1,76.2,101.7L76.2,101.7z"/>
	<path class="st4" d="M55.6,81.2c-1.5-1-1.8-1.7-1.9-3.9c0-1.7,0-2.1,0.5-2.9c1.5-2.6,6.4-2.8,8.1-0.3c0.5,0.7,0.6,1.2,0.6,2.8
		c0.1,1.8,0,2.1-0.5,2.9c-1,1.5-1.9,1.9-4.1,1.9C56.7,81.7,56.2,81.6,55.6,81.2L55.6,81.2z"/>
	<path class="st4" d="M97,80c-0.5-0.3-1.2-1-1.5-1.5c-0.5-0.8-0.5-1.2-0.5-2.9c0.1-1.7,0.1-2,0.8-2.8c0.9-1.2,1.9-1.6,4-1.6
		c2,0,3,0.5,3.9,1.9c0.5,0.7,0.6,1.1,0.6,2.8s-0.1,2.1-0.5,2.8c-1,1.5-1.7,1.8-3.9,1.9C98.3,80.5,97.9,80.5,97,80L97,80z"/>
</g>
<g>
	<path class="st5" d="M73.8,108.6c-9.1-0.5-18.2-2.7-25-6c-4-2-6.6-3.7-9.2-6.1c-4.8-4.5-7.1-9.8-7.5-17
		c-0.5-9.5,4.6-18.3,13.2-22.6c4.2-2.1,7.6-2.6,22.1-3.2c14.9-0.6,36.2,0.1,41.4,1.5c2.5,0.6,6,2.2,8,3.7c3.4,2.4,6.8,6.8,8.4,10.8
		c2.5,6.4,1.9,15.3-1.5,21.4c-3.3,6.1-9.9,10.8-19.2,13.9C96.1,107.7,84.3,109.1,73.8,108.6L73.8,108.6z M83.4,101
		c4.2-0.9,8.6-4.1,9.1-6.5c0.2-1.2-0.4-1.9-2-2.4c-1.2-0.4-2.4-0.4-9.9-0.4c-9.3,0-10.8,0.1-12,0.9c-2.9,2,2.1,7.1,8.3,8.4
		C78.9,101.4,81.4,101.4,83.4,101L83.4,101z M60.2,80.6c1.2-0.6,1.9-1.7,2-3.3c0.1-1.2,0-1.6-0.5-2.2c-0.8-1.2-1.7-1.7-3-1.9
		c-2.3-0.2-4.1,1.3-4.3,3.6c-0.1,1.4,0.2,2.3,1.3,3.3C56.9,81.2,58.5,81.4,60.2,80.6L60.2,80.6z M101.4,79.4c2.2-1.1,2.9-3.9,1.6-6
		c-1-1.5-3.9-2-5.4-1c-1.4,0.9-1.8,1.7-1.8,3.4c0,1.2,0.1,1.6,0.6,2.3c0.4,0.5,1,1,1.4,1.2C98.9,79.9,100.6,79.9,101.4,79.4z"/>
	<path class="st5" d="M129,102c0,0,0.3-0.8,0.7-1.7c2.7-5.9,5.1-15.4,5.8-22.7c0.3-3,0.2-11.8-0.2-13.5l-0.2-0.8l0.8,0.5
		c0.7,0.4,2.5,1.7,4,2.9l0.7,0.6l0,4.1c0,7.9-1.2,14.9-4,23.6l-1.2,3.9l-1.3,0.8C131.5,101,129,102.2,129,102L129,102z"/>
	<path class="st5" d="M25.5,100.4c-1.5-0.8-2.8-1.6-3-1.8c-0.7-0.7-2.2-5.9-3.3-11.4c-1.2-5.8-1.5-9.5-1.6-15.1l0-5l2.5-1.9
		c1.4-1,2.5-1.8,2.5-1.8c0,0,0,1.1-0.2,2.5c-0.5,4.9,0.1,13.7,1.3,19.9c1,5.1,3.2,12.9,4.4,15.1C28.8,102.2,28.8,102.1,25.5,100.4
		L25.5,100.4z"/>
	<path class="st5" d="M139.8,94.9c0.4-1.1,2.1-7.9,2.5-10.4c0.7-3.9,1.2-8.6,1.2-11.1c0-2.9,0.2-3.1,1.4-1.3
		c2.7,4.2,3.5,8.1,2.4,12.3c-0.8,3.3-3.1,6.8-6.1,9.6C139.9,95.4,139.6,95.6,139.8,94.9z"/>
	<path class="st5" d="M16.3,93.7c-2.8-2.8-4.9-6.1-5.6-9.1c-0.5-1.8-0.6-4.9-0.1-6.7c0.4-1.6,1.8-4.8,2.9-6.3l0.8-1.1l0.1,3.5
		c0.3,5.9,1.3,12.9,2.9,19c0.3,1.2,0.5,2.2,0.5,2.2S17.1,94.5,16.3,93.7L16.3,93.7z"/>
</g>
<g>
	<path d="M77.8,32.4c0-3.1,0-3.2,1.5-3.7c0.7-0.2,1.3-0.5,1.4-0.6c0.1-0.1-1.4-0.6-3.3-1.2c-1.9-0.6-3.6-1.1-3.7-1.2
		c-0.2-0.1,0.7-0.7,2-1.4l2.3-1.2l0.1-2.9c0.1-2.8,0.1-2.9,0.6-2.9l0.6-0.1l-0.1,3.3L79.1,24l-1.3,0.7c-0.7,0.4-1.2,0.7-1.1,0.8
		c0,0.1,2,0.7,4.3,1.4c2.3,0.7,4.1,1.3,4,1.3c-0.1,0-1.4,0.4-3,0.9L79.1,30L79,32.3c-0.1,2.3-0.1,2.3-0.6,2.3
		C77.8,34.6,77.8,34.6,77.8,32.4z"/>
	<path d="M77.6,16.7c-1.8-0.9-2.1-3.3-0.7-4.6c1.2-1.2,3-1.1,4.1,0.3c1.2,1.5,0.6,3.7-1.2,4.4C78.8,17.3,78.6,17.3,77.6,16.7
		L77.6,16.7z"/>
</g>
</svg>
