<svg id="bold" height="512" viewBox="0 0 24 24" width="512" xmlns="http://www.w3.org/2000/svg"><path d="m16.25 24h-9.5c-.414 0-.75-.336-.75-.75v-2c0-.414.336-.75.75-.75h9.5c.414 0 .75.336.75.75v2c0 .414-.336.75-.75.75zm-8.75-1.5h8v-.5h-8z"/><path d="m11.5 16.75c-2.067 0-3.75 1.682-3.75 3.75v.75c0 .414.336.75.75.75h6c.414 0 .75-.336.75-.75v-.75c0-2.068-1.683-3.75-3.75-3.75z"/><path d="m14.5 19.371c-.192 0-.384-.073-.53-.22-.293-.293-.293-.768 0-1.061l5.226-5.226c.293-.293.768-.293 1.061 0s.293.768 0 1.061l-5.226 5.226c-.147.147-.339.22-.531.22z"/><path d="m11.439 18.189c-.192 0-.384-.073-.53-.22-.293-.293-.293-.768 0-1.061l5.88-5.88c.293-.293.768-.293 1.061 0s.293.768 0 1.061l-5.88 5.88c-.147.147-.338.22-.531.22z"/><path d="m12.75 7.5h-5c-.414 0-.75-.336-.75-.75v-2.5c0-.414.336-.75.75-.75h5.094c.414 0 .75.336.75.75s-.336.75-.75.75h-4.344v1h4.25c.414 0 .75.336.75.75s-.336.75-.75.75z"/><path d="m7.75 3h-2.5c-.414 0-.75.336-.75.75v3.5c0 .414.336.75.75.75h2.5c.414 0 .75-.336.75-.75v-3.5c0-.414-.336-.75-.75-.75z"/><path d="m6.5 4.5c-.414 0-.75-.336-.75-.75v-.819l-2.233-1.303-2.365 1.505c-.347.223-.813.119-1.035-.23-.223-.35-.119-.813.23-1.036l2.75-1.75c.237-.151.537-.155.78-.015l3 1.75c.231.134.373.381.373.648v1.25c0 .414-.336.75-.75.75z"/><path d="m3.5 11c-.14 0-.28-.039-.402-.117l-2.75-1.75c-.35-.223-.453-.686-.23-1.036.222-.349.686-.453 1.035-.23l2.364 1.504 2.233-1.302v-.819c0-.414.336-.75.75-.75s.75.336.75.75v1.25c0 .267-.142.514-.372.648l-3 1.75c-.117.068-.247.102-.378.102z"/><path d="m22.94 7.833-4.772-4.773c-.684-.684-1.591-1.06-2.555-1.06-1.992 0-3.613 1.621-3.613 3.614 0 .963.376 1.871 1.06 2.554l4.772 4.773c.684.683 1.591 1.059 2.555 1.059 1.992 0 3.613-1.621 3.613-3.614 0-.964-.376-1.871-1.06-2.553zm-7.44-1.333c-.552 0-1-.448-1-1s.448-1 1-1 1 .448 1 1-.448 1-1 1zm5 5c-.552 0-1-.448-1-1s.448-1 1-1 1 .448 1 1-.448 1-1 1z"/></svg>