<?xml version="1.0" encoding="utf-8"?>
<!-- Generator: Adobe Illustrator 21.0.2, SVG Export Plug-In . SVG Version: 6.00 Build 0)  -->
<svg version="1.1" id="Layer_1" xmlns="http://www.w3.org/2000/svg" xmlns:xlink="http://www.w3.org/1999/xlink" x="0px" y="0px"
	 viewBox="0 0 594.5 496.7" style="enable-background:new 0 0 594.5 496.7;" xml:space="preserve">
<style type="text/css">
	.st0{fill:#A0BEDC;}
	.st1{fill:#84A6C2;}
	.st2{fill:#468FBF;}
	.st3{fill:#5B8294;}
	.st4{fill:#2DC66F;}
	.st5{fill:#0D363F;}
</style>
<g>
	<path class="st0" d="M335,461.2c-10.4-1.3-26.4-2.9-35.5-3.6c-20.4-1.6-71-1.5-88.5,0c-35,3.1-51.8,2.5-67.9-2.6
		c-12.1-3.8-18.8-7.5-24.1-13.5c-7-7.9-19.3-26.8-25.8-39.5c-4.1-8-6.6-11.7-8.5-12.7c-6.1-3.2-18.4-46.4-23.9-84.1
		c-1.3-9.3-1.7-19-1.8-43.2c0-30.7,0-31.3,2.1-32.7c1.5-1.1,2.3-3.1,2.8-6.8c5.5-42.2,45.4-80.2,101-96.3
		c28.6-8.2,87.3-16.5,117.4-16.5c9.5,0,10.2-0.1,10.2-2c0-1.5,0.7-2,2.5-2c1.5,0,2.5,0.6,2.5,1.4c0,1.1,3.6,1.5,17.8,2
		c36.4,1.4,64.5,4.3,93.7,9.7c32.3,6,56.5,16.8,79.2,35.1c4.9,4,7.3,6.9,9.8,11.8c4.4,8.8,8.2,21.1,10.7,35
		c2.8,15.6,3,53.1,0.4,72.5c-12.6,93.6-58.9,168.2-115.3,185.9C377.3,464.2,364.2,464.7,335,461.2L335,461.2z M327.5,414.6
		c69.8-6.3,120-26.8,146.2-59.7c11.5-14.5,18.3-32.4,21-54.9c1-8.8,0.9-11.6-0.6-21c-3.6-22.3-12.2-38.8-28.6-55.3
		c-13.9-13.9-27.4-21.8-45.5-26.5c-12.4-3.2-36.6-5-88.3-6.5c-42.9-1.2-111.1,0.8-138.9,4.1c-33.7,4-63,24.5-78.3,54.9
		c-8.4,16.6-11.8,34.2-9.9,50.4c3.2,27.5,11.8,45.8,30,63.8c18.7,18.5,48.1,33.5,82.3,42.3c14.8,3.8,33.5,7.1,47.6,8.4
		C278.2,415.8,314.1,415.9,327.5,414.6L327.5,414.6z"/>
	<path class="st0" d="M530.5,375.9c0-1,1.4-5.8,3-10.8c12-35,17.8-66.2,18.7-100.1c0.3-11.7,0.9-21.3,1.3-21.3c0.4,0,4.5,3.9,9,8.7
		l8.3,8.7l-0.7,13.1c-1.3,24.9-4.3,45-10.3,70c-3.6,14.7-3.8,15-8.1,19c-4.7,4.3-19,14.5-20.4,14.5
		C530.9,377.7,530.5,376.9,530.5,375.9L530.5,375.9z"/>
	<path class="st0" d="M55.6,372.5c-3.6-2.4-9-6.6-12.1-9.5l-5.7-5.2l-3.2-14.3c-5.5-24.8-8.7-49.4-9.3-71.9
		c-0.3-9.2-0.2-9.8,2.6-13.8c1.6-2.3,5.5-6.5,8.5-9.3l5.6-5.1l0.7,18.4c1.4,36.9,7.1,70.9,16.9,101.7c1.7,5.1,2.9,10.2,2.7,11.3
		C62,376.7,61.4,376.5,55.6,372.5z"/>
</g>
<g>
	<path class="st1" d="M373,485.2c-10-1.4-36.8-4.1-47.7-4.8c-5.2-0.3-5.8-0.2-5.8,1.6c0,1.6-0.5,1.8-3.3,1.3
		c-1.8-0.3-14.2-0.7-27.5-0.7c-21.1-0.1-24.2-0.3-24.2-1.7c0-1.3-2-1.4-16.7-0.9c-9.3,0.4-21.7,1.2-27.8,1.8
		c-29.1,3-53.4-2.5-75.1-17.1c-7.8-5.3-23.8-19.9-27.6-25.3l-2-2.8l3.9,2.7c6.4,4.4,18.3,10,26.9,12.7c16.1,5.1,27.7,5.6,61.9,2.6
		c17.3-1.5,75.1-1.6,94.5,0c8.5,0.6,25.4,2.3,37.5,3.7c19.4,2.3,23.2,2.5,32.1,1.5c48.9-5.2,91.2-48.2,117-118.9
		c1.9-5.1,3.4-9.6,3.4-10s-2.2,3.9-5,9.5c-7.3,14.9-17,26.4-31.1,37.1c-6.1,4.6-21.7,14.2-23.1,14.2c-0.4,0-0.8-1.1-0.8-2.3
		c0-2.5,3.3-4.7,7-4.7c1.1,0,2-0.7,2-1.5s0.7-1.5,1.5-1.5s1.5-0.4,1.5-1c0-0.5,0.7-1,1.5-1s1.5-0.4,1.5-1c0-0.5,0.7-1,1.5-1
		s1.5-0.4,1.5-1c0-0.5,0.9-1,2-1s2-0.7,2-1.5c0-0.9,0.9-1.5,2.5-1.5c1.7,0,2.5-0.5,2.5-1.8c0-2.7,2-4.2,5.7-4.2
		c3.1,0,3.3-0.2,3.3-3.3c0-3.7,1.5-5.7,4.2-5.7c1.3,0,1.8-0.8,1.8-2.5c0-1.6,0.6-2.5,1.5-2.5c0.8,0,1.5-0.9,1.5-2s0.7-2,1.5-2
		c0.9,0,1.5-0.9,1.5-2.5c0-1.7,0.5-2.5,1.8-2.5c2,0,4.2-4.9,4.2-9.2c0-1.5,0.4-2.8,0.8-3c1.3-0.5,6.1-21.5,6.8-29.5
		c0.6-6.2,1-7.3,2.5-7.3c1.1,0,1.9,0.7,1.9,1.8c0,1.7-2.4,18.3-3.5,23.9c-1.6,8.6,3.9-11.5,6.4-23.2c4.9-23.4,6.4-37.7,6.4-61
		c-0.1-35.3-5.4-56.7-20-80.5l-2.7-4.5l5.9,5c11.7,10,24.6,26.9,31,40.8c3.5,7.6,8.5,23.4,8.5,26.9c0,1,1.1,3,2.5,4.4
		c2.1,2.1,2.7,4,3.5,11.7c4.3,40.6-4,94.4-21.2,138.4c-3.4,8.6-4.6,10.6-7.4,12.2c-2.5,1.5-4.5,4.4-8,11.2
		c-9.6,19.2-22.4,37.1-36.3,50.9C436.7,479.3,407.1,489.9,373,485.2L373,485.2z"/>
	<path class="st1" d="M269.3,418c-1-0.2-1.8-1.1-1.8-1.9c0-1,1.3-1.4,5-1.4c4.3,0,5,0.3,5,2c0,1.6-0.6,2-3.2,1.9
		C272.5,418.5,270.2,418.3,269.3,418z"/>
	<path class="st1" d="M316.5,416.7c0-1.7,0.7-2,5-2c3.6,0,5,0.4,5,1.4c0,1.5-3,2.6-7.2,2.6C317.2,418.7,316.5,418.2,316.5,416.7z"/>
	<path class="st1" d="M257.3,417c-1-0.2-1.8-1.1-1.8-1.9c0-1,1.3-1.4,4.5-1.4c3.8,0,4.5,0.3,4.5,2c0,1.5-0.6,2-2.7,1.9
		C260.2,417.5,258.2,417.3,257.3,417z"/>
	<path class="st1" d="M330.5,415.7c0-1.7,0.7-2,4-2c4.5,0,5.7,2.3,1.8,3.4C332.1,418.2,330.5,417.8,330.5,415.7z"/>
	<path class="st1" d="M238.5,414.5c-45.9-7.9-83.9-24.9-106.9-47.6c-7.8-7.7-16-18.2-17.7-22.7c-0.5-1.1,0.1-1.5,2-1.5
		c2.2,0,2.6,0.4,2.6,3c0,2.3,0.4,3,2,3c1.1,0,2,0.6,2,1.4s0.7,1.6,1.5,2c0.8,0.3,1.5,1.3,1.5,2.3s1,2.3,2.3,2.8
		c1.6,0.7,2.3,2,2.5,4.8c0.3,3.4,0.5,3.7,3.6,3.7c3.6,0,5.6,1.5,5.6,4.2c0,1.3,0.8,1.8,2.6,1.8c1.7,0,2.8,0.6,3.1,2
		c0.3,1.1,1.4,2,2.4,2c1.1,0,1.9,0.5,1.9,1c0,0.6,0.7,1,1.5,1s1.5,0.5,1.5,1c0,0.6,0.7,1,1.5,1s1.5,0.7,1.5,1.5
		c0,0.9,0.9,1.5,2.5,1.5c1.8,0,2.5,0.5,2.5,2c0,1.6,0.7,2,3,2c3.1,0,13.2,4.5,13.8,6.1c0.2,0.5,1.4,0.9,2.7,0.9c1.3,0,3,0.7,3.9,1.5
		c0.8,0.8,2.4,1.5,3.5,1.5c1.2,0,2.1,0.5,2.1,1c0,0.6,0.8,1,1.8,1c0.9,0,6.5,1.6,12.4,3.5c12.5,3.9,29.5,7.9,42.1,9.7
		c7.2,1,8.7,1.5,8.7,3C254.5,417.1,253.3,417.1,238.5,414.5L238.5,414.5z"/>
	<path class="st1" d="M339.5,414.8c0-1.6,1.1-1.9,7.3-2.5c8.4-0.9,25-3.9,35.9-6.7c4.2-1,8.8-1.9,10.1-1.9c1.4,0,2.7-0.4,2.9-0.9
		c0.4-1,15.5-6.1,18.1-6.1c0.9,0,1.7-0.4,1.7-1c0-0.5,1.1-1,2.5-1s2.5-0.4,2.5-0.8c0-1.3,4.8-3.2,8-3.2c8.3,0-2,5.5-23.5,12.5
		c-15.4,5.1-32,8.9-50,11.6C339.1,417.1,339.5,417.1,339.5,414.8z"/>
	<path class="st1" d="M84.8,389.4c-1.3-0.5-2.3-1.6-2.3-2.4c0-0.7-0.4-1.3-1-1.3c-0.5,0-1-1.1-1-2.5s-0.4-2.5-0.8-2.5
		c-1.1,0-3.2-6.9-3.2-10.4c0-3.2,1.7-3.4,3-0.3c2.9,7.2,7.9,20.2,7.7,20.3C87.1,390.4,86,390,84.8,389.4L84.8,389.4z"/>
	<path class="st1" d="M530.5,375.5c0-3,3.2-12.8,4.2-12.8c0.4,0,0.8-1,0.8-2.1c0-3.1,2.2-9.9,3.2-9.9c0.4,0,0.8-1.1,0.8-2.5
		s1.4-7.8,3-14.4c3.3-12.9,8-39.2,8-44.7c0-2.7,0.4-3.4,2-3.4c2.4,0,2.4,0,0.4,14.2c-1.8,13.4-5.6,31.8-9,44.3s-9.5,30.7-10.7,32.3
		C531.7,378.4,530.5,377.9,530.5,375.5z"/>
	<path class="st1" d="M59.5,374.6c0-0.5-0.5-0.7-1.2-0.3c-0.6,0.4-0.8,0.3-0.4-0.4c0.3-0.6-0.9-6.2-2.8-12.4
		c-5.4-17.8-10.9-44.3-13.1-63c-0.6-5.2-0.5-5.8,1.2-5.8s2.1,1.3,3.1,9.8c1.7,13.6,6.5,36.5,10.5,50.7c4,13.8,5.4,22.5,3.8,22.5
		C60,375.7,59.5,375.2,59.5,374.6L59.5,374.6z"/>
	<path class="st1" d="M70.6,354.5c-4.3-15.9-6.7-27.2-9-43.3c-2.5-16.8-2.6-19.5-0.6-19.5c1.5,0,1.7,0.9,3.5,14.5
		c1.8,13.1,6,33.2,9.6,45.8c1.9,6.5,3.4,12.3,3.4,12.8s-0.8,0.9-1.9,0.9C74.1,365.7,73.2,363.7,70.6,354.5L70.6,354.5z"/>
	<path class="st1" d="M550.8,362.5c4.4-11.6,9.2-33.1,14.3-64.5c0.6-3.8,3.4-4.6,3.4-1c0,8-8.6,51.7-10.1,51.7
		c-0.5,0-0.9,1.6-0.9,3.5s-0.4,3.5-1,3.5c-0.5,0-1,1.1-1,2.4c0,1.5-1,3-2.7,4.1C550.7,363.6,550.3,363.7,550.8,362.5z"/>
	<path class="st1" d="M40.4,360.3c-2.9-2.5-6-13.6-9.8-35.6c-3.3-19-3.6-24-1.8-24c1,0,1.8,1.2,2.1,3.3c3.8,22.6,6.1,34.4,8.9,45.5
		c1.9,7.2,3.3,13.2,3.3,13.2C43,362.7,41.8,361.6,40.4,360.3z"/>
	<path class="st1" d="M108.4,333c-2.3-5.3-5.4-18-6.4-26c-0.6-4.8-0.5-5.3,1.3-5.3c1.6,0,2,0.9,2.6,5.8c0.8,6.9,4.8,22.6,5.8,23
		c1.2,0.5,0.9,7.2-0.2,7.2C110.9,337.7,109.5,335.6,108.4,333L108.4,333z"/>
	<path class="st1" d="M101.1,298.5c-0.3-1.3-0.6-4.5-0.6-7.3c0-6.4,0.9-9.5,2.6-9.5c1.1,0,1.4,2.1,1.4,9.5s-0.3,9.5-1.4,9.5
		C102.4,300.7,101.5,299.7,101.1,298.5z"/>
	<path class="st1" d="M26.5,295.7c0-4.5,2.3-5.7,3.4-1.7c1.1,4.1,0.7,5.7-1.4,5.7C26.8,299.7,26.5,299,26.5,295.7z"/>
	<path class="st1" d="M565.5,291.5c0-3.9,1.2-6.8,2.6-6.8c1,0,1.4,1.3,1.4,4.5c0,3.8-0.3,4.5-2,4.5
		C566.1,293.7,565.5,293,565.5,291.5z"/>
	<path class="st1" d="M41.1,288.5c-1.2-4.5-0.7-6.8,1.4-6.8c1.7,0,2,0.7,2,4.5C44.5,291.1,42.2,292.6,41.1,288.5z"/>
	<path class="st1" d="M25.5,285.2c0-4.9,2.3-6.4,3.4-2.2c1.2,4.4,0.7,6.7-1.4,6.7C25.8,289.7,25.5,289,25.5,285.2z"/>
	<path class="st1" d="M58.5,284.2c0-4.9,2.3-6.4,3.4-2.2c1.2,4.4,0.7,6.7-1.4,6.7C58.8,288.7,58.5,288,58.5,284.2z"/>
	<path class="st1" d="M494.2,281.5c-0.4-3.5-1.3-8.5-2-11.3c-0.8-2.7-2-7.2-2.8-10c-0.8-2.7-1.7-5.2-2-5.5c-1.3-1.1-4.9-9-4.9-11
		c0-1.1-0.7-2-1.5-2s-1.5-0.7-1.5-1.5s-0.4-1.5-1-1.5c-0.5,0-1-0.7-1-1.5s-0.4-1.5-1-1.5c-0.5,0-1-1.1-1-2.4c0-1.8-0.6-2.5-2.2-2.8
		c-1.9-0.2-2.3-1-2.6-4.3l-0.2-4l4,4.5c12.4,13.7,20.9,33.7,23.5,55.3c0.7,5.2,0.6,5.7-1.2,5.7C495.1,287.7,494.7,286.8,494.2,281.5
		L494.2,281.5z"/>
	<path class="st1" d="M551.5,279.2c0-3.8,0.3-4.5,2-4.5c2.1,0,2.6,2.3,1.4,6.8C553.8,285.6,551.5,284.1,551.5,279.2z"/>
	<path class="st1" d="M566.5,278.5c0-4.8,1-7.8,2.6-7.8c1,0,1.4,1.5,1.4,5.5c0,4.8-0.2,5.5-2,5.5C566.9,281.7,566.5,281,566.5,278.5
		z"/>
	<path class="st1" d="M102,276.1c2.3-15.5,10.5-34.7,10.5-24.5c0,2.9-1.8,8-3.1,9.1c-0.3,0.3-0.9,1.9-1.2,3.5
		c-3,16.1-3.1,16.5-5,16.5C101.5,280.7,101.3,280.2,102,276.1L102,276.1z"/>
	<path class="st1" d="M40.1,273.5c-0.3-1.3-0.6-4-0.6-6c0-3.1,0.4-3.8,2-3.8c1.8,0,2,0.7,2,6c0,4.4-0.4,6-1.4,6
		C41.4,275.7,40.5,274.7,40.1,273.5z"/>
	<path class="st1" d="M24.5,268c0.1-6.5,2.3-11.2,3.4-7.1c0.3,1.3,0.6,4.7,0.6,7.6c0,4.5-0.3,5.2-2,5.2
		C24.7,273.7,24.5,273,24.5,268z"/>
	<path class="st1" d="M57.5,259.7c0-9.3,0.1-10,2-10s2,0.7,2,10s-0.1,10-2,10S57.5,269,57.5,259.7z"/>
	<path class="st1" d="M39.5,247.9c0-1.1,0.9-2.7,2-3.7c2-1.8,2-1.7,2,1.8c0,3-0.4,3.7-2,3.7C40.2,249.7,39.5,249,39.5,247.9z"/>
	<path class="st1" d="M113.9,242.2c1.5-4.1,9.7-14.8,16.5-21.6c6.7-6.7,21.8-17.9,24.2-17.9c0.5,0,0.9,1.1,0.9,2.5
		c0,1.8-0.7,2.6-2.5,3.1c-1.4,0.3-2.5,1-2.5,1.5s-0.7,0.9-1.5,0.9s-1.5,0.5-1.5,1c0,0.6-0.7,1-1.5,1s-1.5,0.5-1.5,1
		c0,0.6-1.1,1-2.5,1c-1.7,0-2.5,0.5-2.5,1.8c0,2.7-2,4.2-5.7,4.2c-3.1,0-3.3,0.2-3.3,3.3c0,3.7-1.5,5.7-4.2,5.7
		c-1.3,0-1.8,0.8-1.8,2.5c0,1.4-0.4,2.5-1,2.5c-0.5,0-1,0.7-1,1.5s-0.4,1.5-1,1.5c-0.5,0-1,0.7-1,1.5s-0.4,1.5-1,1.5
		c-0.5,0-1,0.7-1,1.5c0,0.9-1,1.5-2.6,1.5C114,243.7,113.4,243.3,113.9,242.2z"/>
	<path class="st1" d="M58.5,236.2c0-3.8,0.3-4.5,2-4.5c2.1,0,2.6,2.3,1.4,6.8C60.8,242.6,58.5,241.1,58.5,236.2z"/>
	<path class="st1" d="M458.8,216.7c-0.3-1.1-1.4-2-2.4-2c-1.1,0-2.2-0.7-2.5-1.5c-0.4-0.8-1.2-1.5-2-1.5s-1.4-0.4-1.4-0.9
		s-1.1-1.2-2.5-1.5c-1.4-0.4-2.5-1.3-2.5-2.1s-0.9-1.5-1.9-1.5c-3,0-5.1-1.1-5.1-2.6c0-0.9-1.2-1.4-3.5-1.4c-3.1,0-3.5-0.3-3.5-2.5
		s0.2-2.4,2.5-1.5c9.8,3.7,22,11,29,17.3l4,3.6l-3.8,0.1C460.1,218.7,459.2,218.3,458.8,216.7L458.8,216.7z"/>
	<path class="st1" d="M158.5,201.6c0-1.5,8-4.8,18.7-7.5c11.6-2.9,13.3-3,13.3-0.5c0,1.4-1,2-4.6,2.5c-2.5,0.3-8.6,1.9-13.5,3.6
		C163,202.8,158.5,203.5,158.5,201.6z"/>
	<path class="st1" d="M418,197.1c-2.7-0.8-8-1.7-11.7-2c-5.9-0.6-6.8-1-6.8-2.6c0-1.8,0.5-1.9,6.3-1.3c5.8,0.7,16.4,2.7,21.5,4.1
		c1.2,0.3,2.2,1.3,2.2,2C429.5,199.1,424.8,199,418,197.1z"/>
	<path class="st1" d="M191.5,193.3c0-1.4,2.9-2.6,6.8-2.6c1.5,0,2.2,0.6,2.2,2c0,1.7-0.7,2-4.5,2
		C192.8,194.7,191.5,194.3,191.5,193.3z"/>
	<path class="st1" d="M204.5,192.3c0-1.5,3-2.6,7.3-2.6c2,0,2.7,0.5,2.7,2c0,1.7-0.7,2-5,2C205.9,193.7,204.5,193.3,204.5,192.3z"/>
	<path class="st1" d="M384.5,191.7c0-1.5,0.7-2,2.8-2c4.2,0,7.2,1.1,7.2,2.6c0,1-1.4,1.4-5,1.4C385.2,193.7,384.5,193.4,384.5,191.7
		z"/>
	<path class="st1" d="M221.5,191.3c0-1.5,3-2.6,7.3-2.6c2,0,2.7,0.5,2.7,2c0,1.7-0.7,2-5,2C222.9,192.7,221.5,192.3,221.5,191.3z"/>
	<path class="st1" d="M367.5,190.7c0-1.5,0.7-2,2.8-2c4.2,0,7.2,1.1,7.2,2.6c0,1-1.4,1.4-5,1.4C368.2,192.7,367.5,192.4,367.5,190.7
		z"/>
	<path class="st1" d="M242.5,190.3c0-1.6,3-2.6,8.3-2.6c3,0,3.7,0.4,3.7,2c0,1.8-0.7,2-6,2C244.1,191.7,242.5,191.3,242.5,190.3z"/>
	<path class="st1" d="M344.5,189.7c0-1.6,0.7-2,3.8-2c5.2,0,8.2,1,8.2,2.6c0,1-1.6,1.4-6,1.4C345.2,191.7,344.5,191.5,344.5,189.7z"
		/>
	<path class="st1" d="M281.5,189.3c0-2.1,3.3-2.6,18-2.6s18,0.5,18,2.6c0,1.1-3.3,1.4-18,1.4S281.5,190.4,281.5,189.3z"/>
</g>
<g>
	<path class="st2" d="M526.5,329.5c0-3,1.3-5.8,2.6-5.8c0.9,0,1.4,1.2,1.4,3.5c0,2.8-0.4,3.5-2,3.5
		C527.4,330.7,526.5,330.1,526.5,329.5z"/>
	<path class="st2" d="M532.5,292.5c0-3,1.3-5.8,2.6-5.8c0.9,0,1.4,1.2,1.4,3.5c0,2.8-0.4,3.5-2,3.5
		C533.4,293.7,532.5,293.1,532.5,292.5z"/>
	<path class="st2" d="M533.5,279.5c0-3,1.3-5.8,2.6-5.8c0.9,0,1.4,1.2,1.4,3.5c0,2.8-0.4,3.5-2,3.5
		C534.4,280.7,533.5,280.1,533.5,279.5z"/>
	<path class="st2" d="M532.1,231.5c-0.9-3.6-0.7-3.9,1.4-2.6c2.3,1.5,2.7,4.8,0.6,4.8C533.4,233.7,532.5,232.7,532.1,231.5
		L532.1,231.5z"/>
</g>
<g>
	<path class="st3" d="M273.3,418c-1-0.2-1.8-1.1-1.8-1.9c0-1.1,1.5-1.4,6.5-1.4c5.8,0,6.5,0.2,6.5,2c0,1.7-0.6,2-4.7,1.9
		C277.1,418.5,274.2,418.3,273.3,418z"/>
	<path class="st3" d="M307.5,416.7c0-1.8,0.7-2,7.5-2c5.7,0,7.5,0.3,7.5,1.4c0,1.7-3.1,2.6-9.7,2.6
		C308.2,418.7,307.5,418.4,307.5,416.7z"/>
	<path class="st3" d="M254.5,416.6c-13.2-1.5-34.2-5.7-47-9.4c-51.2-14.7-85.8-40.8-98.9-74.5c-2.9-7.4-5.3-17.5-6.6-27.7
		c-0.6-4.8-0.5-5.3,1.3-5.3c1.6,0,2,0.9,2.6,6.1c1.5,12.8,8.9,33.9,13.8,39.3c1,1.1,1.8,2.6,1.8,3.3c0,0.7,0.5,1.3,1,1.3
		c0.6,0,1,0.9,1,2s0.7,2,1.5,2c1,0,1.5,1,1.5,3c0,2.5,0.4,3,2.3,3c2.9,0,7.7,4.9,7.7,7.8c0,1.8,0.6,2.2,3.1,2.2c2.2,0,3.2,0.5,3.6,2
		c0.3,1.1,1.4,2,2.4,2c1.1,0,2.2,0.7,2.5,1.5c0.4,0.8,1.2,1.5,2,1.5s1.4,0.5,1.4,1c0,0.6,0.7,1,1.5,1s1.5,0.5,1.5,1
		c0,0.6,0.6,1,1.4,1s2.1,0.6,2.8,1.3c0.7,0.6,5.9,3.4,11.6,6.2c5.6,2.7,10.2,5.2,10.2,5.6s1.2,0.9,2.8,1.2c1.5,0.3,9.2,2.8,17.2,5.6
		c16.2,5.5,38.5,10.4,56.3,12.3c10.1,1.1,11.7,1.5,11.7,3C268.5,417.9,267,418,254.5,416.6z"/>
	<path class="st3" d="M325.5,415.7c0-1.7,0.7-2,3.9-2c6.3,0,31.6-3.7,44.8-6.5c15.3-3.2,34.8-9.4,47.7-15.1
		c5.4-2.4,10.7-4.4,11.7-4.4c1.1,0,1.9-0.6,1.9-1.4s1.6-2,3.5-2.7s3.5-1.7,3.5-2.1s0.7-0.8,1.5-0.8s1.5-0.4,1.5-1c0-0.5,0.7-1,1.5-1
		s1.5-0.4,1.5-1c0-0.5,0.7-1,1.5-1s1.5-0.4,1.5-1c0-0.5,0.8-1,1.9-1c1,0,2.1-0.9,2.4-2c0.4-1.5,1.4-2,3.6-2c2.6,0,3.1-0.4,3.1-2.3
		c0-2.9,4.9-7.7,7.8-7.7c1.8,0,2.2-0.6,2.2-3c0-1.8,0.6-3.3,1.5-3.6c0.8-0.4,1.5-1.3,1.5-2c0-0.8,0.7-1.7,1.5-2
		c0.8-0.4,1.5-1.2,1.5-1.9c0-0.8,0.6-2,1.3-2.7c1.4-1.5,6.9-13.1,9.2-19.8c2.5-6.9,5.5-26.3,5.5-34.8c0-9.3-2.8-23.4-6.4-32.3
		c-1.4-3.6-2.6-7.5-2.6-8.7s-0.6-2.2-1.4-2.2c-0.8,0-2-1.6-2.7-3.5s-1.7-3.5-2.1-3.5c-0.4,0-0.8-0.7-0.8-1.5s-0.4-1.5-1-1.5
		c-0.5,0-1-0.6-1-1.4s-0.7-1.6-1.5-2c-0.8-0.3-1.5-1.7-1.5-3.1c0-1.7-0.5-2.5-1.8-2.5c-2.3,0-11.2-9-11.2-11.3
		c0-1.1-0.8-1.7-2.5-1.7c-1.6,0-2.5-0.6-2.5-1.5c0-0.8-0.9-1.5-2-1.5s-2-0.4-2-1c0-0.5-0.7-1-1.5-1s-1.5-0.7-1.5-1.5
		s-0.8-1.5-1.9-1.5c-1,0-5.6-1.8-10.2-3.9c-8.1-3.8-22.9-8.1-27.6-8.1c-1.7,0-2.3-0.6-2.3-2.1c0-1.9,0.4-2,5.3-1.4
		c27,3.7,53.1,19.9,68.7,42.5c10.2,15,15.9,31.3,17.5,50.5c0.8,9.3-1.4,28-4.5,39.3c-13.6,49-65.5,81.1-147.4,91.2
		C325.9,418.2,325.5,418.2,325.5,415.7L325.5,415.7z"/>
	<path class="st3" d="M507.1,387.9c12.1-28.2,19.2-52.6,23.4-79.9c1.1-7.6,2.3-15.3,2.6-17c0.3-2.1,1.1-3.3,2.1-3.3
		c1.4,0,1.5,1.1,0.9,8.1c-1.9,23.2-10.1,56-20.7,83.4c-3.3,8.7-4.3,10.2-6.9,11.2l-2.9,1.1L507.1,387.9L507.1,387.9z"/>
	<path class="st3" d="M83.9,388.8c-2.7-1.6-3.7-3.7-8.2-17.2C67.8,348,63.1,327,60,302.5c-1.9-15.5-1.9-19.8-0.1-19.8
		c1.6,0,2.6,3,2.6,8c0,6.2,4,31.1,7.2,45c3.3,14.6,10,36.3,14.7,47.8c1.7,4,2.9,7.2,2.8,7.2S85.6,389.9,83.9,388.8z"/>
	<path class="st3" d="M288.8,390c-3-0.4-3.3-0.7-3.3-3.9c0-3.8,0.3-3.9,8.4-2.8c4.4,0.6,4.6,0.8,4.6,4
		C298.5,391,298,391.1,288.8,390L288.8,390z"/>
	<path class="st3" d="M306.5,387.4v-3.3l8-1.4c4.4-0.7,8-1.7,8-2.2c0-0.4,1.6-0.8,3.5-0.8c3.3,0,3.5,0.2,3.5,3.5
		c0,3.2-0.2,3.5-3,3.5c-1.6,0-3,0.4-3,0.9c0,0.9-10.6,3.1-14.8,3.1C306.9,390.7,306.5,390.1,306.5,387.4L306.5,387.4z"/>
	<path class="st3" d="M268.8,383.5c-1.7-0.8-2.3-2-2.3-4.5c0-3,0.3-3.3,3-3.3c5.3,0,8,1.9,8,5.7c0,3.1-0.2,3.3-3.2,3.2
		C272.5,384.6,270,384.1,268.8,383.5L268.8,383.5z"/>
	<path class="st3" d="M334.5,377.2c0-2.4,0.5-3.5,1.5-3.5c0.8,0,1.5-0.4,1.5-1c0-0.5,1.3-1,2.9-1c2.5,0,3-0.4,3.3-2.7
		c0.2-2.2,0.9-2.9,3.1-3.1c2.2-0.3,2.7-0.8,2.7-3c0-5.7,1-7.2,4.6-7.2c3,0,3.4,0.3,3.4,2.8c0,5-1.1,7.2-3.6,7.2
		c-1.9,0-2.3,0.6-2.6,3.8c-0.3,3.4-0.6,3.7-3.5,4c-2.7,0.3-3.3,0.7-3.3,2.8c0,1.5-0.6,2.4-1.5,2.4c-0.8,0-1.5,0.5-1.5,1
		c0,0.6-1.6,1-3.5,1C334.7,380.7,334.5,380.5,334.5,377.2L334.5,377.2z"/>
	<path class="st3" d="M61.1,376.2c-3.7-2.8-13.4-40.8-17.5-69c-2.6-17.4-2.6-18.5-0.3-18.5c1.5,0,2,1.6,3,10.8
		c2.4,19.9,8,45.5,14.3,64.9c1.7,5.1,2.9,10.1,2.7,11.2C63,377.3,62.8,377.4,61.1,376.2z"/>
	<path class="st3" d="M530.5,374.9c0-1.5,1.6-7.5,3.5-13.3c7.4-21.5,14.4-52.9,16.1-71.1c0.6-6.8,0.9-7.8,2.6-7.8
		c1.8,0,1.9,0.5,1.3,6.8c-1.2,11.6-5.4,35-8.5,47.6c-3,11.9-10.3,35.4-12.2,38.9C532,378.6,530.5,378.1,530.5,374.9L530.5,374.9z"/>
	<path class="st3" d="M256.5,372.2c0-3.3,0.2-3.5,3.5-3.5s3.5,0.2,3.5,3.5s-0.2,3.5-3.5,3.5S256.5,375.5,256.5,372.2z"/>
	<path class="st3" d="M247.5,357.2v-6.5h3.5c3.1,0,3.5-0.3,3.5-2.5s0.4-2.5,3.5-2.5c3.3,0,3.5,0.2,3.5,3.5s-0.2,3.5-3.5,3.5h-3.5
		v5.5v5.5H251h-3.5V357.2z"/>
	<path class="st3" d="M553.6,353.9c3.9-13.4,8.5-34.4,10.4-48.2c2.4-17.7,2.5-18,4-18c2,0,1.9,3.6-0.5,20.5
		c-2.2,14.5-5.2,29.2-9,43.4c-1.7,6.3-2.8,8.6-5,10.1l-2.8,2L553.6,353.9L553.6,353.9z"/>
	<path class="st3" d="M39.8,359.7c-3.4-2.7-8.7-25.9-12.3-53.8c-2.4-18.6-2.5-22.2-0.5-22.2c1.6,0,1.6,0.3,4,20
		c1.9,15.5,5.5,34.3,9.1,47.9c1.3,5.2,2.3,9.5,2.2,9.7C42.1,361.4,41,360.7,39.8,359.7L39.8,359.7z"/>
	<path class="st3" d="M338.5,348.2c0-3.3,0.2-3.5,3.5-3.5s3.5,0.2,3.5,3.5s-0.2,3.5-3.5,3.5S338.5,351.5,338.5,348.2z"/>
	<path class="st3" d="M268.5,347.2v-3.5h5h5v3.5v3.5h-5h-5V347.2z"/>
	<path class="st3" d="M326.5,347.2c0-3.5,0-3.5,4.5-3.5s4.5,0,4.5,3.5s0,3.5-4.5,3.5S326.5,350.7,326.5,347.2z"/>
	<path class="st3" d="M206.5,305.7c0-0.5-1.6-1-3.5-1c-3.3,0-3.5-0.2-3.5-3.5s0.2-3.5,3.5-3.5c1.9,0,3.5,0.5,3.5,1c0,0.6,2,1,4.5,1
		s4.5-0.4,4.5-1c0-0.5,0.6-1,1.4-1s1.6-0.7,2-1.5c0.3-0.8,1.2-1.5,2.1-1.5c0.8,0,1.5-0.9,1.5-2c0-1.6,0.7-2,3.5-2
		c3.3,0,3.5,0.2,3.5,3.5c0,2.4-0.5,3.5-1.5,3.5c-0.9,0-1.5,0.9-1.5,2.1s-0.8,2.3-2,2.6c-1.1,0.3-2,0.9-2,1.4s-1.6,0.9-3.5,0.9
		s-3.5,0.5-3.5,1c0,0.6-2,1-4.5,1S206.5,306.3,206.5,305.7z"/>
	<path class="st3" d="M385.5,297.2c0-3.3,0.2-3.5,3.5-3.5s3.5,0.2,3.5,3.5s-0.2,3.5-3.5,3.5S385.5,300.5,385.5,297.2z"/>
	<path class="st3" d="M373.5,296.2c0-3.3,0.2-3.5,3.5-3.5s3.5,0.2,3.5,3.5s-0.2,3.5-3.5,3.5S373.5,299.5,373.5,296.2z"/>
	<path class="st3" d="M191.5,291.2c0-3.3,0.2-3.5,3.5-3.5s3.5,0.2,3.5,3.5s-0.2,3.5-3.5,3.5S191.5,294.5,191.5,291.2z"/>
	<path class="st3" d="M365.5,288.2c0-3.3,0.2-3.5,3.5-3.5s3.5,0.2,3.5,3.5s-0.2,3.5-3.5,3.5S365.5,291.5,365.5,288.2z"/>
	<path class="st3" d="M41.1,285.5c-0.3-1.3-0.6-3.8-0.6-5.5c0-2.6,0.4-3.3,2-3.3c1.8,0,2,0.7,2,5.5c0,4-0.4,5.5-1.4,5.5
		C42.4,287.7,41.5,286.7,41.1,285.5z"/>
	<path class="st3" d="M533.5,283c0-5.3,1-8.3,2.6-8.3c1,0,1.4,1.6,1.4,6c0,5.3-0.2,6-2,6C533.9,286.7,533.5,286,533.5,283z"/>
	<path class="st3" d="M566.5,283.5c0-4.8,1-7.8,2.6-7.8c1,0,1.4,1.5,1.4,5.5c0,4.8-0.2,5.5-2,5.5C566.9,286.7,566.5,286,566.5,283.5
		z"/>
	<path class="st3" d="M397.5,281.2c0-2.5-0.4-4.5-1-4.5c-0.5,0-1-0.6-1-1.4s-0.7-1.6-1.5-2c-0.9-0.3-1.5-1.9-1.5-4.1
		c0-3.4,0.1-3.5,3.6-3.5c2.7,0,3.7,0.5,4.1,2c0.3,1.1,0.9,2,1.4,2s0.9,1.6,0.9,3.5s0.5,3.5,1,3.5c0.6,0,1,2,1,4.5
		c0,4.5,0,4.5-3.5,4.5S397.5,285.7,397.5,281.2z"/>
	<path class="st3" d="M223.5,282.7c0-1.1-0.4-2-1-2c-0.5,0-1-1.1-1-2.5c0-1.7-0.6-2.5-1.7-2.5c-0.9,0-3.2-0.5-5-1.2
		c-2.8-1-3.3-1.7-3.3-4.5c0-3,0.3-3.3,2.9-3.3c5.2,0,9.1,2,9.1,4.6c0,1.9,0.5,2.4,2.5,2.4c1.8,0,2.5,0.5,2.5,2c0,1.1,0.5,2,1,2
		c0.6,0,1,1.6,1,3.5c0,3.3-0.2,3.5-3.5,3.5C224.2,284.7,223.5,284.3,223.5,282.7z"/>
	<path class="st3" d="M101.9,278c4-28.4,20.6-54.6,44.2-70c13-8.4,27.9-14.1,41.7-15.8c5.3-0.7,5.7-0.6,5.7,1.2
		c0,1.7-0.9,2.1-5.5,2.7c-3,0.3-9,1.7-13.2,3.1c-4.3,1.4-8.6,2.5-9.5,2.5c-1,0-1.8,0.4-1.8,0.8c0,1.1-6.6,4.2-9,4.2
		c-1.1,0-2,0.7-2,1.5s-0.7,1.5-1.5,1.5s-1.5,0.5-1.5,1c0,0.6-0.7,1-1.5,1s-1.5,0.5-1.5,1c0,0.6-0.6,1-1.4,1s-1.6,0.7-2,1.5
		c-0.3,0.9-1.8,1.5-3.6,1.5c-2.5,0-3,0.4-3,2.3c0,2.9-4.9,7.7-7.8,7.7c-1.8,0-2.2,0.6-2.2,3c0,1.8-0.6,3.3-1.5,3.6
		c-0.8,0.4-1.5,1.2-1.5,2s-0.4,1.4-1,1.4c-0.5,0-1,0.7-1,1.5s-0.4,1.5-1,1.5c-0.5,0-1,0.6-1,1.4s-0.3,1.6-0.7,1.8
		c-0.5,0.2-1.9,2.7-3.2,5.6c-1.4,2.8-2.8,5.2-3.3,5.2c-0.4,0-0.8,0.8-0.8,1.8c0,0.9-1.1,5.1-2.5,9.3c-1.3,4.2-2.7,10-3.1,12.8
		c-0.5,4.2-1,5.1-2.6,5.1C101.5,282.7,101.3,282.2,101.9,278L101.9,278z"/>
	<path class="st3" d="M192.5,279.2c0-3.3,0.2-3.5,3.5-3.5s3.5,0.2,3.5,3.5s-0.2,3.5-3.5,3.5S192.5,282.5,192.5,279.2z"/>
	<path class="st3" d="M24.5,274.2c0-4.9,0.3-6.5,1.4-6.5c1.7,0,2.6,3.1,2.6,8.8c0,3.5-0.3,4.2-2,4.2C24.7,280.7,24.5,280,24.5,274.2
		z"/>
	<path class="st3" d="M551.5,274.2c0-5.8,0.2-6.5,2-6.5c1.7,0,2,0.7,2,4.3c0,5.6-0.9,8.7-2.6,8.7
		C551.8,280.7,551.5,279.1,551.5,274.2z"/>
	<path class="st3" d="M57.5,271.7c0-6.1,0.3-8,1.4-8c1.8,0,2.6,3.1,2.6,10.3c0,5-0.2,5.7-2,5.7S57.5,279,57.5,271.7z"/>
	<path class="st3" d="M366.5,272.2c0-3.3,0.2-3.5,3.5-3.5s3.5,0.2,3.5,3.5s-0.2,3.5-3.5,3.5S366.5,275.5,366.5,272.2z"/>
	<path class="st3" d="M200.5,271.3c0-3.6,1.5-4.6,7.3-4.6c2.4,0,2.7,0.4,2.7,3.4c0,3.6-1.5,4.6-7.2,4.6
		C200.8,274.7,200.5,274.3,200.5,271.3z"/>
	<path class="st3" d="M40.1,267.5c-1-3.8-0.7-19.8,0.4-21.9c2.3-4.2,3-1.6,3,11.1c0,10.4-0.3,13-1.4,13
		C41.4,269.7,40.5,268.7,40.1,267.5z"/>
	<path class="st3" d="M375.5,265.2c0-3.3,0.2-3.5,3.5-3.5s3.5,0.2,3.5,3.5s-0.2,3.5-3.5,3.5S375.5,268.5,375.5,265.2z"/>
	<path class="st3" d="M567.5,261.5l0.1-3.3l1.9,2.4c2.5,3,2.5,4.1,0,4.1C567.9,264.7,567.5,264,567.5,261.5z"/>
	<path class="st3" d="M57.5,248.2c0-6.8,0.2-7.5,2-7.5c1.7,0,2,0.7,2,5.3c0,6.6-0.9,9.7-2.6,9.7C57.8,255.7,57.5,253.9,57.5,248.2z"
		/>
	<path class="st3" d="M534.1,248.5c-0.6-4.2-2.3-20.2-2.2-20.5c0.1-0.1,1.1,0.6,2.3,1.5c1.9,1.5,2.3,3,2.9,12
		c0.6,9,0.5,10.2-0.9,10.2C535.2,251.7,534.4,250.6,534.1,248.5z"/>
	<path class="st3" d="M551.5,246.7c0-3.8,0.2-4,2-3c1.3,0.7,2,2.1,2,4c0,2.3-0.4,3-2,3C551.8,250.7,551.5,250,551.5,246.7z"/>
	<path class="st3" d="M58.5,234.2c0-2.4,0.6-3.7,2-4.5c1.7-0.9,2-0.8,2,1.2c0,3.9-1.2,6.8-2.6,6.8C59,237.7,58.5,236.5,58.5,234.2z"
		/>
	<path class="st3" d="M194.5,193.3c0-1.6,3-2.6,7.8-2.6c2.5,0,3.2,0.4,3.2,2c0,1.8-0.7,2-5.5,2C196,194.7,194.5,194.3,194.5,193.3z"
		/>
	<path class="st3" d="M393.5,192.7c0-1.6,0.7-2,3.8-2c5.2,0,8.2,1,8.2,2.6c0,1-1.6,1.4-6,1.4C394.2,194.7,393.5,194.5,393.5,192.7z"
		/>
	<path class="st3" d="M208.5,192.3c0-1.6,3-2.6,8.3-2.6c3,0,3.7,0.4,3.7,2c0,1.8-0.7,2-6,2C210.1,193.7,208.5,193.3,208.5,192.3z"/>
	<path class="st3" d="M378.5,191.7c0-1.6,0.7-2,3.8-2c5.2,0,8.2,1,8.2,2.6c0,1-1.6,1.4-6,1.4C379.2,193.7,378.5,193.5,378.5,191.7z"
		/>
	<path class="st3" d="M225.5,191.3c0-1.7,3.1-2.6,9.3-2.6c4,0,4.7,0.3,4.7,2c0,1.8-0.7,2-7,2C227.2,192.7,225.5,192.4,225.5,191.3z"
		/>
	<path class="st3" d="M359.5,190.7c0-1.7,0.7-2,4.8-2c6.1,0,9.2,0.9,9.2,2.6c0,1.1-1.7,1.4-7,1.4
		C360.2,192.7,359.5,192.5,359.5,190.7z"/>
	<path class="st3" d="M248.5,190.3c0-1.9,3.2-2.6,11.8-2.6c6.5,0,7.2,0.2,7.2,2c0,1.9-0.7,2-9.5,2
		C250.6,191.7,248.5,191.4,248.5,190.3z"/>
	<path class="st3" d="M331.5,189.7c0-1.8,0.7-2,7.3-2c8.5,0,11.7,0.7,11.7,2.6c0,1.1-2.1,1.4-9.5,1.4
		C332.2,191.7,331.5,191.6,331.5,189.7z"/>
</g>
<g>
	<path class="st4" d="M286,389.1c-14.6-2.8-33.3-14.9-37-23.9c-2-4.5-1.9-12.5,0-15.3c0.9-1.2,4-2.9,7.3-3.9
		c5-1.6,10.3-1.8,45.2-1.8c42.8,0,49.2,0.6,53.6,5.1c3,2.9,3.2,10,0.5,15.9c-4.3,9.6-21.8,20.8-37.3,23.9
		C309,391,295.6,391,286,389.1L286,389.1z"/>
	<path class="st4" d="M199.5,303.5c-6.1-4.2-7.5-7.1-7.8-16.1c-0.2-7,0.1-8.8,2-12.2c6.2-10.8,26.6-11.6,33.9-1.4
		c2,2.8,2.5,4.9,2.7,11.9c0.3,7.6,0.1,8.9-2,12c-4.3,6.3-8,8-17.3,8C204.1,305.7,202.3,305.3,199.5,303.5L199.5,303.5z"/>
	<path class="st4" d="M373,298.5c-2.2-1.3-5-4.1-6.3-6.3c-1.9-3.4-2.2-5.1-2-12.1c0.3-7.1,0.6-8.5,3.2-11.8c3.8-5,7.9-6.6,16.9-6.6
		c8.4,0,12.4,1.9,16.4,7.9c1.9,2.9,2.3,4.7,2.3,11.6s-0.4,8.7-2.2,11.5c-4.2,6.1-7.1,7.5-16.1,7.8
		C378.1,300.7,376.4,300.5,373,298.5L373,298.5z"/>
</g>
<g>
	<path class="st5" d="M276,418c-38-2-76.3-11.1-104.6-24.9c-16.9-8.3-27.6-15.4-38.4-25.6c-19.9-18.8-29.6-41-31.2-71
		c-2-39.9,19.3-76.5,55.2-94.5c17.4-8.8,31.9-10.9,92.5-13.3c62.4-2.5,151.4,0.6,173,6.1c10.3,2.5,25,9.3,33.4,15.3
		c14.3,10.2,28.5,28.5,35.1,45.1c10.5,26.6,8,63.8-6.1,89.4c-14,25.5-41.3,45.3-80.4,58.2C368.9,414.5,319.8,420.3,276,418L276,418z
		 M316,386.2c17.5-3.7,36.1-17,38.1-27.3c1-4.9-1.5-7.8-8.4-9.9c-5-1.6-10.1-1.8-41.2-1.8c-38.7,0-45.2,0.5-50.2,3.8
		c-12.3,8.3,8.7,29.5,34.7,35.2C297.1,388,307.5,388,316,386.2L316,386.2z M219.1,301.1c5-2.4,7.8-7,8.2-13.9c0.3-5,0-6.6-2-9.4
		c-3.4-5.1-7.1-7.3-12.6-7.9c-9.6-0.9-17.2,5.5-18,15.2c-0.5,5.9,0.9,9.5,5.5,13.8C205.2,303.6,211.9,304.4,219.1,301.1L219.1,301.1
		z M391.4,296.2c9.1-4.7,12.2-16.4,6.5-25c-4.1-6.2-16.1-8.5-22.4-4.2c-5.8,3.9-7.5,7.1-7.5,14.1c0,5.2,0.4,6.8,2.7,9.8
		c1.5,1.9,4.2,4.2,6,5.1C380.8,298.1,387.7,298.2,391.4,296.2z"/>
	<path class="st5" d="M506.5,390.3c0-0.2,1.3-3.3,3-6.9c11.1-24.6,21.2-64.3,24.1-95c1.1-12.6,0.7-49.2-0.7-56.6l-0.7-3.4l3.2,1.9
		c3,1.8,10.6,7.3,16.7,12.2l2.9,2.4l-0.1,17.1c-0.2,33-5.2,62.3-16.6,98.5l-5.2,16.3l-5.5,3.3C517.3,386.3,506.5,391.5,506.5,390.3
		L506.5,390.3z"/>
	<path class="st5" d="M74,383.6c-6.1-3.3-11.7-6.8-12.6-7.7c-3-3.1-9.2-24.6-13.8-47.7c-4.9-24.4-6.4-39.8-6.5-63l-0.1-21l10.4-7.8
		c5.7-4.2,10.5-7.6,10.6-7.5c0.2,0.2-0.2,4.8-0.7,10.3c-2,20.4,0.3,57.4,5.3,83.3c4.1,21.3,13.5,53.8,18.4,63.3
		C87.8,391.2,87.5,391.1,74,383.6L74,383.6z"/>
	<path class="st5" d="M552,361c1.8-4.7,8.7-33.1,10.5-43.3c2.9-16.5,5-36.1,5-46.5c0-12.3,0.8-13,5.8-5.3
		c11.4,17.5,14.6,34,10.2,51.3c-3.5,13.6-12.8,28.4-25.3,40.3C552.3,363,550.9,363.8,552,361z"/>
	<path class="st5" d="M35.5,355.7C23.8,344,15.2,330.1,12,317.6c-2-7.7-2.3-20.5-0.5-28c1.6-6.8,7.7-19.9,12.2-26.2l3.5-4.8
		l0.6,14.6c1.2,24.8,5.6,53.9,12.1,79.3c1.3,5,2.2,9.2,2,9.2S38.8,359,35.5,355.7L35.5,355.7z"/>
</g>
<g>
	<path d="M292.5,99.5c0-12.9,0.2-13.4,6.4-15.4c2.8-0.9,5.4-1.9,5.8-2.3c0.4-0.4-5.7-2.6-13.6-5c-7.9-2.4-14.9-4.7-15.5-5
		c-0.7-0.5,2.8-2.8,8.3-5.7l9.5-4.9l0.3-12c0.3-11.6,0.4-12,2.6-12.3l2.3-0.3l-0.3,13.8L298,64.2l-5.3,2.8c-2.9,1.6-5.1,3.1-4.8,3.4
		c0.2,0.3,8.3,2.9,17.8,5.8c9.5,3,17.1,5.4,16.8,5.5s-5.9,1.8-12.5,3.9l-12,3.7l-0.3,9.7c-0.3,9.6-0.3,9.7-2.7,9.7
		C292.5,108.7,292.5,108.6,292.5,99.5z"/>
	<path d="M291.5,33.9c-7.4-3.6-8.9-13.7-2.9-19.2c5.2-4.9,12.7-4.4,17.3,1.1c5.2,6.1,2.6,15.3-5,18.5
		C296.6,36.1,295.7,36.1,291.5,33.9L291.5,33.9z"/>
</g>
</svg>
