<?xml version="1.0" encoding="utf-8"?>
<!-- Generator: Adobe Illustrator 21.0.2, SVG Export Plug-In . SVG Version: 6.00 Build 0)  -->
<svg version="1.1" id="Layer_1" xmlns="http://www.w3.org/2000/svg" xmlns:xlink="http://www.w3.org/1999/xlink" x="0px" y="0px"
	 viewBox="0 0 100 100" style="enable-background:new 0 0 100 100;" xml:space="preserve">
<style type="text/css">
	.st0{fill:#A0BFDD;}
	.st1{fill:#84A6C2;}
	.st2{fill:#4690C0;}
	.st3{fill:#5C8295;}
	.st4{fill:#3FA868;}
	.st5{fill:#15363F;}
	.st6{fill:#070707;}
</style>
<g>
	<g>
		<path class="st0" d="M56.4,82.9c-1.8-0.2-4.4-0.5-6-0.6c-3.5-0.3-12-0.3-15,0c-5.9,0.5-8.7,0.4-11.4-0.4c-2-0.6-3.2-1.3-4.1-2.3
			c-1.2-1.3-3.2-4.5-4.4-6.6c-0.7-1.3-1.1-2-1.4-2.1c-1.1-0.6-3.1-7.8-4-14.2c-0.2-1.6-0.3-3.2-0.3-7.3c0-5.2,0-5.3,0.4-5.5
			c0.3-0.2,0.4-0.5,0.5-1.1c0.9-7.1,7.7-13.5,17.1-16.2c4.8-1.4,14.7-2.8,19.8-2.8c1.6,0,1.7,0,1.7-0.4c0-0.3,0.1-0.4,0.4-0.4
			c0.3,0,0.4,0.1,0.4,0.2c0,0.2,0.6,0.3,3,0.4c6.1,0.2,10.9,0.7,15.8,1.6c5.4,1,9.5,2.8,13.3,5.9c0.8,0.7,1.2,1.2,1.6,2
			c0.8,1.5,1.4,3.5,1.8,5.9c0.5,2.6,0.5,9,0.1,12.2c-2.1,15.8-9.9,28.4-19.5,31.4C63.5,83.4,61.2,83.5,56.4,82.9L56.4,82.9z
			 M55.1,75.1C66.9,74,75.3,70.6,79.8,65c2-2.5,3.1-5.4,3.5-9.2c0.1-1.5,0.1-2-0.1-3.5c-0.6-3.7-2-6.6-4.8-9.3
			c-2.3-2.3-4.7-3.7-7.7-4.4c-2.1-0.6-6.2-0.8-14.9-1.1c-7.3-0.2-18.8,0.1-23.4,0.7c-5.7,0.7-10.7,4.2-13.2,9.2
			c-1.4,2.8-2,5.8-1.7,8.5c0.6,4.7,2,7.8,5.1,10.8c3.2,3.1,8.1,5.6,13.9,7.1c2.5,0.6,5.6,1.2,8,1.4C46.8,75.3,52.8,75.3,55.1,75.1
			L55.1,75.1z"/>
		<path class="st0" d="M89.3,68.5c0-0.1,0.2-1,0.5-1.8c2-5.9,3-11.1,3.2-16.9c0.1-2,0.1-3.6,0.2-3.6c0.1,0,0.8,0.6,1.6,1.5l1.4,1.5
			L96,51.4c-0.2,4.2-0.7,7.6-1.8,11.8c-0.6,2.5-0.6,2.5-1.3,3.2c-0.8,0.7-3.2,2.5-3.5,2.5C89.4,68.8,89.3,68.7,89.3,68.5L89.3,68.5z
			"/>
		<path class="st0" d="M9.2,68c-0.6-0.4-1.6-1.1-2-1.6l-1-0.8l-0.6-2.4C4.6,58.9,4.1,54.8,4,51c-0.1-1.6,0-1.6,0.4-2.3
			c0.3-0.4,0.9-1.1,1.4-1.6l0.9-0.8l0.1,3.1c0.2,6.2,1.2,12,2.8,17.1c0.3,0.8,0.5,1.7,0.4,1.9C10.3,68.7,10.1,68.7,9.2,68z"/>
	</g>
	<g>
		<path class="st1" d="M62.7,87c-1.7-0.2-6.2-0.7-8-0.8c-0.8-0.1-1,0-1,0.3s-0.1,0.3-0.6,0.2c-0.3-0.1-2.4-0.1-4.7-0.1
			c-3.5,0-4.1-0.1-4.1-0.3S44,86,41.5,86.1c-1.6,0.1-3.7,0.2-4.7,0.3c-4.9,0.5-9-0.4-12.7-2.9c-1.3-0.9-4-3.4-4.7-4.3l-0.4-0.5
			l0.6,0.4c1.1,0.8,3.1,1.7,4.5,2.1c2.8,0.8,4.7,0.9,10.4,0.4c2.9-0.3,12.7-0.3,15.9,0c1.4,0.1,4.3,0.4,6.3,0.6
			c3.2,0.4,3.9,0.4,5.4,0.3c8.3-0.8,15.4-8.1,19.8-20c0.4-0.8,0.6-1.6,0.6-1.7c0-0.1-0.4,0.6-0.8,1.6c-1.2,2.5-2.9,4.4-5.2,6.3
			c-1.1,0.8-3.7,2.4-3.9,2.4c-0.1,0-0.1-0.2-0.1-0.4c0-0.4,0.6-0.8,1.2-0.8c0.2,0,0.4-0.1,0.4-0.3s0.1-0.3,0.3-0.3
			c0.1,0,0.3-0.1,0.3-0.1c0-0.1,0.1-0.1,0.3-0.1s0.3-0.1,0.3-0.1c0-0.1,0.1-0.1,0.3-0.1s0.3-0.1,0.3-0.1c0-0.1,0.1-0.1,0.4-0.1
			s0.4-0.1,0.4-0.3c0-0.1,0.1-0.3,0.4-0.3s0.4-0.1,0.4-0.3c0-0.4,0.4-0.7,1-0.7c0.5,0,0.6,0,0.6-0.6c0-0.6,0.3-1,0.7-1
			c0.2,0,0.3-0.1,0.3-0.4s0.1-0.4,0.3-0.4c0.1,0,0.3-0.1,0.3-0.4s0.1-0.4,0.3-0.4c0.1,0,0.3-0.1,0.3-0.4c0-0.3,0.1-0.4,0.3-0.4
			c0.4,0,0.7-0.8,0.7-1.6c0-0.3,0.1-0.5,0.1-0.5c0.2-0.1,1.1-3.6,1.1-5c0.1-1.1,0.1-1.2,0.4-1.2c0.2,0,0.4,0.1,0.4,0.3
			c0,0.3-0.4,3.1-0.6,4c-0.3,1.5,0.6-2,1.1-3.9c0.8-4,1.1-6.3,1.1-10.3c0-5.9-0.9-9.6-3.4-13.6L82,30.5l1,0.8c2,1.7,4.2,4.5,5.2,6.9
			c0.6,1.3,1.4,4,1.4,4.5c0,0.1,0.2,0.5,0.4,0.8c0.4,0.4,0.4,0.7,0.6,2c0.7,6.8-0.7,15.9-3.6,23.4c-0.6,1.5-0.8,1.8-1.3,2
			c-0.4,0.3-0.8,0.8-1.3,1.9c-1.6,3.2-3.8,6.3-6.1,8.6C73.5,86,68.5,87.8,62.7,87L62.7,87z"/>
		<path class="st1" d="M45.2,75.7c-0.1,0-0.3-0.2-0.3-0.4c0-0.1,0.2-0.2,0.8-0.2c0.7,0,0.8,0.1,0.8,0.4s-0.1,0.4-0.6,0.4
			C45.8,75.7,45.4,75.7,45.2,75.7z"/>
		<path class="st1" d="M53.2,75.5c0-0.3,0.1-0.4,0.8-0.4c0.6,0,0.8,0.1,0.8,0.2c0,0.3-0.5,0.4-1.2,0.4
			C53.3,75.7,53.2,75.7,53.2,75.5z"/>
		<path class="st1" d="M43.2,75.5c-0.1,0-0.3-0.2-0.3-0.4c0-0.1,0.2-0.2,0.8-0.2c0.6,0,0.8,0.1,0.8,0.4c0,0.3-0.1,0.4-0.4,0.4
			S43.4,75.5,43.2,75.5z"/>
		<path class="st1" d="M55.6,75.2c0-0.3,0.1-0.4,0.7-0.4c0.8,0,1,0.4,0.3,0.6C55.9,75.7,55.6,75.6,55.6,75.2z"/>
		<path class="st1" d="M40.1,75c-7.8-1.3-14.2-4.2-18.1-8c-1.3-1.3-2.7-3.1-3-3.8c-0.1-0.2,0-0.3,0.4-0.3s0.4,0.1,0.4,0.5
			c0,0.4,0.1,0.5,0.4,0.5c0.2,0,0.4,0.1,0.4,0.2s0.1,0.3,0.3,0.4c0.1,0.1,0.3,0.2,0.3,0.4s0.1,0.4,0.4,0.5c0.3,0.1,0.4,0.4,0.4,0.8
			c0.1,0.6,0.1,0.6,0.6,0.6c0.6,0,0.9,0.3,0.9,0.7c0,0.2,0.1,0.3,0.4,0.3c0.3,0,0.5,0.1,0.5,0.4c0.1,0.2,0.2,0.4,0.4,0.4
			s0.4,0.1,0.4,0.1s0.1,0.1,0.3,0.1c0.1,0,0.3,0.1,0.3,0.1S25.9,69,26,69c0.1,0,0.3,0.1,0.3,0.3s0.1,0.3,0.4,0.3
			c0.3,0,0.4,0.1,0.4,0.4c0,0.3,0.1,0.4,0.5,0.4c0.5,0,2.3,0.8,2.3,1.1c0,0.1,0.2,0.1,0.4,0.1c0.2,0,0.5,0.1,0.6,0.3
			c0.1,0.1,0.4,0.3,0.6,0.3c0.2,0,0.4,0.1,0.4,0.1s0.1,0.1,0.3,0.1s1.1,0.3,2.1,0.6c2.1,0.6,5,1.3,7.1,1.6c1.2,0.1,1.5,0.3,1.5,0.5
			C42.7,75.5,42.5,75.5,40.1,75L40.1,75z"/>
		<path class="st1" d="M57.1,75.1c0-0.3,0.2-0.4,1.2-0.4c1.4-0.1,4.2-0.6,6.1-1.1c0.7-0.1,1.5-0.4,1.7-0.4s0.4-0.1,0.5-0.1
			c0.1-0.1,2.6-1.1,3-1.1c0.1,0,0.3-0.1,0.3-0.1s0.2-0.1,0.4-0.1c0.2,0,0.4-0.1,0.4-0.1c0-0.2,0.8-0.6,1.3-0.6c1.4,0-0.4,0.9-4,2.1
			c-2.6,0.8-5.4,1.5-8.5,2C57,75.5,57.1,75.5,57.1,75.1z"/>
		<path class="st1" d="M14.1,70.8c-0.2-0.1-0.4-0.3-0.4-0.4c0-0.1-0.1-0.2-0.1-0.2c-0.1,0-0.1-0.2-0.1-0.4c0-0.2-0.1-0.4-0.1-0.4
			c-0.2,0-0.6-1.2-0.6-1.8c0-0.6,0.3-0.6,0.5-0.1c0.5,1.2,1.3,3.4,1.3,3.5C14.5,71,14.3,70.9,14.1,70.8L14.1,70.8z"/>
		<path class="st1" d="M89.3,68.5c0-0.5,0.6-2.2,0.7-2.2c0.1,0,0.1-0.1,0.1-0.4c0-0.5,0.4-1.7,0.6-1.7c0.1,0,0.1-0.2,0.1-0.4
			c0-0.2,0.2-1.3,0.5-2.4c0.6-2.2,1.3-6.6,1.3-7.5c0-0.4,0.1-0.6,0.4-0.6c0.4,0,0.4,0,0.1,2.4c-0.3,2.3-0.9,5.4-1.6,7.5
			c-0.6,2.1-1.6,5.2-1.8,5.4C89.5,69,89.3,68.9,89.3,68.5z"/>
		<path class="st1" d="M9.9,68.3c0-0.1-0.1-0.1-0.2-0.1c-0.1,0.1-0.1,0.1-0.1-0.1c0.1-0.1-0.1-1.1-0.5-2.1c-0.9-3-1.8-7.5-2.2-10.7
			c-0.1-0.8-0.1-1,0.2-1c0.3,0,0.4,0.2,0.5,1.6c0.3,2.3,1.1,6.1,1.8,8.5c0.7,2.3,0.9,3.8,0.6,3.8C9.9,68.5,9.9,68.4,9.9,68.3
			L9.9,68.3z"/>
		<path class="st1" d="M11.7,64.9c-0.7-2.7-1.1-4.6-1.6-7.3c-0.4-2.8-0.4-3.3-0.1-3.3c0.3,0,0.3,0.1,0.6,2.5c0.3,2.2,1,5.6,1.6,7.8
			c0.4,1.1,0.6,2,0.6,2.2c0,0.1-0.1,0.1-0.4,0.1C12.3,66.8,12.1,66.5,11.7,64.9L11.7,64.9z"/>
		<path class="st1" d="M92.8,66.3c0.8-2,1.6-5.6,2.4-10.9c0.1-0.6,0.6-0.8,0.6-0.1c0,1.3-1.5,8.7-1.7,8.7c-0.1,0-0.1,0.3-0.1,0.6
			c0,0.3-0.1,0.6-0.1,0.6c-0.1,0-0.1,0.2-0.1,0.4c0,0.3-0.1,0.5-0.4,0.7C92.7,66.5,92.6,66.5,92.8,66.3z"/>
		<path class="st1" d="M6.6,65.9c-0.5-0.4-1-2.3-1.6-6c-0.6-3.2-0.6-4-0.3-4c0.1,0,0.3,0.2,0.4,0.6c0.6,3.8,1.1,5.8,1.5,7.7
			c0.4,1.2,0.6,2.3,0.6,2.3C7,66.4,6.8,66.1,6.6,65.9z"/>
		<path class="st1" d="M18.1,61.3c-0.4-0.9-0.9-3-1.1-4.4C17,56.1,17,56,17.3,56c0.3,0,0.4,0.1,0.4,1c0.1,1.2,0.8,3.8,1,3.9
			c0.2,0.1,0.1,1.2,0,1.2C18.5,62.1,18.3,61.8,18.1,61.3L18.1,61.3z"/>
		<path class="st1" d="M16.8,55.5c-0.1-0.2-0.1-0.8-0.1-1.2c0-1.1,0.1-1.6,0.4-1.6c0.2,0,0.2,0.4,0.2,1.6s-0.1,1.6-0.2,1.6
			C17.1,55.8,16.9,55.7,16.8,55.5z"/>
		<path class="st1" d="M4.3,55c0-0.8,0.4-1,0.6-0.3c0.2,0.7,0.1,1-0.2,1C4.4,55.7,4.3,55.6,4.3,55z"/>
		<path class="st1" d="M95.2,54.3c0-0.6,0.2-1.1,0.4-1.1c0.1,0,0.2,0.2,0.2,0.8c0,0.6-0.1,0.8-0.4,0.8
			C95.3,54.7,95.2,54.6,95.2,54.3z"/>
		<path class="st1" d="M6.8,53.8C6.5,53,6.6,52.7,7,52.7c0.3,0,0.4,0.1,0.4,0.8C7.3,54.2,6.9,54.5,6.8,53.8z"/>
		<path class="st1" d="M4.1,53.2c0-0.8,0.4-1.1,0.6-0.4C4.9,53.7,4.8,54,4.4,54C4.2,54,4.1,53.9,4.1,53.2z"/>
		<path class="st1" d="M9.7,53.1c0-0.8,0.4-1.1,0.6-0.4c0.2,0.8,0.1,1.1-0.2,1.1C9.7,53.9,9.7,53.7,9.7,53.1z"/>
		<path class="st1" d="M83.2,52.6c-0.1-0.6-0.2-1.4-0.4-1.9c-0.1-0.4-0.4-1.2-0.5-1.7c-0.1-0.4-0.3-0.8-0.4-0.9
			c-0.2-0.2-0.8-1.6-0.8-1.8c0-0.2-0.1-0.4-0.3-0.4s-0.3-0.1-0.3-0.3s-0.1-0.3-0.1-0.3c-0.1,0-0.1-0.1-0.1-0.3
			c0-0.1-0.1-0.3-0.1-0.3c-0.1,0-0.1-0.2-0.1-0.4c0-0.3-0.1-0.4-0.4-0.5c-0.4,0-0.4-0.1-0.4-0.7v-0.7l0.7,0.8c2.1,2.3,3.5,5.7,4,9.3
			c0.1,0.8,0.1,1-0.2,1C83.3,53.7,83.2,53.5,83.2,52.6L83.2,52.6z"/>
		<path class="st1" d="M92.8,52.2c0-0.6,0.1-0.8,0.4-0.8c0.4,0,0.4,0.4,0.2,1.1C93.3,53.3,92.8,53.1,92.8,52.2z"/>
		<path class="st1" d="M95.4,52.1c0-0.8,0.1-1.3,0.4-1.3c0.1,0,0.2,0.3,0.2,0.9c0,0.8,0,0.9-0.4,0.9C95.4,52.7,95.4,52.5,95.4,52.1z
			"/>
		<path class="st1" d="M17,51.7c0.4-2.6,1.8-5.9,1.8-4.2c0,0.5-0.3,1.3-0.5,1.6c-0.1,0.1-0.1,0.4-0.2,0.6c-0.5,2.8-0.5,2.8-0.8,2.8
			C16.9,52.5,16.9,52.4,17,51.7L17,51.7z"/>
		<path class="st1" d="M6.5,51.3c-0.1-0.2-0.1-0.7-0.1-1c0-0.5,0.1-0.6,0.4-0.6c0.3,0,0.4,0.1,0.4,1c0,0.8-0.1,1-0.2,1
			C6.8,51.6,6.6,51.5,6.5,51.3z"/>
		<path class="st1" d="M3.9,50.3c0-1.1,0.4-1.9,0.6-1.2c0.1,0.2,0.1,0.8,0.1,1.3c0,0.8-0.1,0.8-0.4,0.8C4,51.3,3.9,51.2,3.9,50.3z"
			/>
		<path class="st1" d="M9.5,48.9c0-1.6,0-1.7,0.4-1.7s0.4,0.1,0.4,1.7c0,1.6,0,1.7-0.4,1.7S9.5,50.5,9.5,48.9z"/>
		<path class="st1" d="M6.5,47c0-0.2,0.1-0.4,0.4-0.6C7.2,46,7.2,46,7.2,46.6c0,0.5-0.1,0.6-0.4,0.6C6.6,47.2,6.5,47.2,6.5,47z"/>
		<path class="st1" d="M19,46c0.3-0.7,1.6-2.5,2.8-3.7c1.1-1.1,3.7-3,4.1-3c0.1,0,0.1,0.2,0.1,0.4c0,0.3-0.1,0.4-0.4,0.5
			c-0.2,0.1-0.4,0.1-0.4,0.3c0,0.1-0.1,0.1-0.3,0.1c-0.1,0-0.3,0.1-0.3,0.1s-0.1,0.1-0.3,0.1C24.2,40.9,24,41,24,41
			c0,0.1-0.2,0.1-0.4,0.1c-0.3,0-0.4,0.1-0.4,0.3c0,0.4-0.4,0.7-1,0.7c-0.5,0-0.6,0-0.6,0.6c0,0.6-0.3,1-0.7,1
			c-0.2,0-0.3,0.1-0.3,0.4c0,0.2-0.1,0.4-0.1,0.4c-0.1,0-0.1,0.1-0.1,0.3c0,0.1-0.1,0.3-0.1,0.3c-0.1,0-0.1,0.1-0.1,0.3
			c0,0.1-0.1,0.3-0.1,0.3c-0.1,0-0.1,0.1-0.1,0.3c0,0.1-0.1,0.3-0.4,0.3C19,46.2,19,46.2,19,46z"/>
		<path class="st1" d="M9.7,45c0-0.6,0.1-0.8,0.4-0.8c0.4,0,0.4,0.4,0.2,1.1C10.1,46,9.7,45.8,9.7,45z"/>
		<path class="st1" d="M77.2,41.7c-0.1-0.2-0.2-0.4-0.4-0.4c-0.2,0-0.4-0.1-0.4-0.3s-0.2-0.3-0.4-0.3c-0.1,0-0.2-0.1-0.2-0.1
			c0-0.1-0.2-0.2-0.4-0.3C75.2,40.2,75,40.1,75,40s-0.1-0.3-0.4-0.3c-0.5,0-0.8-0.2-0.8-0.4c0-0.1-0.2-0.2-0.6-0.2
			c-0.5,0-0.6-0.1-0.6-0.4s0-0.4,0.4-0.3c1.6,0.6,3.7,1.8,4.9,2.9l0.7,0.6H78C77.5,42,77.3,41.9,77.2,41.7L77.2,41.7z"/>
		<path class="st1" d="M26.5,39.1c0-0.3,1.3-0.8,3.2-1.3c2-0.5,2.3-0.5,2.3-0.1c0,0.2-0.1,0.4-0.8,0.4c-0.4,0.1-1.5,0.4-2.3,0.6
			C27.3,39.3,26.5,39.5,26.5,39.1z"/>
		<path class="st1" d="M70.3,38.4c-0.4-0.1-1.3-0.3-2-0.4c-1-0.1-1.1-0.1-1.1-0.4s0.1-0.4,1.1-0.2s2.8,0.4,3.6,0.7
			c0.2,0.1,0.4,0.2,0.4,0.4C72.3,38.7,71.5,38.7,70.3,38.4z"/>
		<path class="st1" d="M32.1,37.7c0-0.2,0.5-0.4,1.1-0.4c0.3,0,0.4,0.1,0.4,0.4c0,0.3-0.1,0.4-0.8,0.4C32.3,38,32.1,37.9,32.1,37.7z
			"/>
		<path class="st1" d="M34.3,37.6c0-0.3,0.5-0.4,1.2-0.4c0.4,0,0.4,0.1,0.4,0.4c0,0.3-0.1,0.4-0.8,0.4
			C34.6,37.8,34.3,37.7,34.3,37.6z"/>
		<path class="st1" d="M64.7,37.5c0-0.3,0.1-0.4,0.5-0.4c0.7,0,1.2,0.2,1.2,0.4c0,0.1-0.2,0.2-0.8,0.2
			C64.8,37.8,64.7,37.8,64.7,37.5z"/>
		<path class="st1" d="M37.2,37.4c0-0.3,0.5-0.4,1.2-0.4c0.4,0,0.4,0.1,0.4,0.4c0,0.3-0.1,0.4-0.8,0.4
			C37.4,37.6,37.2,37.6,37.2,37.4z"/>
		<path class="st1" d="M61.8,37.3c0-0.3,0.1-0.4,0.5-0.4c0.7,0,1.2,0.2,1.2,0.4c0,0.1-0.2,0.2-0.8,0.2
			C61.9,37.6,61.8,37.6,61.8,37.3z"/>
		<path class="st1" d="M40.7,37.2c0-0.3,0.5-0.4,1.4-0.4c0.5,0,0.6,0.1,0.6,0.4c0,0.3-0.1,0.4-1,0.4C41,37.5,40.7,37.4,40.7,37.2z"
			/>
		<path class="st1" d="M57.9,37.1c0-0.3,0.1-0.4,0.6-0.4c0.8,0,1.4,0.1,1.4,0.4c0,0.1-0.3,0.2-1,0.2C58,37.5,57.9,37.4,57.9,37.1z"
			/>
		<path class="st1" d="M47.3,37.1c0-0.4,0.6-0.4,3-0.4c2.5,0,3,0.1,3,0.4c0,0.2-0.6,0.2-3,0.2C47.8,37.3,47.3,37.2,47.3,37.1z"/>
	</g>
	<g>
		<path class="st2" d="M88.6,60.7c0-0.5,0.2-1,0.4-1c0.1,0,0.2,0.2,0.2,0.6c0,0.5-0.1,0.6-0.4,0.6C88.8,60.9,88.6,60.9,88.6,60.7z"
			/>
		<path class="st2" d="M89.7,54.5c0-0.5,0.2-1,0.4-1c0.1,0,0.2,0.2,0.2,0.6c0,0.5-0.1,0.6-0.4,0.6C89.8,54.7,89.7,54.6,89.7,54.5z"
			/>
		<path class="st2" d="M89.8,52.3c0-0.5,0.2-1,0.4-1c0.1,0,0.2,0.2,0.2,0.6c0,0.5-0.1,0.6-0.4,0.6C89.9,52.5,89.8,52.4,89.8,52.3z"
			/>
		<path class="st2" d="M89.6,44.2c-0.1-0.6-0.1-0.6,0.2-0.4c0.4,0.3,0.4,0.8,0.1,0.8C89.8,44.6,89.7,44.4,89.6,44.2L89.6,44.2z"/>
	</g>
	<g>
		<path class="st3" d="M45.9,75.7c-0.1,0-0.3-0.2-0.3-0.4c0-0.2,0.3-0.2,1.1-0.2c1,0,1.1,0,1.1,0.4c0,0.3-0.1,0.4-0.8,0.4
			C46.6,75.7,46.1,75.7,45.9,75.7z"/>
		<path class="st3" d="M51.7,75.5c0-0.3,0.1-0.4,1.3-0.4c1,0,1.3,0.1,1.3,0.2c0,0.3-0.5,0.4-1.6,0.4C51.8,75.7,51.7,75.7,51.7,75.5z
			"/>
		<path class="st3" d="M42.7,75.4c-2.3-0.3-5.8-1-7.9-1.6c-8.6-2.5-14.5-6.9-16.7-12.6c-0.5-1.3-0.9-3-1.1-4.7
			c-0.1-0.8-0.1-0.9,0.2-0.9c0.3,0,0.4,0.1,0.4,1.1c0.3,2.2,1.5,5.7,2.3,6.6c0.1,0.2,0.3,0.4,0.3,0.6c0,0.1,0.1,0.2,0.1,0.2
			c0.1,0,0.1,0.1,0.1,0.4s0.1,0.4,0.3,0.4c0.1,0,0.3,0.1,0.3,0.5c0,0.4,0.1,0.5,0.4,0.5c0.5,0,1.3,0.8,1.3,1.3
			c0,0.3,0.1,0.4,0.5,0.4c0.4,0,0.6,0.1,0.6,0.4c0.1,0.2,0.2,0.4,0.4,0.4c0.2,0,0.4,0.1,0.4,0.3s0.2,0.3,0.4,0.3
			c0.1,0,0.2,0.1,0.2,0.1c0,0.1,0.1,0.1,0.3,0.1c0.1,0,0.3,0.1,0.3,0.1s0.1,0.1,0.2,0.1c0.1,0,0.4,0.1,0.5,0.2c0.1,0.1,1,0.6,2,1.1
			c0.9,0.4,1.7,0.8,1.7,0.9s0.2,0.1,0.5,0.2c0.3,0.1,1.6,0.5,2.9,0.9c2.8,0.9,6.5,1.8,9.5,2c1.7,0.2,2,0.3,2,0.5
			C45.1,75.7,44.9,75.7,42.7,75.4z"/>
		<path class="st3" d="M54.7,75.2c0-0.3,0.1-0.4,0.6-0.4c1.1,0,5.4-0.6,7.5-1.1c2.6-0.6,5.9-1.6,8-2.5c0.9-0.4,1.8-0.8,2-0.8
			c0.2,0,0.4-0.1,0.4-0.2c0-0.1,0.3-0.4,0.6-0.4s0.6-0.3,0.6-0.4c0-0.1,0.1-0.1,0.3-0.1s0.3-0.1,0.3-0.1c0-0.1,0.1-0.1,0.3-0.1
			c0.1,0,0.3-0.1,0.3-0.1c0-0.1,0.1-0.1,0.3-0.1s0.3-0.1,0.3-0.1c0-0.1,0.1-0.1,0.4-0.1c0.1,0,0.4-0.1,0.4-0.4
			c0.1-0.3,0.2-0.4,0.6-0.4s0.5-0.1,0.5-0.4c0-0.5,0.8-1.3,1.3-1.3c0.3,0,0.4-0.1,0.4-0.5c0-0.3,0.1-0.6,0.3-0.6
			c0.1-0.1,0.3-0.2,0.3-0.4c0-0.1,0.1-0.3,0.3-0.4c0.1-0.1,0.3-0.2,0.3-0.4c0-0.1,0.1-0.4,0.2-0.4c0.2-0.3,1.2-2.2,1.6-3.3
			c0.4-1.2,0.9-4.4,0.9-5.9c0-1.6-0.5-4-1.1-5.4c-0.2-0.6-0.4-1.3-0.4-1.5c0-0.2-0.1-0.4-0.2-0.4s-0.4-0.3-0.4-0.6
			c-0.1-0.4-0.3-0.6-0.4-0.6s-0.1-0.1-0.1-0.3c0-0.1-0.1-0.3-0.1-0.3s-0.1-0.1-0.1-0.2c0-0.1-0.1-0.3-0.3-0.4
			c-0.1-0.1-0.3-0.3-0.3-0.5c0-0.3-0.1-0.4-0.3-0.4c-0.4,0-1.9-1.6-1.9-1.9c0-0.2-0.1-0.3-0.4-0.3c-0.3,0-0.4-0.1-0.4-0.3
			c0-0.1-0.1-0.3-0.4-0.3S76.3,41,76.3,41c0-0.1-0.1-0.1-0.3-0.1s-0.3-0.1-0.3-0.3s-0.1-0.3-0.4-0.3c-0.1,0-0.9-0.3-1.7-0.6
			c-1.3-0.6-3.9-1.3-4.7-1.3c-0.3,0-0.4-0.1-0.4-0.4c0-0.4,0.1-0.4,0.9-0.2c4.6,0.6,9,3.4,11.6,7.2c1.7,2.5,2.7,5.3,3,8.5
			c0.1,1.6-0.2,4.7-0.8,6.6C81,68.3,72.2,73.8,58.5,75.5C54.8,75.7,54.7,75.7,54.7,75.2L54.7,75.2z"/>
		<path class="st3" d="M85.4,70.6c2-4.7,3.2-8.9,4-13.5c0.2-1.3,0.4-2.6,0.4-2.9c0.1-0.4,0.2-0.6,0.4-0.6c0.2,0,0.3,0.2,0.1,1.3
			c-0.4,3.9-1.7,9.5-3.5,14c-0.6,1.5-0.7,1.7-1.2,1.9L85,71.2L85.4,70.6L85.4,70.6z"/>
		<path class="st3" d="M14,70.7c-0.4-0.3-0.6-0.6-1.4-2.9c-1.3-4-2.1-7.5-2.7-11.6c-0.4-2.6-0.4-3.3,0-3.3c0.3,0,0.4,0.5,0.4,1.3
			c0,1.1,0.7,5.2,1.2,7.6c0.6,2.5,1.7,6.1,2.5,8c0.3,0.7,0.5,1.2,0.5,1.2C14.5,71,14.2,70.9,14,70.7z"/>
		<path class="st3" d="M48.5,70.9C48,70.9,48,70.8,48,70.3c0-0.6,0.1-0.6,1.4-0.5c0.8,0.1,0.8,0.1,0.8,0.7S50.1,71.1,48.5,70.9
			L48.5,70.9z"/>
		<path class="st3" d="M51.5,70.5V70l1.3-0.2c0.8-0.1,1.3-0.3,1.3-0.4s0.3-0.1,0.6-0.1c0.6,0,0.6,0,0.6,0.6s0,0.6-0.5,0.6
			c-0.3,0-0.5,0.1-0.5,0.1c0,0.1-1.8,0.5-2.5,0.5C51.6,71,51.5,70.9,51.5,70.5L51.5,70.5z"/>
		<path class="st3" d="M45.1,69.8c-0.3-0.1-0.4-0.4-0.4-0.8c0-0.5,0.1-0.6,0.5-0.6c0.9,0,1.3,0.4,1.3,1c0,0.5,0,0.6-0.6,0.6
			C45.8,70,45.4,70,45.1,69.8L45.1,69.8z"/>
		<path class="st3" d="M56.2,68.8c0-0.4,0.1-0.6,0.3-0.6c0.1,0,0.3-0.1,0.3-0.1c0-0.1,0.2-0.1,0.5-0.1c0.4,0,0.5-0.1,0.6-0.4
			c0-0.4,0.1-0.5,0.5-0.5c0.4-0.1,0.4-0.1,0.4-0.5c0-1,0.1-1.2,0.8-1.2c0.5,0,0.6,0.1,0.6,0.5c0,0.8-0.2,1.2-0.6,1.2
			c-0.4,0-0.4,0.1-0.4,0.6c-0.1,0.6-0.1,0.6-0.6,0.7c-0.4,0.1-0.6,0.1-0.6,0.5c0,0.3-0.1,0.4-0.3,0.4c-0.1,0-0.3,0.1-0.3,0.1
			c0,0.1-0.3,0.1-0.6,0.1C56.3,69.4,56.2,69.3,56.2,68.8L56.2,68.8z"/>
		<path class="st3" d="M10.1,68.6c-0.6-0.5-2.3-6.9-3-11.6c-0.4-3-0.4-3.1-0.1-3.1c0.3,0,0.4,0.3,0.5,1.8C8,59.1,8.9,63.4,10,66.6
			c0.3,0.8,0.5,1.7,0.4,1.9C10.4,68.8,10.4,68.8,10.1,68.6z"/>
		<path class="st3" d="M89.3,68.4c0-0.3,0.3-1.3,0.6-2.3c1.3-3.6,2.4-9,2.8-12c0.1-1.1,0.1-1.3,0.4-1.3c0.3,0,0.4,0.1,0.2,1.1
			c-0.2,2-0.9,5.9-1.4,8c-0.5,2-1.8,6-2,6.6C89.6,69,89.3,68.9,89.3,68.4L89.3,68.4z"/>
		<path class="st3" d="M43.1,67.9c0-0.6,0-0.6,0.6-0.6s0.6,0,0.6,0.6c0,0.6,0,0.6-0.6,0.6S43.1,68.5,43.1,67.9z"/>
		<path class="st3" d="M41.5,65.4v-1.1h0.6c0.5,0,0.6-0.1,0.6-0.4c0-0.4,0.1-0.4,0.6-0.4c0.6,0,0.6,0,0.6,0.6c0,0.6,0,0.6-0.6,0.6
			h-0.6v0.9v0.9h-0.6h-0.6V65.4z"/>
		<path class="st3" d="M93.2,64.8c0.6-2.3,1.4-5.8,1.8-8.1c0.4-3,0.4-3,0.7-3c0.4,0,0.4,0.6-0.1,3.5c-0.4,2.5-0.8,4.9-1.6,7.3
			c-0.3,1.1-0.5,1.5-0.8,1.7l-0.5,0.4L93.2,64.8L93.2,64.8z"/>
		<path class="st3" d="M6.5,65.8c-0.6-0.4-1.5-4.4-2-9.1c-0.4-3.1-0.4-3.7-0.1-3.7c0.3,0,0.3,0.1,0.7,3.4c0.4,2.6,0.9,5.8,1.6,8.1
			C6.8,65.3,7,66.1,7,66.1C6.9,66.1,6.7,66,6.5,65.8L6.5,65.8z"/>
		<path class="st3" d="M56.9,63.9c0-0.6,0-0.6,0.6-0.6s0.6,0,0.6,0.6s0,0.6-0.6,0.6C56.9,64.4,56.9,64.4,56.9,63.9z"/>
		<path class="st3" d="M45.1,63.7v-0.6H46h0.8v0.6v0.6H46h-0.8V63.7z"/>
		<path class="st3" d="M54.9,63.7c0-0.6,0-0.6,0.8-0.6c0.8,0,0.8,0,0.8,0.6s0,0.6-0.8,0.6C54.9,64.2,54.9,64.3,54.9,63.7z"/>
		<path class="st3" d="M34.6,56.7c0-0.1-0.3-0.1-0.6-0.1c-0.6,0-0.6,0-0.6-0.6s0-0.6,0.6-0.6c0.4,0,0.6,0.1,0.6,0.1
			c0,0.1,0.4,0.1,0.8,0.1c0.4,0,0.8-0.1,0.8-0.1c0-0.1,0.1-0.1,0.2-0.1c0.1,0,0.3-0.1,0.4-0.3c0.1-0.1,0.2-0.3,0.4-0.3
			s0.3-0.1,0.3-0.4c0-0.3,0.1-0.4,0.6-0.4c0.6,0,0.6,0,0.6,0.6c0,0.4-0.1,0.6-0.3,0.6c-0.1,0-0.3,0.1-0.3,0.4s-0.1,0.4-0.4,0.4
			c-0.2,0.1-0.4,0.1-0.4,0.2s-0.3,0.1-0.6,0.1c-0.3,0-0.6,0.1-0.6,0.1c0,0.1-0.4,0.1-0.8,0.1C34.9,56.7,34.6,56.8,34.6,56.7z"/>
		<path class="st3" d="M64.8,55.3c0-0.6,0-0.6,0.6-0.6c0.6,0,0.6,0,0.6,0.6s0,0.6-0.6,0.6C64.8,55.8,64.8,55.8,64.8,55.3z"/>
		<path class="st3" d="M62.8,55.1c0-0.6,0-0.6,0.6-0.6s0.6,0,0.6,0.6c0,0.6,0,0.6-0.6,0.6S62.8,55.6,62.8,55.1z"/>
		<path class="st3" d="M32.1,54.3c0-0.6,0-0.6,0.6-0.6c0.6,0,0.6,0,0.6,0.6s0,0.6-0.6,0.6C32.2,54.9,32.1,54.8,32.1,54.3z"/>
		<path class="st3" d="M61.4,53.7c0-0.6,0-0.6,0.6-0.6s0.6,0,0.6,0.6s0,0.6-0.6,0.6S61.4,54.3,61.4,53.7z"/>
		<path class="st3" d="M6.8,53.3c-0.1-0.2-0.1-0.6-0.1-0.9c0-0.4,0.1-0.6,0.4-0.6c0.3,0,0.4,0.1,0.4,0.9c0,0.7-0.1,0.9-0.2,0.9
			C7,53.7,6.8,53.5,6.8,53.3z"/>
		<path class="st3" d="M89.8,52.9c0-0.9,0.1-1.4,0.4-1.4c0.1,0,0.2,0.3,0.2,1c0,0.9,0,1-0.4,1C89.9,53.5,89.8,53.4,89.8,52.9z"/>
		<path class="st3" d="M95.4,52.9c0-0.8,0.1-1.3,0.4-1.3c0.1,0,0.2,0.3,0.2,0.9c0,0.8,0,0.9-0.4,0.9C95.4,53.5,95.4,53.4,95.4,52.9z
			"/>
		<path class="st3" d="M66.9,52.6c0-0.4-0.1-0.8-0.1-0.8s-0.1-0.1-0.1-0.2c0-0.1-0.1-0.3-0.3-0.4c-0.1-0.1-0.3-0.4-0.3-0.7
			c0-0.6,0-0.6,0.6-0.6c0.4,0,0.6,0.1,0.7,0.4c0.1,0.2,0.1,0.4,0.2,0.4c0.1,0,0.1,0.3,0.1,0.6c0,0.3,0.1,0.6,0.1,0.6
			c0.1,0,0.1,0.4,0.1,0.8c0,0.8,0,0.8-0.6,0.8C66.9,53.4,66.9,53.3,66.9,52.6z"/>
		<path class="st3" d="M37.5,52.8c0-0.2-0.1-0.4-0.1-0.4c-0.1,0-0.1-0.2-0.1-0.4c0-0.3-0.1-0.4-0.3-0.4c-0.1,0-0.6-0.1-0.8-0.2
			c-0.5-0.1-0.6-0.3-0.6-0.8c0-0.5,0.1-0.6,0.5-0.6c0.8,0,1.6,0.4,1.6,0.8c0,0.4,0.1,0.4,0.4,0.4c0.3,0,0.4,0.1,0.4,0.4
			c0,0.2,0.1,0.4,0.1,0.4c0.1,0,0.1,0.3,0.1,0.6c0,0.6,0,0.6-0.6,0.6C37.7,53.2,37.5,53.1,37.5,52.8z"/>
		<path class="st3" d="M17,52c0.7-4.8,3.5-9.2,7.5-11.8c2.2-1.4,4.7-2.4,7.1-2.7c0.9-0.1,1-0.1,1,0.2c0,0.3-0.1,0.4-0.9,0.4
			c-0.5,0.1-1.6,0.3-2.3,0.5c-0.7,0.2-1.5,0.4-1.6,0.4c-0.1,0-0.3,0.1-0.3,0.1c0,0.2-1.1,0.7-1.6,0.7c-0.2,0-0.4,0.1-0.4,0.3
			c0,0.1-0.1,0.3-0.3,0.3c-0.1,0-0.3,0.1-0.3,0.1s-0.1,0.1-0.3,0.1c-0.1,0-0.3,0.1-0.3,0.1c0,0.1-0.1,0.1-0.2,0.1
			c-0.1,0-0.3,0.1-0.4,0.3s-0.3,0.3-0.6,0.3c-0.4,0-0.5,0.1-0.5,0.4c0,0.5-0.8,1.3-1.3,1.3c-0.3,0-0.4,0.1-0.4,0.5
			c0,0.3-0.1,0.6-0.3,0.6c-0.1,0.1-0.3,0.2-0.3,0.4S20.4,45,20.3,45c-0.1,0-0.1,0.1-0.1,0.3c0,0.1-0.1,0.3-0.1,0.3
			c-0.1,0-0.1,0.1-0.1,0.2c0,0.1-0.1,0.3-0.1,0.3c-0.1,0-0.4,0.4-0.6,0.9c-0.2,0.5-0.5,0.8-0.6,0.8s-0.1,0.1-0.1,0.3
			c0,0.1-0.2,0.8-0.4,1.6s-0.4,1.7-0.5,2.2c-0.1,0.7-0.1,0.8-0.4,0.8C16.9,52.8,16.9,52.7,17,52L17,52z"/>
		<path class="st3" d="M32.3,52.2c0-0.6,0-0.6,0.6-0.6c0.6,0,0.6,0,0.6,0.6s0,0.6-0.6,0.6C32.3,52.8,32.3,52.8,32.3,52.2z"/>
		<path class="st3" d="M3.9,51.4c0-0.8,0.1-1.1,0.2-1.1c0.3,0,0.4,0.5,0.4,1.5c0,0.6-0.1,0.7-0.4,0.7C4,52.5,3.9,52.4,3.9,51.4z"/>
		<path class="st3" d="M92.8,51.4c0-1,0-1.1,0.4-1.1c0.3,0,0.4,0.1,0.4,0.7c0,0.9-0.1,1.5-0.4,1.5C92.9,52.5,92.8,52.2,92.8,51.4z"
			/>
		<path class="st3" d="M9.5,51c0-1.1,0.1-1.3,0.2-1.3c0.3,0,0.4,0.5,0.4,1.8c0,0.8,0,1-0.4,1C9.4,52.4,9.5,52.2,9.5,51z"/>
		<path class="st3" d="M61.6,51c0-0.6,0-0.6,0.6-0.6s0.6,0,0.6,0.6s0,0.6-0.6,0.6S61.6,51.6,61.6,51z"/>
		<path class="st3" d="M33.6,50.9c0-0.6,0.3-0.8,1.2-0.8c0.4,0,0.4,0.1,0.4,0.6c0,0.6-0.3,0.8-1.2,0.8
			C33.7,51.5,33.6,51.4,33.6,50.9z"/>
		<path class="st3" d="M6.5,50.3c-0.1-0.6-0.1-3.3,0.1-3.7c0.4-0.7,0.5-0.3,0.5,1.9c0,1.8-0.1,2.2-0.2,2.2
			C6.8,50.6,6.6,50.5,6.5,50.3z"/>
		<path class="st3" d="M63.1,49.8c0-0.6,0-0.6,0.6-0.6c0.6,0,0.6,0,0.6,0.6s0,0.6-0.6,0.6C63.1,50.4,63.1,50.4,63.1,49.8z"/>
		<path class="st3" d="M95.6,49.3v-0.6l0.4,0.4c0.4,0.5,0.4,0.7,0,0.7C95.6,49.8,95.6,49.6,95.6,49.3z"/>
		<path class="st3" d="M9.5,47c0-1.1,0-1.3,0.4-1.3c0.3,0,0.4,0.1,0.4,0.9c0,1.1-0.1,1.6-0.4,1.6C9.6,48.3,9.5,47.9,9.5,47z"/>
		<path class="st3" d="M89.9,47c-0.1-0.7-0.4-3.4-0.4-3.5c0,0,0.2,0.1,0.4,0.3c0.4,0.3,0.4,0.5,0.5,2c0.1,1.6,0.1,1.7-0.1,1.7
			C90.1,47.6,89.9,47.4,89.9,47z"/>
		<path class="st3" d="M92.8,46.7c0-0.6,0-0.7,0.4-0.5c0.2,0.1,0.4,0.4,0.4,0.7c0,0.4-0.1,0.5-0.4,0.5S92.8,47.3,92.8,46.7z"/>
		<path class="st3" d="M9.7,44.6c0-0.4,0.1-0.6,0.4-0.8c0.3-0.1,0.4-0.1,0.4,0.2c0,0.6-0.2,1.1-0.4,1.1C9.8,45.3,9.7,45,9.7,44.6z"
			/>
		<path class="st3" d="M32.7,37.7c0-0.3,0.5-0.4,1.3-0.4c0.4,0,0.6,0.1,0.6,0.4c0,0.3-0.1,0.4-0.9,0.4S32.7,37.9,32.7,37.7z"/>
		<path class="st3" d="M66.2,37.6c0-0.3,0.1-0.4,0.6-0.4c0.8,0,1.4,0.1,1.4,0.4c0,0.1-0.3,0.2-1,0.2C66.3,38,66.2,37.9,66.2,37.6z"
			/>
		<path class="st3" d="M35,37.6c0-0.3,0.5-0.4,1.4-0.4c0.5,0,0.6,0.1,0.6,0.4c0,0.3-0.1,0.4-1,0.4C35.3,37.8,35,37.7,35,37.6z"/>
		<path class="st3" d="M63.7,37.5c0-0.3,0.1-0.4,0.6-0.4c0.8,0,1.4,0.1,1.4,0.4c0,0.1-0.3,0.2-1,0.2C63.8,37.8,63.7,37.8,63.7,37.5z
			"/>
		<path class="st3" d="M37.9,37.4c0-0.3,0.5-0.4,1.6-0.4c0.7,0,0.8,0.1,0.8,0.4c0,0.3-0.1,0.4-1.2,0.4
			C38.2,37.6,37.9,37.6,37.9,37.4z"/>
		<path class="st3" d="M60.4,37.3c0-0.3,0.1-0.4,0.8-0.4c1.1,0,1.6,0.1,1.6,0.4c0,0.2-0.3,0.2-1.2,0.2
			C60.6,37.6,60.4,37.6,60.4,37.3z"/>
		<path class="st3" d="M41.8,37.2c0-0.4,0.6-0.4,2-0.4c1.1,0,1.2,0,1.2,0.4s-0.1,0.4-1.6,0.4C42.1,37.5,41.8,37.4,41.8,37.2z"/>
		<path class="st3" d="M55.7,37.1c0-0.3,0.1-0.4,1.2-0.4c1.4,0,2,0.1,2,0.4c0,0.2-0.4,0.2-1.6,0.2C55.9,37.5,55.7,37.4,55.7,37.1z"
			/>
	</g>
	<g>
		<path class="st4" d="M48,70.8c-2.5-0.5-5.6-2.5-6.2-4c-0.4-0.8-0.4-2.1,0-2.6c0.1-0.2,0.7-0.5,1.2-0.6c0.8-0.3,1.8-0.3,7.6-0.3
			c7.2,0,8.3,0.1,9,0.8c0.5,0.5,0.6,1.7,0.1,2.7c-0.7,1.6-3.7,3.5-6.3,4C51.9,71.1,49.7,71.1,48,70.8L48,70.8z"/>
		<path class="st4" d="M33.5,56.3c-1.1-0.7-1.3-1.2-1.3-2.8c0-1.2,0-1.5,0.4-2c1.1-1.8,4.5-2,5.7-0.2c0.4,0.5,0.4,0.8,0.4,2
			c0.1,1.3,0,1.5-0.4,2c-0.7,1.1-1.3,1.3-2.9,1.3C34.3,56.7,33.9,56.6,33.5,56.3L33.5,56.3z"/>
		<path class="st4" d="M62.7,55.5c-0.4-0.2-0.8-0.7-1.1-1.1c-0.4-0.6-0.4-0.8-0.4-2c0.1-1.2,0.1-1.4,0.6-2c0.6-0.8,1.3-1.1,2.8-1.1
			c1.4,0,2.1,0.4,2.8,1.3c0.4,0.5,0.4,0.8,0.4,2s-0.1,1.5-0.4,2c-0.7,1.1-1.2,1.3-2.8,1.3C63.6,55.8,63.3,55.8,62.7,55.5L62.7,55.5z
			"/>
	</g>
	<g>
		<path class="st5" d="M46.3,75.7c-6.4-0.4-12.8-1.9-17.6-4.2c-2.8-1.4-4.7-2.6-6.5-4.3c-3.4-3.2-5-6.9-5.3-12
			c-0.4-6.7,3.2-12.9,9.3-15.9c3-1.5,5.4-1.8,15.6-2.3C52.3,36.5,67.4,37,71,38c1.8,0.4,4.2,1.6,5.6,2.6c2.4,1.7,4.8,4.8,5.9,7.6
			c1.8,4.5,1.3,10.8-1.1,15.1c-2.3,4.3-7,7.6-13.5,9.8C62.1,75,53.7,76,46.3,75.7L46.3,75.7z M53.1,70.3c3-0.6,6.1-2.9,6.4-4.6
			c0.1-0.8-0.3-1.3-1.4-1.7c-0.8-0.3-1.7-0.3-7-0.3c-6.6,0-7.6,0.1-8.5,0.6c-2,1.4,1.5,5,5.9,5.9C49.9,70.6,51.7,70.6,53.1,70.3
			L53.1,70.3z M36.7,55.9c0.8-0.4,1.3-1.2,1.4-2.3c0.1-0.8,0-1.1-0.4-1.6c-0.6-0.8-1.2-1.2-2.1-1.3c-1.6-0.1-2.9,0.9-3,2.5
			c-0.1,1,0.1,1.6,0.9,2.3C34.4,56.3,35.5,56.5,36.7,55.9L36.7,55.9z M65.8,55.1c1.6-0.8,2-2.8,1.1-4.2c-0.7-1.1-2.8-1.4-3.8-0.7
			c-1,0.6-1.3,1.2-1.3,2.4c0,0.8,0.1,1.1,0.4,1.6c0.3,0.4,0.7,0.7,1,0.8C64,55.4,65.2,55.4,65.8,55.1z"/>
		<path class="st5" d="M85.3,71c0,0,0.2-0.6,0.5-1.2c1.9-4.2,3.6-10.9,4.1-16c0.2-2.1,0.1-8.3-0.1-9.5l-0.1-0.6l0.6,0.4
			c0.5,0.3,1.8,1.2,2.8,2l0.5,0.4v2.9c0,5.6-0.8,10.5-2.8,16.6l-0.8,2.8l-0.9,0.6C87,70.3,85.3,71.2,85.3,71L85.3,71z"/>
		<path class="st5" d="M12.3,69.9c-1.1-0.6-2-1.1-2.1-1.3c-0.5-0.5-1.6-4.2-2.3-8C7,56.5,6.8,53.9,6.7,49.9v-3.5L8.5,45
			c1-0.7,1.8-1.3,1.8-1.3s0,0.8-0.1,1.8c-0.4,3.5,0.1,9.7,0.9,14c0.7,3.6,2.3,9.1,3.1,10.7C14.6,71.2,14.6,71.1,12.3,69.9L12.3,69.9
			z"/>
		<path class="st5" d="M92.9,66c0.3-0.8,1.5-5.6,1.8-7.3c0.5-2.8,0.8-6.1,0.8-7.8c0-2,0.1-2.2,1-0.9c1.9,3,2.5,5.7,1.7,8.7
			c-0.6,2.3-2.2,4.8-4.3,6.8C93,66.4,92.8,66.5,92.9,66z"/>
		<path class="st5" d="M5.8,65.2c-2-2-3.5-4.3-4-6.4c-0.4-1.3-0.4-3.5-0.1-4.7c0.3-1.1,1.3-3.4,2-4.4l0.6-0.8l0.1,2.5
			c0.2,4.2,0.9,9.1,2,13.4c0.2,0.8,0.4,1.6,0.4,1.6S6.3,65.7,5.8,65.2L5.8,65.2z"/>
	</g>
	<g>
		<path class="st6" d="M49.2,21.9c0-2.2,0-2.3,1.1-2.6c0.5-0.1,0.9-0.4,1-0.4c0.1-0.1-1-0.4-2.3-0.8s-2.5-0.8-2.6-0.8
			c-0.1-0.1,0.5-0.5,1.4-1l1.6-0.8l0.1-2c0.1-2,0.1-2,0.4-2l0.4-0.1l-0.1,2.3L50.1,16l-0.9,0.5c-0.5,0.3-0.8,0.5-0.8,0.6
			c0,0.1,1.4,0.5,3,1s2.9,0.9,2.8,0.9c-0.1,0-1,0.3-2.1,0.6l-2,0.6L50,21.8c-0.1,1.6-0.1,1.6-0.4,1.6C49.2,23.5,49.2,23.5,49.2,21.9
			z"/>
		<path class="st6" d="M49,10.8c-1.3-0.6-1.5-2.3-0.5-3.2c0.8-0.8,2.1-0.8,2.9,0.2c0.8,1.1,0.4,2.6-0.8,3.1
			C49.9,11.3,49.7,11.3,49,10.8L49,10.8z"/>
	</g>
</g>
</svg>
