<?xml version="1.0" encoding="utf-8"?>
<!-- Generator: Adobe Illustrator 21.0.2, SVG Export Plug-In . SVG Version: 6.00 Build 0)  -->
<svg version="1.1" xmlns="http://www.w3.org/2000/svg" xmlns:xlink="http://www.w3.org/1999/xlink" x="0px" y="0px"
	 viewBox="0 0 603 620" style="enable-background:new 0 0 603 620;" xml:space="preserve">
<style type="text/css">
	.st0{fill:#9E174C;}
	.st1{fill:#F2F0E0;}
</style>
<g id="_x31_">
</g>
<g id="Layer_3">
</g>
<g id="_x32_">
	<rect x="100.9" y="0.4" class="st0" width="269.8" height="49.2"/>
	<rect x="153.9" y="46" class="st0" width="161.1" height="51.7"/>
	<path class="st0" d="M385,488.9c10.8,3.3,19.6,10.6,24.9,20.6c5.3,10,6.4,21.4,3.1,32.2c-5.5,17.9-21.7,29.9-40.3,29.9
		c-4.2,0-8.3-0.6-12.4-1.9l-142.8-43.7c-4.7-1.4-9-3.6-12.9-6.5l-12.5-9.3l15.6,0.3c9.5,0.2,18.9-3.1,26.2-9.1
		c13.6-11.2,18.3-30.3,11.5-46.5l-4.2-9.9L385,488.9z M363.2,560.1c3.1,0.9,6.3,1.4,9.4,1.4c14.2,0,26.6-9.2,30.8-22.8
		c2.5-8.2,1.7-16.9-2.4-24.5c-4-7.6-10.8-13.2-19-15.7l-124.6-38.1c3.6,17.8-2.9,36.8-17.2,48.6c-4.6,3.8-9.9,6.8-15.6,8.7
		L363.2,560.1z"/>
	<polygon class="st0" points="407.4,499.4 462.5,465.5 545,506.5 465.8,487.9 452.5,517.5 455.3,547.3 473.5,569 544.3,539.4 
		473,594.4 407.5,564.1 	"/>
	<circle class="st0" cx="381.3" cy="531.5" r="41.8"/>
	<path class="st0" d="M65.6,293.2c-18.4,16.8-19.8,45.3-3,63.7c0.4,0.5,0.9,0.9,1.3,1.3l113.5,137.7c7.7,9.3,19,14.6,31.1,14.6
		c9.3,0,18.4-3.3,25.6-9.2c8.3-6.8,13.4-16.5,14.5-27.2c1-10.7-2.2-21.2-9-29.4L151,337.4l7.2-6.6L247,438.6
		c8.5,10.3,12.5,23.3,11.2,36.6c-1.3,13.3-7.7,25.3-18,33.8c-8.9,7.4-20.2,11.4-31.8,11.4c-15,0-29.1-6.6-38.6-18.2L54.7,362.4
		c-8.5-10.3-12.5-23.3-11.2-36.6c1.3-13.3,7.7-25.3,18-33.8c4.4-3.6,9.3-6.4,14.5-8.3L65.6,293.2z"/>
	<path class="st0" d="M266.8,171c18.5,20.4,17.1,52-3.3,70.6L129.6,363.5c-9.2,8.4-21.2,13-33.6,13c-14,0-27.5-6-37-16.3
		c-18.5-20.4-17.1-52,3.3-70.6l133.9-121.9c9.2-8.4,21.2-13,33.6-13C243.9,154.7,257.3,160.7,266.8,171z M123,356.3l133.9-121.9
		c16.4-14.9,17.6-40.4,2.7-56.8c-7.6-8.4-18.5-13.1-29.8-13.1c-10,0-19.6,3.7-27.1,10.5L68.9,296.8c-16.4,14.9-17.6,40.4-2.7,56.8
		c7.6,8.4,18.5,13.1,29.8,13.1C106,366.8,115.6,363.1,123,356.3z"/>
	<circle class="st0" cx="232.8" cy="202.4" r="47.9"/>
	<g>
		
			<ellipse transform="matrix(0.7717 -0.636 0.636 0.7717 -184.2759 135.7317)" class="st0" cx="96.9" cy="324.5" rx="10.5" ry="10.5"/>
		<path class="st0" d="M119,309.8c-0.5-0.7-1-1.5-1.6-2.2c-9.3-11.3-26-12.9-37.3-3.6c-11.3,9.3-12.9,26-3.6,37.3
			c9.3,11.3,26,12.9,37.3,3.6C124.3,336.3,126.6,321.2,119,309.8z M109.6,339.9c-8.5,7-21,5.8-28-2.7c-7-8.5-5.8-21,2.7-28
			c8.5-7,21-5.8,28,2.7C119.2,320.3,118,332.9,109.6,339.9z"/>
	</g>
	<g>
		
			<ellipse transform="matrix(0.7717 -0.636 0.636 0.7717 -250.6638 238.1895)" class="st0" cx="206.4" cy="468.2" rx="10.5" ry="10.5"/>
		<path class="st0" d="M228.5,453.5c-0.5-0.7-1-1.5-1.6-2.2c-9.3-11.3-26-12.9-37.3-3.6c-11.3,9.3-12.9,26-3.6,37.3
			c9.3,11.3,26,12.9,37.3,3.6C233.8,480,236.1,464.9,228.5,453.5z M219.1,483.6c-8.5,7-21,5.8-28-2.7c-7-8.5-5.8-21,2.7-28
			c8.5-7,21-5.8,28,2.7C228.7,464,227.5,476.6,219.1,483.6z"/>
	</g>
	<g>
		
			<ellipse transform="matrix(0.7717 -0.636 0.636 0.7717 -78.1261 197.3389)" class="st0" cx="235.8" cy="207.5" rx="11.6" ry="11.6"/>
		<path class="st0" d="M260.1,191.3c-0.5-0.8-1.1-1.6-1.8-2.4c-10.2-12.4-28.7-14.2-41.1-4c-12.4,10.2-14.2,28.7-4,41.1
			c10.2,12.4,28.7,14.2,41.1,4C266,220.4,268.4,203.8,260.1,191.3z M249.7,224.4c-9.3,7.7-23.1,6.3-30.8-3c-7.7-9.3-6.3-23.1,3-30.8
			c9.3-7.7,23.2-6.4,30.8,3C260.4,202.9,259.1,216.7,249.7,224.4z"/>
	</g>
	<path class="st0" d="M280.6,204.6c-2.1,24.5-22.7,43.8-47.7,43.8s-45.6-19.3-47.7-43.8h-0.2V67.7h95.9v136.9H280.6z"/>
	<g>
		
			<ellipse transform="matrix(0.7717 -0.636 0.636 0.7717 -75.5529 194.2845)" class="st0" cx="232.8" cy="202.4" rx="10.4" ry="10.4"/>
		<path class="st0" d="M254.7,187.8c-0.5-0.7-1-1.5-1.6-2.2c-9.2-11.2-25.9-12.8-37.1-3.6c-11.2,9.2-12.8,25.9-3.6,37.1
			c9.2,11.2,25.9,12.8,37.1,3.6C260,214.1,262.3,199.1,254.7,187.8z M245.4,217.6c-8.4,6.9-20.9,5.7-27.8-2.7
			c-6.9-8.4-5.7-20.9,2.7-27.8c8.4-6.9,20.9-5.7,27.8,2.7C255,198.2,253.8,210.7,245.4,217.6z"/>
	</g>
	<g>
		
			<ellipse transform="matrix(0.7716 -0.6361 0.6361 0.7716 -252.3397 364.3768)" class="st1" cx="381.3" cy="533.6" rx="7.7" ry="7.7"/>
		<path class="st1" d="M397.4,522.9c-0.4-0.5-0.8-1.1-1.2-1.6c-6.8-8.2-19-9.4-27.3-2.6c-8.3,6.8-9.4,19-2.6,27.3
			c6.8,8.3,19,9.4,27.3,2.6C401.3,542.2,403,531.2,397.4,522.9z M390.5,544.8c-6.2,5.1-15.4,4.2-20.5-2c-5.1-6.2-4.2-15.4,2-20.5
			c6.2-5.1,15.4-4.2,20.5,2C397.6,530.6,396.7,539.7,390.5,544.8z"/>
	</g>
</g>
</svg>
