<?xml version="1.0" encoding="utf-8"?>
<!-- Generator: Adobe Illustrator 21.0.2, SVG Export Plug-In . SVG Version: 6.00 Build 0)  -->
<svg version="1.1" id="Layer_1" xmlns="http://www.w3.org/2000/svg" xmlns:xlink="http://www.w3.org/1999/xlink" x="0px" y="0px"
	 viewBox="0 0 641.5 1253.7" style="enable-background:new 0 0 641.5 1253.7;" xml:space="preserve">
<style type="text/css">
	.st0{opacity:0.1;fill:#021A1E;enable-background:new    ;}
	.st1{fill:#C1DAE7;}
	.st2{fill:#A0BEDC;}
	.st3{fill:#84A6C2;}
	.st4{fill:#468FBF;}
	.st5{fill:#0D363F;}
	.st6{fill:#5B8294;}
	.st7{fill:#77103A;}
	.st8{fill:#2DC66F;}
	.st9{fill:#9E174C;}
	.st10{fill:#03262F;}
	.st11{fill:none;}
</style>
<ellipse class="st0" cx="293" cy="1106.7" rx="251" ry="74"/>
<g>
	<path class="st1" d="M145.3,1101.8c-10.8-0.4-19.9-0.9-20.2-1.2c-1-1,9.1-11.5,16.9-17.4c5.5-4.2,7.7-6.6,8.3-8.9
		c0.6-2.5,1.9-3.7,7.2-6.4c9.2-4.6,18-6.2,34.5-6.2c20,0,34,2.5,47.5,8.6c5.6,2.5,6.1,3,8,8.1c4.5,12,5.3,21.5,2.1,23.3
		C247.5,1102.7,182.9,1102.8,145.3,1101.8z"/>
	<path class="st1" d="M343.7,1087c0.3-6.3,1.1-10.5,2.8-14.8c2.2-5.3,3.1-6.3,7.2-8.2c6.8-3.3,20.5-7.1,30.5-8.4
		c11.4-1.5,34.8-0.7,43.3,1.5c9.8,2.6,16.2,6.4,17.4,10.3c0.6,2.3,3,4.8,8.3,8.9c4,3.1,9.9,8.4,12.9,11.8l5.6,6.1l-15.4,0.6
		c-8.4,0.4-37.3,0.7-64.1,0.8l-48.9,0.1L343.7,1087L343.7,1087z"/>
</g>
<g>
	<path class="st2" d="M159.5,1100.7c0-1.6,0.7-2,3.3-2c4.7,0,7.7,1,7.7,2.6c0,1-1.5,1.4-5.5,1.4
		C160.2,1102.7,159.5,1102.5,159.5,1100.7z"/>
	<path class="st2" d="M242.5,1101.4c0-0.7,1.4-1.8,3.1-2.4c2.9-1.1,3.1-1.4,2.4-5.2c-0.6-3.7-0.5-4.1,1.4-4.1c2.3,0,2.5,0.9,1.5,8.4
		c-0.7,4.6-0.7,4.6-4.5,4.6C243.9,1102.7,242.5,1102.2,242.5,1101.4z"/>
	<path class="st2" d="M126.5,1099.7c0-2.1,1-2.4,4.8-1.4c3.6,1,2.7,3.4-1.3,3.4C127.2,1101.7,126.5,1101.3,126.5,1099.7z"/>
	<path class="st2" d="M438.5,1094.3c0-1.4,2.9-2.6,6.8-2.6c1.5,0,2.2,0.6,2.2,2c0,1.7-0.7,2-4.5,2
		C439.8,1095.7,438.5,1095.3,438.5,1094.3z"/>
	<path class="st2" d="M245.8,1085.2c-1.1-3.3-1-3.5,1.3-3.5c2.1,0,2.4,0.5,2.4,3.5c0,2.2-0.5,3.5-1.3,3.5S246.4,1087.1,245.8,1085.2
		z"/>
	<path class="st2" d="M242.8,1077.3c-1.8-3.1-16.5-8.7-27.6-10.6c-3.4-0.6-7.7-1.3-9.4-1.6c-2.1-0.3-3.3-1.1-3.3-2.1
		c0-1.4,1-1.5,6.8-1c8.6,0.7,22,4.1,29.5,7.4c5.3,2.4,5.7,2.8,5.7,5.9C244.5,1079,244.1,1079.5,242.8,1077.3L242.8,1077.3z"/>
	<path class="st2" d="M150.1,1075.3c0.2-0.6,10.5-42.1,22.8-92.3c12.4-50.2,23.5-93.1,24.7-95.5c4.7-9.5,8.6-12.9,16.3-14.3
		c2.1-0.4,4-1.4,4.3-2.1c0.6-1.7,6.2-1.8,13.4-0.3c4,0.9,6.4,2.2,10.2,5.7c7.4,7,7.5,7.5,6.6,24.7c-1.4,26.3-9.7,66.3-19.9,96
		c-4.6,13.4-7.7,20.6-14.9,34.5c-4.1,8-5.3,9.6-7.5,9.8c-2.2,0.3-2.6,0.8-2.6,3.6c0,3.4-1.8,6.4-7.4,12.4l-3,3.2h4.2
		c3.5,0,4.2,0.3,4.2,2c0,1.9-0.7,2-10.2,2c-13.6,0-22.5,2-33,7.3C153.6,1074.4,149.9,1075.9,150.1,1075.3L150.1,1075.3z"/>
	<path class="st2" d="M438.1,1065.7c-7.7-4.3-15.6-6.6-26.1-7.6c-7.8-0.7-9.5-1.9-16.6-11c-2.6-3.5-3.9-6.1-3.9-8.2
		c0-2.7-0.4-3.2-2.3-3.2c-2,0-3.3-1.7-7.5-9.3c-2.9-5.1-5.2-10.3-5.2-11.5s-0.4-2.2-0.9-2.2c-1.1,0-6.2-11.9-10.3-24
		c-10.3-30.4-20.8-83.3-19.3-96.9c0.4-3.6,0.9-9,1-12c0.3-4.5,0.8-5.9,3.7-8.8c5.2-5.5,10.1-7.5,19.5-8.1c7.2-0.4,8.3-0.3,8.3,1.1
		c0,1.1,1.5,2,4.6,2.8c5.3,1.4,10.3,5.8,13.6,12.2c1.7,3.3,49.2,189.7,48.5,190.3C445.1,1069.4,441.9,1067.8,438.1,1065.7
		L438.1,1065.7z"/>
	<path class="st2" d="M354.5,1065.2c0-1.9,1-2.7,5.5-4.4c6.8-2.5,23.9-6.1,29.4-6.1c5.4,0,5.7,2.7,0.4,3.5
		c-10.2,1.5-20.5,4-27.5,6.5l-7.8,2.9V1065.2L354.5,1065.2z"/>
	<path class="st2" d="M105.9,823.9c0.3-0.5-1.5-7-3.9-14.6c-9.2-28.5-17.3-60.6-20-79.8c-2.9-20.4-1.5-30.5,5.2-37
		c4.2-4.1,10.7-7.3,16.6-8.2c2-0.3,5.3-0.8,7.2-1.1c2.2-0.4,3.5-1.1,3.5-2.1c0-1.2,1.3-1.4,7.8-0.9c15.6,1.3,25.7,4.1,24.6,7
		c-0.4,1,0.6,2.8,3,5.1c3.2,3.1,3.6,4.1,3.6,8.5c0,10.5-5.6,52.9-13.7,103.7c-2.3,15-2.5,17.5-1.3,18.3c2.7,1.6-2.7,1-9-1.1
		c-6.4-2.2-10.1-1.9-16.2,1.1C109.5,824.7,105,825.4,105.9,823.9L105.9,823.9z"/>
	<path class="st2" d="M259,812c-9.3-1.9-21-7.6-31.8-15.4c-9.2-6.6-12.3-10.2-17.6-20.6c-1.7-3.5-3.6-6.3-4.1-6.3c-0.6,0-1-0.4-1-1
		c0-0.7,22.7-1,66-1h66v3.9c0,3.6-0.7,4.5-10.3,13.7C301,809.5,282.2,817,259,812L259,812z"/>
	<path class="st2" d="M283.5,745.1c-23.6-1.3-59.5-5.6-63.2-7.5c-2.2-1.2-2.3-3.9-0.2-3.9c1,0-0.3-2.1-3.8-5.9
		c-10.4-11.6-29.7-46.3-42.4-76.4c-3.2-7.6-6-13.4-6.2-12.8c-0.2,0.6-1,1.1-1.7,1.1c-1.5,0-9.4-23-11.6-33.6c-1.1-5.3-1-6.4,0.3-8.3
		c1.8-2.5,1.3-6.1-0.8-6.1c-0.8,0-1.4-0.6-1.4-1.2c0-0.8,4.3-2.3,10.8-3.9c27.3-6.7,52.9-22.6,61-37.7c1.8-3.3,3.2-6.6,3.2-7.3
		c0-0.8-1.1,0.9-2.4,3.6c-6.6,13.9-25.2,27.2-50.4,35.9c-15.4,5.3-25.3,6.9-41.1,6.4l-13.4-0.4l-3.9-4.4c-5.3-6.1-6-8.2-4.7-13.6
		c1.8-7.1,8.3-16.1,19.8-27.5c22.8-22.5,52.3-37.5,69.9-35.5c5.2,0.6,12.4,3.5,13.7,5.5c0.3,0.6,2.4,0.2,5.1-0.9
		c8.6-3.7,22.8-6.9,33.7-7.6c8-0.5,10.7-1,10.7-2c0-0.8,0.7-1.4,1.5-1.4c1.2,0,1.5,1.3,1.5,5.5c0,3.7-0.4,5.5-1.2,5.5
		c-2.7,0-13.8,6-17.6,9.4c-7.7,7-7.7,12.2-0.1,19.1c22.7,20.5,82.4,17.2,95.6-5.2l2.4-4.2l-2-3.9c-3.1-6.2-10.7-11.5-21.5-15.2
		c-4.9-1.6-5.1-1.8-5.4-5.8c-0.3-3.7,1.1-5.9,2-3.2c0.2,0.5,7.3,1.8,15.8,2.9c22.3,2.9,25.6,3.7,34.6,8.2l8.2,4l3.7-2.6
		c13-8.8,34.2-4.3,59.3,12.5c23.2,15.5,43.2,38.4,43.2,49.5c0,2-1.4,4.9-3.7,8.2c-3.3,4.5-4.5,5.3-8.6,6.2
		c-2.6,0.6-8.8,1.1-13.6,1.1c-33.3,0-75.1-19.4-87.2-40.5c-3.4-5.8-3.9-5.3-0.8,0.7c2.8,5.6,12,15.1,19.3,20
		c7.7,5.3,24,13,34.9,16.5l8.7,2.8v5c0,2.7-0.9,10-2.1,16.2c-1.9,10-2.3,11.2-4.1,11c-1.7-0.2-2.4,1.4-5.5,11.8
		c-7.6,26.4-21.1,57.2-32.8,75.1c-3.2,4.9-8.9,12.2-12.8,16.2c-4.5,4.6-6.4,7.2-5.4,7.2c3.3,0,1.6,2.7-3.4,5.5
		c-4.3,2.3-7.2,2.9-19,4C334.1,744.6,294.9,745.7,283.5,745.1L283.5,745.1z M361.9,719.7c4.9-5.8,4.4-13.7-1.6-29
		c-8.2-20.8-27-47-33.7-47c-3,0-6.5,5.5-9.6,15c-3.4,10.5-6.5,16.8-9.8,19.9c-3,2.7-9.8,3.8-13.9,2.2c-3.9-1.5-6.8-6.7-6.8-12.1
		c0-4.2,0.4-5,5.1-9.5c10.4-10.3,12.2-17,5.3-20.2c-3.1-1.5-4.5-1.6-14.2-0.4c-5.9,0.7-15.4,1.6-21.1,1.8
		c-12.3,0.6-13.1,0.1-13.1-8.2c0-7.7,3.3-11.4,23.2-26.4c18-13.6,22.8-18.7,22.8-24.3c0-1.7-1-3.9-2.5-5.4c-2.3-2.3-2.7-2.4-5.2-1
		c-3.3,1.7-22.6,21.2-30.6,30.7c-11.9,14.4-21.7,31.3-21.7,37.6c0,6.5,7.9,12.3,16.8,12.3c2.9,0,3.2,0.3,3.2,3
		c0,1.7-0.9,6.8-2.1,11.3l-2,8.2l-6.8,4.2c-11.5,7.1-21.1,18.2-21.1,24.2c0,1.2,1.3,3.5,2.8,5.3c7.6,8.4,18.6-0.8,24.3-20.3l2.2-7.6
		l11.5-6.1c8-4.3,12.7-6.2,15.1-6.2c3.5,0,3.6,0.1,5.3,5.8c4.6,15.8,13,19.2,23.6,9.7c6.4-5.8,11.9-14,14.7-22.2
		c1.3-3.6,2.7-6.9,3.3-7.5c0.5-0.5,2.9-0.8,5.3-0.6c4.3,0.3,4.5,0.4,7.6,6.8c2,4,4.9,13.7,7.8,26c5.6,23.4,7.3,28.9,9.3,31.3
		C357.4,723.4,359,723.1,361.9,719.7L361.9,719.7z M425,541.6c4.2-1.7,6.6-4.7,5.9-7.3c-1.8-7.1-16.4-17.6-26.8-19.1
		c-8.3-1.3-16.5,3.6-15.2,9c1,3.7,7.7,10.7,13.4,13.8C411.4,542.9,418.8,544.1,425,541.6L425,541.6z M187.9,536.7
		c9-3.4,17.2-10.5,19-16.6c0.9-2.8-3.4-7.1-8.5-8.4c-6.8-1.9-19.1,2.5-27,9.7c-5.6,5-9.7,13.3-6.6,13.3c0.8,0,2,0.7,2.7,1.5
		C170.7,540,178.5,540.2,187.9,536.7z"/>
	<path class="st2" d="M225.5,706.3c0-4.1,0.4-4.8,4.8-8.5c3.4-3,5.6-4.1,8-4.1c3,0,3.2,0.2,3.2,3.4c0,2.1-1.2,5.1-3.2,8.2
		c-3.1,4.6-3.6,4.9-8,5.2l-4.8,0.3V706.3L225.5,706.3z"/>
	<path class="st2" d="M256.5,668.5c0-1.8,1.3-5.5,2.8-8.3l2.7-5l5.8-0.3c6.9-0.4,8.7,0.8,8.7,5.4c0,3-0.6,3.6-6.8,7.4
		c-4.1,2.4-8.1,4-10,4C256.8,671.7,256.5,671.4,256.5,668.5L256.5,668.5z"/>
	<path class="st2" d="M278.2,654c-0.4-0.3-0.7-2.1-0.7-4c0-3.3,0.1-3.3,4.5-3.3h4.5v4c0,4,0,4-3.8,4
		C280.6,654.7,278.5,654.4,278.2,654z"/>
	<path class="st2" d="M517.8,628.7c-2.4-1.1-4.3-2.6-4.3-3.5s-0.9-1.5-2.4-1.5c-2.8,0-13.9-8-16.4-11.8c-1.5-2.3-1.5-2.6,0-3.5
		c1.4-0.9,1.3-1.5-1-5c-1.4-2.1-2.6-5.3-2.6-7.1c0-5.4,14.8-27.4,51.6-76.8c11-14.7,19.7-27.2,19.3-27.8c-1.2-2,2.8-1,5.9,1.5
		c1.7,1.4,3.6,2.9,4.2,3.4c1.5,1.2,11,2.5,16.3,2.2c3.8-0.2,4.3-0.1,3.3,1.2c-0.6,0.7-0.9,1.6-0.6,2c1.3,1.2-8.5,50.9-14.2,71.9
		c-12.5,46.4-22.5,59.4-42.5,55.8c-4.1-0.8-6.5-0.8-7.8,0C524,631,522.8,630.9,517.8,628.7L517.8,628.7z"/>
	<path class="st2" d="M335,461.2c-10.4-1.3-26.4-2.9-35.5-3.6c-20.4-1.6-71-1.5-88.5,0c-35,3.1-51.8,2.5-67.9-2.6
		c-12.1-3.8-18.8-7.5-24.1-13.5c-7-7.9-19.3-26.8-25.8-39.5c-4.1-8-6.6-11.7-8.5-12.7c-6.1-3.2-18.4-46.4-23.9-84.1
		c-1.3-9.3-1.7-19-1.8-43.2c0-30.7,0-31.3,2.1-32.7c1.5-1.1,2.3-3.1,2.8-6.8c5.5-42.2,45.4-80.2,101-96.3
		c28.6-8.2,87.3-16.5,117.4-16.5c9.5,0,10.2-0.1,10.2-2c0-1.5,0.7-2,2.5-2c1.5,0,2.5,0.6,2.5,1.4c0,1.1,3.6,1.5,17.8,2
		c36.4,1.4,64.5,4.3,93.7,9.7c32.3,6,56.5,16.8,79.2,35.1c4.9,4,7.3,6.9,9.8,11.8c4.4,8.8,8.2,21.1,10.7,35
		c2.8,15.6,3,53.1,0.4,72.5c-12.6,93.6-58.9,168.2-115.3,185.9C377.3,464.2,364.2,464.7,335,461.2L335,461.2z M327.5,414.6
		c69.8-6.3,120-26.8,146.2-59.7c11.5-14.5,18.3-32.4,21-54.9c1-8.8,0.9-11.6-0.6-21c-3.6-22.3-12.2-38.8-28.6-55.3
		c-13.9-13.9-27.4-21.8-45.5-26.5c-12.4-3.2-36.6-5-88.3-6.5c-42.9-1.2-111.1,0.8-138.9,4.1c-33.7,4-63,24.5-78.3,54.9
		c-8.4,16.6-11.8,34.2-9.9,50.4c3.2,27.5,11.8,45.8,30,63.8c18.7,18.5,48.1,33.5,82.3,42.3c14.8,3.8,33.5,7.1,47.6,8.4
		C278.2,415.8,314.1,415.9,327.5,414.6L327.5,414.6z"/>
	<path class="st2" d="M530.5,375.9c0-1,1.4-5.8,3-10.8c12-35,17.8-66.2,18.7-100.1c0.3-11.7,0.9-21.3,1.3-21.3c0.4,0,4.5,3.9,9,8.7
		l8.3,8.7l-0.7,13.1c-1.3,24.9-4.3,45-10.3,70c-3.6,14.7-3.8,15-8.1,19c-4.7,4.3-19,14.5-20.4,14.5
		C530.9,377.7,530.5,376.9,530.5,375.9L530.5,375.9z"/>
	<path class="st2" d="M55.6,372.5c-3.6-2.4-9-6.6-12.1-9.5l-5.7-5.2l-3.2-14.3c-5.5-24.8-8.7-49.4-9.3-71.9
		c-0.3-9.2-0.2-9.8,2.6-13.8c1.6-2.3,5.5-6.5,8.5-9.3l5.6-5.1l0.7,18.4c1.4,36.9,7.1,70.9,16.9,101.7c1.7,5.1,2.9,10.2,2.7,11.3
		C62,376.7,61.4,376.5,55.6,372.5z"/>
</g>
<g>
	<path class="st3" d="M149.5,1100.7c0-1.8,0.7-2,5.8-2c7.1,0,10.2,0.8,10.2,2.6c0,1.1-1.9,1.4-8,1.4
		C150.2,1102.7,149.5,1102.5,149.5,1100.7z"/>
	<path class="st3" d="M124.5,1100.8c0-1.8,2.9-3.2,5.4-2.5c4.2,1,3.2,3.4-1.4,3.4C126.3,1101.7,124.5,1101.3,124.5,1100.8z"/>
	<path class="st3" d="M244.5,1100.7c0-0.5,0.7-1,1.5-1c3.4,0,2.8-7.5-1.7-18.8c-1.8-4.6-2.8-5.7-6.9-7.8
		c-10.9-5.5-38.9-10.5-49.8-8.9l-4.5,0.7l8.2-8.7c4.5-4.7,8.4-9.6,8.7-10.8c0.2-1.2,1.3-13.7,2.5-27.7c1.1-14,2.3-27.9,2.6-30.7
		l0.6-5.3h-16.2c-14.8,0-16.1-0.1-15.8-1.7c0.3-1.6,2.1-1.9,16.3-2.3l16-0.5l4.2-48.5c2.3-26.7,4.2-50.2,4.2-52.2
		c0.1-2.7,0.5-3.8,1.6-3.8c0.9,0,1.8-0.7,2.1-1.5c0.4-0.8,1.2-1.5,2-1.5s1.4,0.7,1.4,1.5s-0.6,1.5-1.4,1.5c-0.9,0-1.6,1.6-2,4.3
		c-1,7.8-11.9,137.8-11.5,138.1c0.2,0.2,2.6,0.6,5.2,0.9l4.8,0.7l2.5-5.7c10.6-23.8,21-65.8,26.3-105.8c1.8-13.5,1.8-14.1,0.1-17.5
		c-1-2-4-5.6-6.8-8.2c-3.9-3.7-6-4.8-10.5-5.8c-6.2-1.2-8.1-4-2.8-4c5.7,0,9.1,1.2,9.1,3.1c0,1.5,0.7,1.9,3.3,1.9
		c3.6,0,7.7,3.3,7.7,6.3c0,0.9,0.7,1.7,1.5,1.7c1.8,0,2.9,4,2,7c-0.8,2.5,1.3,166.7,2.4,183.8c0.3,6.1,0.3,11.2,0,11.2
		c-0.4,0-0.4,3.8-0.1,8.5l0.5,8.5h-3.7C246.1,1101.7,244.5,1101.3,244.5,1100.7L244.5,1100.7z M210.9,1028.6l4.6-8.6l-4.7-0.6
		c-2.7-0.3-4.9-0.4-4.9-0.4c-0.1,0.1-0.5,4.7-0.9,10.2c-0.5,6.7-0.4,9.7,0.3,9C205.8,1037.7,208.4,1033.3,210.9,1028.6z"/>
	<path class="st3" d="M441.5,1094.3c0-1.7,3.1-2.6,9.3-2.6c4,0,4.7,0.3,4.7,2c0,1.8-0.7,2-7,2
		C443.2,1095.7,441.5,1095.4,441.5,1094.3z"/>
	<path class="st3" d="M342.5,1089.5c0-2.4,0.4-6,0.9-8s0.6-3.8,0.2-4c-0.7-0.4,1.7-182.5,2.6-188.8c0.5-3.8,1-2.1,3,12
		c5.7,39.8,14.8,76.1,25.3,101.3l3.3,7.9l5.1-0.7c2.8-0.4,5.2-0.8,5.3-0.9c0.2-0.1-2.4-31.3-5.7-69.2s-6-69.9-6-71.1
		c0-3.6,2.8-2.8,3.4,1c0.3,1.7,2.1,22.3,4.1,45.7c4.5,54.4,4.2,51.9,6.6,51.3c1.3-0.4,1.9,0,1.9,1.2s-0.6,1.6-2,1.2
		c-1.3-0.3-2,0-2,0.9c0,1.1,3.2,1.4,16.2,1.6c14.6,0.3,16.3,0.5,16.6,2.1s-1,1.7-15.7,1.7c-16,0-16.1,0-16.1,2.3
		c0,1.2,1.2,15.7,2.6,32.2l2.6,30l4,5.2c2.2,2.9,5.9,7,8.2,9.1l4.3,4l-14.6,0.5c-16.5,0.5-30.2,3.5-39.4,8.4
		c-4.6,2.5-5.5,3.5-7.6,8.8c-1.3,3.3-2.6,8.5-2.9,11.7c-0.4,4.8-0.2,5.7,1.4,6.1c1.1,0.3,0.2,0.5-1.8,0.6l-3.8,0.1V1089.5
		L342.5,1089.5z M390,1025c-1.1-13.3-0.9-12.9-6-12.5c-2.5,0.2-4.5,0.7-4.5,1c0,0.9,10.2,19.2,10.7,19.2
		C390.5,1032.7,390.4,1029.2,390,1025z"/>
	<path class="st3" d="M209.7,1011.6c0.2-0.6,0.8-1,1.3-1s1.1,0.4,1.3,1s-0.4,1.1-1.3,1.1S209.5,1012.2,209.7,1011.6z"/>
	<path class="st3" d="M383,1005.7c-0.4-0.6-0.3-1.6,0.3-2.2s1.2-0.6,1.7,0.2c0.4,0.6,0.3,1.6-0.3,2.2S383.5,1006.5,383,1005.7z"/>
	<path class="st3" d="M202.5,974.2c0-0.8,0.7-1.5,1.5-1.5s1.5,0.7,1.5,1.5s-0.7,1.5-1.5,1.5S202.5,975,202.5,974.2z"/>
	<path class="st3" d="M347.2,878.5c-0.6-4-0.5-4,2.6-3.6l2.5,0.3l-2.3,3.3l-2.3,3.3L347.2,878.5z"/>
	<path class="st3" d="M355.5,868.7c0-3,1.5-4,6.1-4c1.6,0,2.9-0.4,2.9-1c0-0.5,1.6-1,3.5-1c4.9,0,4.7,2.7-0.2,3.6
		c-2.1,0.3-5.7,1.7-8,2.9l-4.3,2.4V868.7z"/>
	<path class="st3" d="M282.5,841.1c-6.2-1.6-18.6-7.3-23.1-10.5c-2.5-1.8-3-1.8-3.5-0.5c-0.3,0.9-1.2,1.6-1.9,1.6
		c-1.9,0-14.7-10.5-22.4-18.3c-5.5-5.6-6.3-6.9-5.7-9.1c0.5-2.2-0.5-4.3-6-11.9c-3.6-5-7.5-11-8.6-13.2c-2-3.9-1.9-3.9,4.8,2.7
		c20.4,19.7,45,30.8,62.1,27.8c13.6-2.3,28.2-11.2,45-27.4c5.7-5.4,10.3-10.2,10.3-10.7s-0.9-0.9-2-0.9c-1.3,0-1.8-0.5-1.4-1.5
		c0.5-1.3,4.3-1.5,25.5-1.5c14.4,0,24.9,0.4,24.9,0.9s-0.3,1.1-0.7,1.3c-0.5,0.2-2.1,2.8-3.7,5.8s-4.2,7.4-5.8,9.8
		c-2.3,3.3-2.8,4.9-2.3,7.3c0.6,2.5,0,3.9-3.7,8.6c-6.2,8.1-21.3,23.3-23.1,23.3c-0.9,0-1.7-0.6-1.9-1.4c-0.2-1-2.2,0-6.5,3.2
		C313.4,841.2,298.8,845.4,282.5,841.1L282.5,841.1z"/>
	<path class="st3" d="M105.7,823.6c1.6-2.6,7.1-5.5,12.4-6.3l4.1-0.7l0.6-8.9c0.4-5.4,0.3-10-0.4-11.7c-0.6-1.5-0.9-7-0.8-12.3
		c0.1-5.2-0.2-12.4-0.7-16l-0.9-6.5l-6,0.3c-6.5,0.3-13.8,2-19.7,4.6c-3.6,1.5-3.8,1.5-4.8-0.4s-0.6-2.3,4.2-4.4
		c7.6-3.4,14.9-4.7,21.9-3.9l6.2,0.6l-0.7-3.9c-0.3-2.1-0.9-5.8-1.2-8.1c-0.9-6.2,0.4-17.3,2.1-17.3c1.9,0,2.6,4.6,2.6,15
		c-0.1,4.7,0.1,13.7,0.4,20c2,41.1,2.3,54.5,1.3,55.5c-0.3,0.4-3.8,1.2-7.6,1.7c-5.4,0.9-7.2,1.6-7.5,3c-0.4,1.2-1.4,1.8-3.6,1.8
		C104.7,825.7,104.6,825.6,105.7,823.6L105.7,823.6z"/>
	<path class="st3" d="M130.3,822.4c-2.9-1.1-3.9-4.7-1.4-4.7c2.5,0,7,2.1,8.9,4.1c1.7,1.9,1.7,1.9-1.5,1.8
		C134.5,823.5,131.8,823,130.3,822.4L130.3,822.4z"/>
	<path class="st3" d="M282.5,743.7c0-1.7,0.7-2,4.3-2c5.6,0,8.7,0.9,8.7,2.6c0,1.1-1.6,1.4-6.5,1.4
		C283.2,745.7,282.5,745.5,282.5,743.7z"/>
	<path class="st3" d="M309.5,744.3c0-1.7,3.1-2.6,9.3-2.6c4,0,4.7,0.3,4.7,2c0,1.8-0.7,2-7,2C311.2,745.7,309.5,745.4,309.5,744.3z"
		/>
	<path class="st3" d="M266.5,742.7c0-2.1,2.3-2.6,6.8-1.4c4.1,1.1,2.6,3.4-2.3,3.4C267.2,744.7,266.5,744.4,266.5,742.7z"/>
	<path class="st3" d="M331.5,743.3c0-1.4,2.9-2.6,6.8-2.6c1.5,0,2.2,0.6,2.2,2c0,1.7-0.7,2-4.5,2
		C332.8,744.7,331.5,744.3,331.5,743.3z"/>
	<path class="st3" d="M255.5,741.7c0-2.1,1.6-2.5,5.8-1.4c3.9,1.1,2.7,3.4-1.8,3.4C256.2,743.7,255.5,743.4,255.5,741.7z"/>
	<path class="st3" d="M343.5,742.3c0-0.7,1-1.6,2.3-2c4.1-1.1,5.7-0.7,5.7,1.4c0,1.7-0.7,2-4,2C344.8,743.7,343.5,743.3,343.5,742.3
		z"/>
	<path class="st3" d="M236.3,740.9c-9.2-1.3-10.8-1.8-10.8-3.4c0-2.2-1.3-2.2,15,0.2c7.4,1.1,13.6,2,13.8,2c0.1,0,0.2,0.7,0.2,1.5
		C254.5,743.1,251,743,236.3,740.9z"/>
	<path class="st3" d="M353.5,741.3c0-0.8,1.4-1.7,3.3-2.1c1.7-0.4,5.2-1.8,7.6-3.1c5.3-2.9,7.1-3,7.1-0.4c0,1.1-0.5,2-1.1,2
		s-1.7,0.7-2.5,1.5c-0.9,0.8-2.9,1.5-4.5,1.5s-2.9,0.5-2.9,1c0,0.6-1.6,1-3.5,1C354.6,742.7,353.5,742.2,353.5,741.3L353.5,741.3z"
		/>
	<path class="st3" d="M119,724.5c-0.3-1.8-0.5-7.1-0.4-11.8c0.2-4.7-0.1-10.2-0.5-12.2c-0.5-2-0.5-7.6-0.1-12.4l0.7-8.7l6.7,0.7
		c11,1,13.1,1.6,13.1,3.9c0,1.7-0.4,1.9-3.2,1.3c-1.8-0.4-5.5-1-8.3-1.3l-5-0.5l0.2,10.8c0,6,0.4,13,0.8,15.6c1,6.5-0.3,17.8-2,17.8
		C120.2,727.7,119.3,726.2,119,724.5L119,724.5z"/>
	<path class="st3" d="M353.3,724.8c-2.8-2.2-3.8-5.5-10.3-32.5c-6.1-24.9-10.9-35.6-14.7-31.8c-0.5,0.5-2,3.9-3.3,7.5
		c-4.5,12.9-15.6,25.8-23.8,27.5c-6.2,1.2-11.7-0.1-14.8-3.6c-2.6-2.9-6.9-12.7-6.9-15.7c0-2-1.3-1.9-5.2,0.5
		c-4.3,2.6-4.8,2.5-4.8-0.5c0-2,0.6-2.7,3-3.1c1.7-0.4,3-1,3-1.5s1.6-0.9,3.5-0.9c2.4,0,3.5,0.5,3.5,1.5c0,2.8,4.2,12.6,6.7,15.6
		c3.6,4.2,6.6,5.2,11.4,3.8c2.1-0.7,3.9-1.6,3.9-2.1c0-0.4,1.6-0.8,3.5-0.8c3.3,0,3.5-0.2,3.5-3.5c0-2.2,0.6-3.8,1.5-4.1
		c0.8-0.4,1.5-1.2,1.5-1.8c0-0.7,0.8-2.1,1.8-3.2c1.7-1.8,4.9-9.3,6.9-15.9c0.8-2.5,1.5-3,4.6-3.3c2.8-0.2,3.7,0.1,3.7,1.2
		c0,1.1,0.9,1.6,2.9,1.6c2.5,0,3.1,0.7,5.1,5.3c1.3,2.8,4.1,12.6,6.3,21.7c6.7,27.9,7.8,31.7,9.8,33.9c2.3,2.5,6.9,2.9,6.9,0.6
		c0-3.8,2.6-9.5,4.2-9.5c3.4,0,1.6,7.5-3,12.3C360.6,727.2,356.8,727.5,353.3,724.8L353.3,724.8z"/>
	<path class="st3" d="M225.9,717.8c-5.1-2.2-8.5-10.1-4.4-10.1c1.5,0,2.2,0.8,2.6,2.9c0.5,2.4,1.3,3,4.1,3.6
		c3.9,0.7,9.3-0.2,9.3-1.6c0-0.5,0.9-0.9,2-0.9c1.2,0,2-0.7,2-1.7c0.1-2.2,2.3-5.3,3.9-5.3c0.6,0,1.1-0.9,1.1-2
		c0-2.9,4.3-17.3,5.5-18.6c1.9-2,5.3-3.4,8.4-3.4c4.3,0,3.9,1.3-1.3,4c-4.1,2.2-4.5,2.8-6.5,9.9c-4.4,15.3-10.9,23.1-19.8,23.7
		C230.2,718.5,227,718.3,225.9,717.8L225.9,717.8z"/>
	<path class="st3" d="M226.5,708.4c0-2.3,0.7-3.6,2.3-4.6c1.7-1,1.9-1.1,1,0c-1.7,1.8-1.6,3.9,0.1,3.9c1.5,0,5.3-4.5,7.6-8.9
		c1.2-2.3,1.1-2.3-2.4,0.4l-3.6,2.7v-3.1c0-2.1,0.5-3.1,1.5-3.1c0.9,0,1.8-0.7,2.1-1.5c0.4-0.9,1.9-1.5,4-1.5c3.1,0,3.4,0.3,3.4,2.9
		c0,3.9-0.9,6.1-2.6,6.1c-0.8,0-1.4,1-1.4,2.5c0,1.4-0.4,2.5-1,2.5c-0.5,0-1,0.7-1,1.5c0,1.9-3.1,3.5-6.9,3.5
		C226.8,711.7,226.5,711.4,226.5,708.4L226.5,708.4z"/>
	<path class="st3" d="M364.5,706.4c0-5.1-11.2-32.8-14.7-36.5c-0.7-0.7-1.3-2-1.3-2.8s-0.4-1.4-1-1.4c-0.5,0-1-0.6-1-1.4
		c0-0.8-0.7-1.6-1.5-2c-0.8-0.3-1.5-1.2-1.5-2.1c0-0.8-0.4-1.5-1-1.5c-0.5,0-1-0.8-1-1.9c0-1-0.9-2.1-2-2.4c-1.6-0.4-2-1.3-2-4.4
		l0.1-3.8l3.5,4c11.9,13.4,25.1,39.7,27.1,54c0.5,4.1,0.4,4.5-1.6,4.5C365.1,708.7,364.5,708.1,364.5,706.4L364.5,706.4z"/>
	<path class="st3" d="M219.5,703.2c0-5.6,10-16.9,21.1-23.8c6.7-4.1,6.8-4.2,8.4-10.7c0.9-3.6,1.8-7.3,2.1-8.2
		c0.4-1.5-0.1-1.8-2.8-1.8c-11.1,0-19.1-8.1-17.4-17.6c1.2-6.2,3.3-4.1,4.1,4l0.7,7.4l3.6,0.7c2,0.3,6.3,0.9,9.5,1.2l5.7,0.5v4.4
		c0,5.4-2.9,17.4-4.6,19.2c-0.7,0.6-2.2,1.2-3.3,1.2c-1.2,0-2.1,0.6-2.1,1.5c0,0.8-0.7,1.5-1.5,1.5s-1.5,0.5-1.5,1
		c0,0.6-0.6,1-1.4,1c-0.8,0-1.6,0.7-2,1.5c-0.3,0.8-1.7,1.5-3.1,1.5c-1.7,0-2.5,0.5-2.5,1.8c0,2.3-1.9,4.2-4.2,4.2
		c-1.3,0-1.8,0.8-1.8,2.5c0,1.6-0.6,2.5-1.5,2.5c-1,0-1.5,1-1.5,3c0,2.3-0.4,3-2,3C220.4,704.7,219.5,704,219.5,703.2L219.5,703.2z"
		/>
	<path class="st3" d="M143.3,688.1c-3.8-2-3.5-3.4,0.7-3.4c3.6,0,3.8,0.3,2.7,3.2C146.1,689.4,145.7,689.4,143.3,688.1L143.3,688.1z
		"/>
	<path class="st3" d="M291.2,680.6c-4.2-2.5-7.4-14.8-4.5-17.7c0.7-0.7,2.8-1.2,4.7-1.2h3.5l-2.8,2.9c-2.2,2.3-2.7,3.6-2.2,5.5
		c1.1,4.3,4.9,7.9,8.4,7.9c6.1,0,10.6-6.5,15.8-22.7c4.5-13.8,9.7-18.1,17.3-14.2c1.5,0.8,3.3,2.2,4,3c1.2,1.4,0.9,1.6-1.8,1.6
		c-1.8,0-4-0.4-5-0.9c-2.3-1.3-6.1-0.3-6.1,1.5c0,0.8-0.4,1.4-0.9,1.4c-0.4,0-1.8,3.5-3.1,7.8c-2.6,9.1-6.9,19.2-8.1,19.2
		c-0.5,0-0.9,0.6-0.9,1.4c0,0.8-1.2,2.4-2.6,3.5C303.9,681.9,294.5,682.5,291.2,680.6L291.2,680.6z"/>
	<path class="st3" d="M257.2,671c-2.4-2.3,1.3-13.3,4.5-13.3c1.1,0,1.8-0.7,1.8-2c0-1.7,0.7-2,4.9-2c4.8,0,4.8,0,5.5,3.8
		c0.9,5.5,0.7,8.2-0.5,8.2c-0.6,0-1.7,0.7-2.5,1.5c-0.9,0.8-2.6,1.5-4,1.5c-1.5,0-2.4,0.6-2.4,1.5c0,1-1,1.5-3.3,1.5
		C259.3,671.7,257.5,671.4,257.2,671z M267.3,664.3c5.2-3.2,6.1-4,5.1-5.2c-0.7-0.9-2.5-1.4-4.3-1.2c-2.6,0.3-3.6,1.2-6,5.7
		c-1.6,3-2.5,5.2-2,4.9S263.8,666.3,267.3,664.3z"/>
	<path class="st3" d="M295.5,657.3c0-2.3,0.5-3.9,1.5-4.2c0.8-0.4,1.5-1.2,1.5-2s0.7-1.4,1.5-1.4c1.1,0,1.5-1.1,1.5-3.9
		c0-2.5-0.5-4.1-1.5-4.5c-1.4-0.5-2.2-5.6-0.9-5.6c2.1,0,4.5,2.6,5.5,6c1.1,3.5,0.9,4.4-1.4,9.3c-1.5,2.9-3.8,6.4-5.2,7.7l-2.5,2.3
		V657.3L295.5,657.3z"/>
	<path class="st3" d="M278.5,650.7c0-4.9,0.1-5,2.9-5c4.6,0,6.1,1,6.1,4c0,4.9-0.9,6-5.1,6h-3.9V650.7z"/>
	<path class="st3" d="M253.5,640.2c0-0.9-0.9-1.5-2.5-1.5c-2.2,0-2.5-0.4-2.5-3.5c0-4.4,2.1-4.7,3.7-0.5c1,2.7,1.5,3,5.7,3
		c3.9,0,4.6,0.3,4.6,2s-0.7,2-4.5,2C254.7,641.7,253.5,641.3,253.5,640.2z"/>
	<path class="st3" d="M164.5,638.2c0-1.4-0.4-2.5-0.8-2.5c-0.9,0-7.5-20.2-9.6-29.6c-1.2-5.4-1.2-6.2,0.3-8.1c1.6-2,1.7-1.8,2.9,4.6
		c0.7,3.6,3.4,13,6,20.9c3.1,9.1,4.5,14.7,3.9,15.7C165.9,641.5,164.5,641,164.5,638.2L164.5,638.2z"/>
	<path class="st3" d="M263.5,639.2c0-1.5,1.3-1.8,13.5-3.5c9.4-1.3,9.5-1.3,9.5,0.8c0,1.5-1.5,2-9.7,3
		C264.4,641,263.5,641,263.5,639.2z"/>
	<path class="st3" d="M521.3,630.5c-1.8-0.6-2.8-1.7-2.8-2.9c0-1.4-0.7-1.9-2.5-1.9c-1.4,0-2.5-0.4-2.5-1c0-0.5-1.3-1-3-1
		c-1.6,0-3-0.4-3-1c0-0.5-0.7-1-1.5-1s-1.5-0.6-1.5-1.4c0-0.8-1-1.6-2.2-1.8c-1.8-0.2-2.4-1.1-2.6-3.5c-0.3-2.9-0.7-3.3-3.3-3.3
		c-1.9,0-2.9-0.5-2.9-1.5c0-3.2,2.7-2.4,7.7,2.2c2.9,2.7,6.6,5.6,8.3,6.6l3,1.8l6.1-12.8c3.3-7,16.2-34.4,28.7-60.7
		c14-29.7,22.2-48.1,21.5-48.3c-2.4-0.8-6.1-4.3-6.6-6.3c-0.4-1.6,0-2,1.9-2c1.3,0,2.4,0.4,2.4,0.8s1.5,1.6,3.3,2.7
		c1.7,1,3.5,2.2,3.8,2.7s4.2,1.1,8.7,1.5c5.8,0.4,8.2,1,8.2,1.9c0,1.9-6.1,2.8-11.5,1.6l-4.7-1l-5.5,11.7
		c-14.3,30.3-18.3,39-18.3,39.9c0,2.1,12.9,6.3,27.1,8.9c2,0.4,2.5,1,2.2,2.4c-0.3,1-1.3,1.9-2.2,1.9c-5.3-0.1-18.1-3.3-23.5-5.8
		l-6.3-2.9l-15.1,32.1c-8.3,17.6-15.2,32.7-15.4,33.5c-0.2,0.9,1.6,2.2,5,3.5c2.8,1.2,5.2,2.3,5.2,2.6
		C527.5,630.3,523.8,631.3,521.3,630.5L521.3,630.5z"/>
	<path class="st3" d="M250.5,626.2c0-3.2,0.2-3.5,3-3.5h3l-2.2,3.5C251.4,630.6,250.5,630.6,250.5,626.2z"/>
	<path class="st3" d="M236.9,626.1c1.3-3.4,12.9-19.4,20.3-27.9l7.8-9l0.3,3.3c0.4,4-2,7.2-5.4,7.2c-1.8,0-2.3,0.6-2.6,3.3
		c-0.2,2.4-0.8,3.3-2.5,3.5c-1.7,0.3-2.3,1-2.3,2.8c0,1.5-0.6,2.4-1.5,2.4c-0.8,0-1.5,0.9-1.5,2s-0.4,2-1,2c-0.5,0-1,0.7-1,1.5
		s-0.4,1.5-1,1.5c-0.5,0-1,0.7-1,1.5s-0.4,1.5-1,1.5c-0.5,0-1,0.7-1,1.5s-0.4,1.5-1,1.5c-0.5,0-1,0.7-1,1.5c0,0.9-1,1.5-2.6,1.5
		C236.9,627.7,236.4,627.3,236.9,626.1z"/>
	<path class="st3" d="M427.3,623.3c-2-1.5-1.4-5.6,0.8-5.6c0.9,0,1.4,1.2,1.4,3.5C429.5,625.2,429.6,625.1,427.3,623.3z"/>
	<path class="st3" d="M258.5,617.8c0-2.4,0.4-3.1,2-3.1c1.1,0,2-0.7,2-1.5c0-0.9,0.8-1.9,1.8-2.2c0.9-0.4,2.1-1.2,2.5-2
		c0.4-0.7,1.5-1.3,2.2-1.3c0.8,0,1.5-0.4,1.5-1c0-0.5,0.9-1,2-1s2-0.7,2-1.5s0.9-1.5,2-1.5s2-0.7,2-1.5s0.9-1.5,2-1.5s2-0.7,2-1.5
		c0-0.9,0.9-1.5,2.5-1.5c1.9,0,2.5-0.5,2.5-2.1c0-1.2,0.8-2.3,2-2.6c1.1-0.3,2-1.3,2-2.3s0.5-2,1.1-2.2c1.2-0.4,1.4-6.4,0.4-12
		c-0.8-4.3,0.6-5.1,2.9-1.5c3.4,5.5,2.7,12.4-1.9,18.7c-2,2.7-19.2,16.4-32.7,26.2l-2.8,1.9V617.8L258.5,617.8z"/>
	<path class="st3" d="M427.5,615c0-0.5,0.7-4.3,1.5-8.6c2.4-12.3,2.4-12.1-4.7-14.3c-7.2-2.2-8.8-4.4-3.4-4.4c2,0,3.6,0.5,3.6,1
		c0,0.6,1.2,1,2.8,1c4.7,0,7.2,1.1,7.2,3.2c0,1.1-0.7,6.6-1.6,12.4c-1.4,8.9-1.9,10.4-3.5,10.4C428.3,615.7,427.5,615.4,427.5,615
		L427.5,615z"/>
	<path class="st3" d="M156.5,589.9c0-1.3,2-2.2,8.8-4.1c4.8-1.3,9.9-2.6,11.5-2.8c1.5-0.3,2.7-0.9,2.7-1.4s0.9-0.9,2.1-0.9
		c1.1,0,2.7-0.7,3.5-1.5c1.9-1.9,8.8-2.1,8.2-0.3s-14.5,7.5-25.3,10.4S156.5,592.2,156.5,589.9L156.5,589.9z"/>
	<path class="st3" d="M439.1,590.1c-9.6-1.9-21.6-5.5-21.6-6.5c0-0.5-1.1-0.9-2.5-0.9c-1.6,0-2.5-0.6-2.5-1.5c0-1-1-1.5-3-1.5
		c-3.7,0-10-2.9-10-4.7c0-0.7-1.1-1.3-2.4-1.3c-1.4,0-3.1-0.7-4-1.5c-0.8-0.8-1.9-1.5-2.5-1.5s-1.1-0.7-1.1-1.5s-0.9-1.5-2-1.5
		c-1.3,0-2-0.7-2-2c0-1.4-0.7-2-2.3-2c-2.9,0-6.7-3.9-6.7-6.8c0-1.5-0.6-2.2-2-2.2c-1.1,0-2,0.5-2,1c0,0.6,0.5,1,1,1
		c0.6,0,1,1.6,1,3.7c0,3.5,0,3.6-2,1.8c-2.4-2.2-8-13.1-8-15.7c0-2.4,3.7-2.4,4.3,0c0.4,1.6,0.5,1.6,0.6-0.1c0.1-2-2.1-4.7-3.9-4.7
		c-3.4,0,2.3-13,9.1-21l3-3.5l-2.5,4c-1.4,2.2-3.1,6.4-3.9,9.4c-1.2,4.6-1.2,6.2,0,9.9c2,6.8,5.5,12.1,12,18.3
		c15.1,14.4,39,25,66.6,29.4c2.3,0.4,3.7,1.1,3.7,2C453.5,592.1,448.7,592,439.1,590.1L439.1,590.1z M372.5,553.1
		c0-0.3-0.7-1.2-1.5-2c-1.3-1.4-1.5-1.3-1.5,0.5c0,1.2,0.6,2.1,1.5,2.1C371.8,553.7,372.5,553.4,372.5,553.1z"/>
	<path class="st3" d="M463.5,590.4c0-1.1,1.7-1.9,5.8-2.7c3.1-0.7,6.9-1.9,8.5-2.6c3.6-1.9,3.4-0.4-0.4,3
		C473.6,591.5,463.5,593.2,463.5,590.4L463.5,590.4z"/>
	<path class="st3" d="M410.6,587.4c-6.6-2.7-7.7-4.7-2.7-4.7c2,0,3.6,0.5,3.6,1c0,0.6,1.1,1,2.5,1c2,0,2.5,0.5,2.5,2.5
		c0,1.4-0.1,2.5-0.2,2.5C416.1,589.6,413.6,588.6,410.6,587.4L410.6,587.4z"/>
	<path class="st3" d="M121.5,587c-2.1-0.8-5-3.4-6.2-5.6c-0.9-1.7-0.8-1.7,2.1-0.3c1.6,0.9,5.3,2.1,8.1,2.7c6.1,1.3,7,3.9,1.3,3.8
		C124.7,587.6,122.3,587.3,121.5,587L121.5,587z"/>
	<path class="st3" d="M144.5,586.2c0-0.9,1.4-1.7,3.8-2.1c8.8-1.5,16.3-3.5,25.5-6.7l9.7-3.5v2.4c0,1.9-0.5,2.4-2.5,2.4
		c-1.4,0-2.5,0.4-2.5,0.8c0,1.1-9.9,4.2-13.3,4.2c-1.5,0-2.7,0.4-2.7,0.9c0,0.8-11.8,3.1-15.9,3.1
		C145.4,587.7,144.5,587,144.5,586.2L144.5,586.2z"/>
	<path class="st3" d="M468,570c-7.7-6.9-18.7-16.3-24.4-20.9l-10.5-8.4l-2.1,2c-1.1,1-4.4,2.5-7.2,3.1c-12.6,2.9-31.6-5.9-37.4-17.2
		c-2.5-4.9-2.4-8,0.3-11.4c3.7-4.8,12.8-7.4,12.8-3.7c0,1.4-1.3,2.2-5,3.2c-3.8,1-5,1.8-5.2,3.4c-0.2,3.7,0.3,7.1,1.3,7.4
		c0.5,0.2,0.9,1.7,0.9,3.3c0,2.5,0.4,2.9,3,2.9c1.6,0,3.3,0.6,3.7,1.3c1.3,2.1,12.8,6.7,18.2,7.4c3.5,0.4,5.8,0.1,8.1-1.1
		c1.8-0.9,4.1-1.6,5.1-1.6c2.1,0,3.8-2.2,2.1-2.8c-0.7-0.2-1.2-1.1-1.2-1.9c0-1.7-3.6-6.8-7.4-10.6c-3-3-12.7-7.5-17.6-8.3
		c-3.1-0.5-4-1.1-4-2.7c0-1.8,0.5-1.9,4.8-1.3c11.9,1.5,26.5,12.4,27.8,20.6c0.4,2.6,1.4,4.2,3.3,5.3c6.1,3.6,47.1,38.9,47.1,40.6
		c0,0.4-0.6,1.4-1.2,2.3C482.2,582.3,480.2,580.9,468,570L468,570z"/>
	<path class="st3" d="M388.4,575.9c-4.1-2.7-8-5.6-8.8-6.5c-1.2-1.5-1-1.7,2.3-1.7c2.3,0,3.9,0.5,4.2,1.5c0.4,0.8,1.2,1.5,2,1.5
		s1.4,0.5,1.4,1c0,0.6,0.7,1,1.5,1s1.5,0.4,1.5,0.9s1.1,1.2,2.5,1.5c1.8,0.5,2.5,1.3,2.5,3.1c0,1.4-0.4,2.5-0.9,2.5
		S392.4,578.5,388.4,575.9z"/>
	<path class="st3" d="M111.6,576.5c-0.7-1.9,0-3,4.3-6.9c11.7-10.6,24.2-21.4,33.8-29c8.5-6.8,10.6-9,12-12.7
		c3.2-8.3,12.8-15.8,24.2-18.8c9.5-2.5,17.4-1.3,22.1,3.4c2.4,2.3,2.7,3.3,2.2,7.5c-0.8,8.6-9.9,16.9-22.9,20.8
		c-8.7,2.7-17.5,2.2-22-1.1l-2.9-2.2l-3.8,2.7c-6.9,4.7-39.7,32.9-43,36.9C113.8,579.3,112.6,579.1,111.6,576.5L111.6,576.5z
		 M190.6,534.9c11.7-5.9,18.9-15.4,14.8-19.4c-2.6-2.6-7.9-4.1-12.7-3.6c-4.5,0.4-17.3,5.4-18,7c-0.2,0.4-1.9,0.8-3.8,0.8
		c-3.1,0-3.4,0.3-3.4,3c0,1.6-0.7,4.5-1.6,6.4c-1.6,3.2-1.6,3.6-0.1,5.1C171.4,539.8,180.4,540,190.6,534.9L190.6,534.9z"/>
	<path class="st3" d="M280.3,574.7c4-3.7,5.4-3.8,5-0.2c-0.3,2.4-0.8,2.7-4.3,3l-4,0.2L280.3,574.7z"/>
	<path class="st3" d="M198.5,574.3c0-2.1,0.5-2.6,2.5-2.6c1.6,0,2.5-0.6,2.5-1.5c0-0.8,0.7-1.5,1.5-1.5s1.5-0.4,1.5-1
		c0-0.5,0.8-1,1.9-1c1,0,2.1-0.9,2.4-2c0.4-1.6,1.4-2,4.3-2c3.7,0,3.7,0,1.8,2.1c-2,2.2-14,10.4-16.7,11.5
		C198.9,576.8,198.5,576.3,198.5,574.3L198.5,574.3z"/>
	<path class="st3" d="M185.5,573.7c0-0.5,2.6-2.3,5.8-3.9c5.7-2.9,10.8-6.2,16.9-10.9l3.3-2.4v3.2c0,2.3-0.5,3.3-2,3.7
		c-1.1,0.3-2,0.9-2,1.4s-1.3,0.9-3,0.9c-2.3,0-3,0.4-3,2s-0.7,2-3.5,2s-3.5,0.4-3.5,1.9c0,1-0.7,2.2-1.6,2.5
		C190.4,575.1,185.5,574.8,185.5,573.7L185.5,573.7z"/>
	<path class="st3" d="M219.5,558.2c0-2.2,0.6-3.8,1.5-4.1c2.8-1.1,1.5-2-2.2-1.6l-3.7,0.5l2.7-3.7c7.5-9.7,8.7-19.3,3.7-29.2
		l-2.9-5.9l2.9,3.5c1.6,1.9,4.4,6.2,6.2,9.5c2.6,4.8,3.2,7.1,3.2,12c0,5.9-1.5,10.5-3.4,10.5c-0.6,0-1-1.2-1.1-2.7
		c0-2.8-0.1-2.8-1.1-0.5c-0.6,1.2-1.5,2.2-2,2.2c-0.4,0-0.8,0.5-0.8,1c0,0.6,1.1,1,2.5,1c3.2,0,3.1,0.8-0.4,5.8
		C220.4,562.1,219.5,562.5,219.5,558.2L219.5,558.2z"/>
	<path class="st3" d="M286.3,556c-1-0.2-1.8-1.1-1.8-1.9c0-1.1,1.9-1.4,9.5-1.4c7.4,0,9.5,0.3,9.5,1.4c0,0.7-1,1.6-2.2,2
		C298.7,556.7,288.9,556.7,286.3,556z"/>
	<path class="st3" d="M268.9,553.3c-10.3-2.7-17.7-6.2-22.9-10.7c-5.9-5.3-8.5-11.9-4.5-11.9c1.3,0,2,0.7,2,2c0,1.1,0.5,2,1,2
		c0.6,0,1,1.1,1,2.5c0,2,0.5,2.5,2.5,2.5c1.4,0,2.8,0.7,3.1,1.5c0.4,0.8,1.2,1.5,1.9,1.5c0.8,0,2,0.6,2.7,1.3
		c1.7,1.7,16.6,6.6,22.3,7.4c3.5,0.4,4.5,1,4.5,2.4C282.5,556.3,280.3,556.2,268.9,553.3z"/>
	<path class="st3" d="M306.5,553.7c0-1.4,0.7-2,2.1-2c3.5,0,19.3-4.4,20.7-5.7c0.7-0.7,2.4-1.6,3.8-1.9c1.3-0.3,2.4-1,2.4-1.5
		s0.8-0.9,1.8-0.9c0.9,0,2.2-1,2.7-2.2c0.6-1.3,2-2.4,3.3-2.6c2-0.3,2.2-0.9,2.2-6.8c0-4.6-0.4-6.4-1.3-6.4c-1.5,0-5.7-4.1-5.7-5.6
		c0-0.5-1.5-1.4-3.2-2c-1.8-0.7-6-2.3-9.3-3.7c-3.3-1.3-6.8-2.7-7.7-3c-1.4-0.5-1.8-1.7-1.8-5.2c0-5.4,2.2-6.2,3.6-1.3
		c0.8,2.6,1.8,3.4,6,4.8c14.6,5,23.4,13.3,23.4,22.1c0,10.3-13.6,20.3-33.2,24.3C306.6,556.1,306.5,556.1,306.5,553.7L306.5,553.7z"
		/>
	<path class="st3" d="M239.5,526.8c0-2.7,4-8.1,8.8-11.8c5.2-4,6.2-4.1,6.2-0.8c0,1.6-0.6,2.5-1.5,2.5c-0.8,0-1.5,0.5-1.5,1
		c0,0.6-1.3,1-3,1c-2.7,0-3,0.3-3,3c0,1.7-0.4,3-1,3c-0.5,0-1,0.9-1,2c0,1.3-0.7,2-2,2S239.5,528,239.5,526.8z"/>
	<path class="st3" d="M255.7,511.5c0.3-0.7,1.9-1.8,3.6-2.5c3.1-1.3,3.2-1.2,3.2,1.2c0,2.2-0.4,2.5-3.6,2.5
		C256.6,512.7,255.5,512.3,255.7,511.5z"/>
	<path class="st3" d="M373,485.2c-10-1.4-36.8-4.1-47.7-4.8c-5.2-0.3-5.8-0.2-5.8,1.6c0,1.6-0.5,1.8-3.3,1.3
		c-1.8-0.3-14.2-0.7-27.5-0.7c-21.1-0.1-24.2-0.3-24.2-1.7c0-1.3-2-1.4-16.7-0.9c-9.3,0.4-21.7,1.2-27.8,1.8
		c-29.1,3-53.4-2.5-75.1-17.1c-7.8-5.3-23.8-19.9-27.6-25.3l-2-2.8l3.9,2.7c6.4,4.4,18.3,10,26.9,12.7c16.1,5.1,27.7,5.6,61.9,2.6
		c17.3-1.5,75.1-1.6,94.5,0c8.5,0.6,25.4,2.3,37.5,3.7c19.4,2.3,23.2,2.5,32.1,1.5c48.9-5.2,91.2-48.2,117-118.9
		c1.9-5.1,3.4-9.6,3.4-10s-2.2,3.9-5,9.5c-7.3,14.9-17,26.4-31.1,37.1c-6.1,4.6-21.7,14.2-23.1,14.2c-0.4,0-0.8-1.1-0.8-2.3
		c0-2.5,3.3-4.7,7-4.7c1.1,0,2-0.7,2-1.5s0.7-1.5,1.5-1.5s1.5-0.4,1.5-1c0-0.5,0.7-1,1.5-1s1.5-0.4,1.5-1c0-0.5,0.7-1,1.5-1
		s1.5-0.4,1.5-1c0-0.5,0.9-1,2-1s2-0.7,2-1.5c0-0.9,0.9-1.5,2.5-1.5c1.7,0,2.5-0.5,2.5-1.8c0-2.7,2-4.2,5.7-4.2
		c3.1,0,3.3-0.2,3.3-3.3c0-3.7,1.5-5.7,4.2-5.7c1.3,0,1.8-0.8,1.8-2.5c0-1.6,0.6-2.5,1.5-2.5c0.8,0,1.5-0.9,1.5-2s0.7-2,1.5-2
		c0.9,0,1.5-0.9,1.5-2.5c0-1.7,0.5-2.5,1.8-2.5c2,0,4.2-4.9,4.2-9.2c0-1.5,0.4-2.8,0.8-3c1.3-0.5,6.1-21.5,6.8-29.5
		c0.6-6.2,1-7.3,2.5-7.3c1.1,0,1.9,0.7,1.9,1.8c0,1.7-2.4,18.3-3.5,23.9c-1.6,8.6,3.9-11.5,6.4-23.2c4.9-23.4,6.4-37.7,6.4-61
		c-0.1-35.3-5.4-56.7-20-80.5l-2.7-4.5l5.9,5c11.7,10,24.6,26.9,31,40.8c3.5,7.6,8.5,23.4,8.5,26.9c0,1,1.1,3,2.5,4.4
		c2.1,2.1,2.7,4,3.5,11.7c4.3,40.6-4,94.4-21.2,138.4c-3.4,8.6-4.6,10.6-7.4,12.2c-2.5,1.5-4.5,4.4-8,11.2
		c-9.6,19.2-22.4,37.1-36.3,50.9C436.7,479.3,407.1,489.9,373,485.2L373,485.2z"/>
	<path class="st3" d="M269.3,418c-1-0.2-1.8-1.1-1.8-1.9c0-1,1.3-1.4,5-1.4c4.3,0,5,0.3,5,2c0,1.6-0.6,2-3.2,1.9
		C272.5,418.5,270.2,418.3,269.3,418z"/>
	<path class="st3" d="M316.5,416.7c0-1.7,0.7-2,5-2c3.6,0,5,0.4,5,1.4c0,1.5-3,2.6-7.2,2.6C317.2,418.7,316.5,418.2,316.5,416.7z"/>
	<path class="st3" d="M257.3,417c-1-0.2-1.8-1.1-1.8-1.9c0-1,1.3-1.4,4.5-1.4c3.8,0,4.5,0.3,4.5,2c0,1.5-0.6,2-2.7,1.9
		C260.2,417.5,258.2,417.3,257.3,417z"/>
	<path class="st3" d="M330.5,415.7c0-1.7,0.7-2,4-2c4.5,0,5.7,2.3,1.8,3.4C332.1,418.2,330.5,417.8,330.5,415.7z"/>
	<path class="st3" d="M238.5,414.5c-45.9-7.9-83.9-24.9-106.9-47.6c-7.8-7.7-16-18.2-17.7-22.7c-0.5-1.1,0.1-1.5,2-1.5
		c2.2,0,2.6,0.4,2.6,3c0,2.3,0.4,3,2,3c1.1,0,2,0.6,2,1.4s0.7,1.6,1.5,2c0.8,0.3,1.5,1.3,1.5,2.3s1,2.3,2.3,2.8
		c1.6,0.7,2.3,2,2.5,4.8c0.3,3.4,0.5,3.7,3.6,3.7c3.6,0,5.6,1.5,5.6,4.2c0,1.3,0.8,1.8,2.6,1.8c1.7,0,2.8,0.6,3.1,2
		c0.3,1.1,1.4,2,2.4,2c1.1,0,1.9,0.5,1.9,1c0,0.6,0.7,1,1.5,1s1.5,0.5,1.5,1c0,0.6,0.7,1,1.5,1s1.5,0.7,1.5,1.5
		c0,0.9,0.9,1.5,2.5,1.5c1.8,0,2.5,0.5,2.5,2c0,1.6,0.7,2,3,2c3.1,0,13.2,4.5,13.8,6.1c0.2,0.5,1.4,0.9,2.7,0.9s3,0.7,3.9,1.5
		c0.8,0.8,2.4,1.5,3.5,1.5c1.2,0,2.1,0.5,2.1,1c0,0.6,0.8,1,1.8,1c0.9,0,6.5,1.6,12.4,3.5c12.5,3.9,29.5,7.9,42.1,9.7
		c7.2,1,8.7,1.5,8.7,3C254.5,417.1,253.3,417.1,238.5,414.5L238.5,414.5z"/>
	<path class="st3" d="M339.5,414.8c0-1.6,1.1-1.9,7.3-2.5c8.4-0.9,25-3.9,35.9-6.7c4.2-1,8.8-1.9,10.1-1.9c1.4,0,2.7-0.4,2.9-0.9
		c0.4-1,15.5-6.1,18.1-6.1c0.9,0,1.7-0.4,1.7-1c0-0.5,1.1-1,2.5-1s2.5-0.4,2.5-0.8c0-1.3,4.8-3.2,8-3.2c8.3,0-2,5.5-23.5,12.5
		c-15.4,5.1-32,8.9-50,11.6C339.1,417.1,339.5,417.1,339.5,414.8z"/>
	<path class="st3" d="M84.8,389.4c-1.3-0.5-2.3-1.6-2.3-2.4c0-0.7-0.4-1.3-1-1.3c-0.5,0-1-1.1-1-2.5s-0.4-2.5-0.8-2.5
		c-1.1,0-3.2-6.9-3.2-10.4c0-3.2,1.7-3.4,3-0.3c2.9,7.2,7.9,20.2,7.7,20.3C87.1,390.4,86,390,84.8,389.4L84.8,389.4z"/>
	<path class="st3" d="M530.5,375.5c0-3,3.2-12.8,4.2-12.8c0.4,0,0.8-1,0.8-2.1c0-3.1,2.2-9.9,3.2-9.9c0.4,0,0.8-1.1,0.8-2.5
		s1.4-7.8,3-14.4c3.3-12.9,8-39.2,8-44.7c0-2.7,0.4-3.4,2-3.4c2.4,0,2.4,0,0.4,14.2c-1.8,13.4-5.6,31.8-9,44.3s-9.5,30.7-10.7,32.3
		C531.7,378.4,530.5,377.9,530.5,375.5z"/>
	<path class="st3" d="M59.5,374.6c0-0.5-0.5-0.7-1.2-0.3c-0.6,0.4-0.8,0.3-0.4-0.4c0.3-0.6-0.9-6.2-2.8-12.4
		c-5.4-17.8-10.9-44.3-13.1-63c-0.6-5.2-0.5-5.8,1.2-5.8s2.1,1.3,3.1,9.8c1.7,13.6,6.5,36.5,10.5,50.7c4,13.8,5.4,22.5,3.8,22.5
		C60,375.7,59.5,375.2,59.5,374.6L59.5,374.6z"/>
	<path class="st3" d="M70.6,354.5c-4.3-15.9-6.7-27.2-9-43.3c-2.5-16.8-2.6-19.5-0.6-19.5c1.5,0,1.7,0.9,3.5,14.5
		c1.8,13.1,6,33.2,9.6,45.8c1.9,6.5,3.4,12.3,3.4,12.8s-0.8,0.9-1.9,0.9C74.1,365.7,73.2,363.7,70.6,354.5L70.6,354.5z"/>
	<path class="st3" d="M550.8,362.5c4.4-11.6,9.2-33.1,14.3-64.5c0.6-3.8,3.4-4.6,3.4-1c0,8-8.6,51.7-10.1,51.7
		c-0.5,0-0.9,1.6-0.9,3.5s-0.4,3.5-1,3.5c-0.5,0-1,1.1-1,2.4c0,1.5-1,3-2.7,4.1C550.7,363.6,550.3,363.7,550.8,362.5z"/>
	<path class="st3" d="M40.4,360.3c-2.9-2.5-6-13.6-9.8-35.6c-3.3-19-3.6-24-1.8-24c1,0,1.8,1.2,2.1,3.3c3.8,22.6,6.1,34.4,8.9,45.5
		c1.9,7.2,3.3,13.2,3.3,13.2C43,362.7,41.8,361.6,40.4,360.3z"/>
	<path class="st3" d="M108.4,333c-2.3-5.3-5.4-18-6.4-26c-0.6-4.8-0.5-5.3,1.3-5.3c1.6,0,2,0.9,2.6,5.8c0.8,6.9,4.8,22.6,5.8,23
		c1.2,0.5,0.9,7.2-0.2,7.2C110.9,337.7,109.5,335.6,108.4,333L108.4,333z"/>
	<path class="st3" d="M101.1,298.5c-0.3-1.3-0.6-4.5-0.6-7.3c0-6.4,0.9-9.5,2.6-9.5c1.1,0,1.4,2.1,1.4,9.5s-0.3,9.5-1.4,9.5
		C102.4,300.7,101.5,299.7,101.1,298.5z"/>
	<path class="st3" d="M26.5,295.7c0-4.5,2.3-5.7,3.4-1.7c1.1,4.1,0.7,5.7-1.4,5.7C26.8,299.7,26.5,299,26.5,295.7z"/>
	<path class="st3" d="M565.5,291.5c0-3.9,1.2-6.8,2.6-6.8c1,0,1.4,1.3,1.4,4.5c0,3.8-0.3,4.5-2,4.5
		C566.1,293.7,565.5,293,565.5,291.5z"/>
	<path class="st3" d="M41.1,288.5c-1.2-4.5-0.7-6.8,1.4-6.8c1.7,0,2,0.7,2,4.5C44.5,291.1,42.2,292.6,41.1,288.5z"/>
	<path class="st3" d="M25.5,285.2c0-4.9,2.3-6.4,3.4-2.2c1.2,4.4,0.7,6.7-1.4,6.7C25.8,289.7,25.5,289,25.5,285.2z"/>
	<path class="st3" d="M58.5,284.2c0-4.9,2.3-6.4,3.4-2.2c1.2,4.4,0.7,6.7-1.4,6.7C58.8,288.7,58.5,288,58.5,284.2z"/>
	<path class="st3" d="M494.2,281.5c-0.4-3.5-1.3-8.5-2-11.3c-0.8-2.7-2-7.2-2.8-10c-0.8-2.7-1.7-5.2-2-5.5c-1.3-1.1-4.9-9-4.9-11
		c0-1.1-0.7-2-1.5-2s-1.5-0.7-1.5-1.5s-0.4-1.5-1-1.5c-0.5,0-1-0.7-1-1.5s-0.4-1.5-1-1.5c-0.5,0-1-1.1-1-2.4c0-1.8-0.6-2.5-2.2-2.8
		c-1.9-0.2-2.3-1-2.6-4.3l-0.2-4l4,4.5c12.4,13.7,20.9,33.7,23.5,55.3c0.7,5.2,0.6,5.7-1.2,5.7C495.1,287.7,494.7,286.8,494.2,281.5
		L494.2,281.5z"/>
	<path class="st3" d="M551.5,279.2c0-3.8,0.3-4.5,2-4.5c2.1,0,2.6,2.3,1.4,6.8C553.8,285.6,551.5,284.1,551.5,279.2z"/>
	<path class="st3" d="M566.5,278.5c0-4.8,1-7.8,2.6-7.8c1,0,1.4,1.5,1.4,5.5c0,4.8-0.2,5.5-2,5.5C566.9,281.7,566.5,281,566.5,278.5
		z"/>
	<path class="st3" d="M102,276.1c2.3-15.5,10.5-34.7,10.5-24.5c0,2.9-1.8,8-3.1,9.1c-0.3,0.3-0.9,1.9-1.2,3.5
		c-3,16.1-3.1,16.5-5,16.5C101.5,280.7,101.3,280.2,102,276.1L102,276.1z"/>
	<path class="st3" d="M40.1,273.5c-0.3-1.3-0.6-4-0.6-6c0-3.1,0.4-3.8,2-3.8c1.8,0,2,0.7,2,6c0,4.4-0.4,6-1.4,6
		C41.4,275.7,40.5,274.7,40.1,273.5z"/>
	<path class="st3" d="M24.5,268c0.1-6.5,2.3-11.2,3.4-7.1c0.3,1.3,0.6,4.7,0.6,7.6c0,4.5-0.3,5.2-2,5.2
		C24.7,273.7,24.5,273,24.5,268z"/>
	<path class="st3" d="M57.5,259.7c0-9.3,0.1-10,2-10s2,0.7,2,10c0,9.3-0.1,10-2,10S57.5,269,57.5,259.7z"/>
	<path class="st3" d="M39.5,247.9c0-1.1,0.9-2.7,2-3.7c2-1.8,2-1.7,2,1.8c0,3-0.4,3.7-2,3.7C40.2,249.7,39.5,249,39.5,247.9z"/>
	<path class="st3" d="M113.9,242.2c1.5-4.1,9.7-14.8,16.5-21.6c6.7-6.7,21.8-17.9,24.2-17.9c0.5,0,0.9,1.1,0.9,2.5
		c0,1.8-0.7,2.6-2.5,3.1c-1.4,0.3-2.5,1-2.5,1.5s-0.7,0.9-1.5,0.9s-1.5,0.5-1.5,1c0,0.6-0.7,1-1.5,1s-1.5,0.5-1.5,1
		c0,0.6-1.1,1-2.5,1c-1.7,0-2.5,0.5-2.5,1.8c0,2.7-2,4.2-5.7,4.2c-3.1,0-3.3,0.2-3.3,3.3c0,3.7-1.5,5.7-4.2,5.7
		c-1.3,0-1.8,0.8-1.8,2.5c0,1.4-0.4,2.5-1,2.5c-0.5,0-1,0.7-1,1.5s-0.4,1.5-1,1.5c-0.5,0-1,0.7-1,1.5s-0.4,1.5-1,1.5
		c-0.5,0-1,0.7-1,1.5c0,0.9-1,1.5-2.6,1.5C114,243.7,113.4,243.3,113.9,242.2z"/>
	<path class="st3" d="M58.5,236.2c0-3.8,0.3-4.5,2-4.5c2.1,0,2.6,2.3,1.4,6.8C60.8,242.6,58.5,241.1,58.5,236.2z"/>
	<path class="st3" d="M458.8,216.7c-0.3-1.1-1.4-2-2.4-2c-1.1,0-2.2-0.7-2.5-1.5c-0.4-0.8-1.2-1.5-2-1.5s-1.4-0.4-1.4-0.9
		s-1.1-1.2-2.5-1.5c-1.4-0.4-2.5-1.3-2.5-2.1s-0.9-1.5-1.9-1.5c-3,0-5.1-1.1-5.1-2.6c0-0.9-1.2-1.4-3.5-1.4c-3.1,0-3.5-0.3-3.5-2.5
		s0.2-2.4,2.5-1.5c9.8,3.7,22,11,29,17.3l4,3.6l-3.8,0.1C460.1,218.7,459.2,218.3,458.8,216.7L458.8,216.7z"/>
	<path class="st3" d="M158.5,201.6c0-1.5,8-4.8,18.7-7.5c11.6-2.9,13.3-3,13.3-0.5c0,1.4-1,2-4.6,2.5c-2.5,0.3-8.6,1.9-13.5,3.6
		C163,202.8,158.5,203.5,158.5,201.6z"/>
	<path class="st3" d="M418,197.1c-2.7-0.8-8-1.7-11.7-2c-5.9-0.6-6.8-1-6.8-2.6c0-1.8,0.5-1.9,6.3-1.3c5.8,0.7,16.4,2.7,21.5,4.1
		c1.2,0.3,2.2,1.3,2.2,2C429.5,199.1,424.8,199,418,197.1z"/>
	<path class="st3" d="M191.5,193.3c0-1.4,2.9-2.6,6.8-2.6c1.5,0,2.2,0.6,2.2,2c0,1.7-0.7,2-4.5,2
		C192.8,194.7,191.5,194.3,191.5,193.3z"/>
	<path class="st3" d="M204.5,192.3c0-1.5,3-2.6,7.3-2.6c2,0,2.7,0.5,2.7,2c0,1.7-0.7,2-5,2C205.9,193.7,204.5,193.3,204.5,192.3z"/>
	<path class="st3" d="M384.5,191.7c0-1.5,0.7-2,2.8-2c4.2,0,7.2,1.1,7.2,2.6c0,1-1.4,1.4-5,1.4C385.2,193.7,384.5,193.4,384.5,191.7
		z"/>
	<path class="st3" d="M221.5,191.3c0-1.5,3-2.6,7.3-2.6c2,0,2.7,0.5,2.7,2c0,1.7-0.7,2-5,2C222.9,192.7,221.5,192.3,221.5,191.3z"/>
	<path class="st3" d="M367.5,190.7c0-1.5,0.7-2,2.8-2c4.2,0,7.2,1.1,7.2,2.6c0,1-1.4,1.4-5,1.4C368.2,192.7,367.5,192.4,367.5,190.7
		z"/>
	<path class="st3" d="M242.5,190.3c0-1.6,3-2.6,8.3-2.6c3,0,3.7,0.4,3.7,2c0,1.8-0.7,2-6,2C244.1,191.7,242.5,191.3,242.5,190.3z"/>
	<path class="st3" d="M344.5,189.7c0-1.6,0.7-2,3.8-2c5.2,0,8.2,1,8.2,2.6c0,1-1.6,1.4-6,1.4C345.2,191.7,344.5,191.5,344.5,189.7z"
		/>
	<path class="st3" d="M281.5,189.3c0-2.1,3.3-2.6,18-2.6s18,0.5,18,2.6c0,1.1-3.3,1.4-18,1.4S281.5,190.4,281.5,189.3z"/>
</g>
<g>
	<path class="st4" d="M199.2,1064c-0.3-0.5-0.1-5.1,0.4-10.3c2.3-24.1,5.9-66.4,5.9-69.6v-3.4h-16c-10,0-16-0.4-16-1s6.2-1,16.5-1
		c16.4,0,16.5,0,16.5-2.2c0-1.3,2-24.9,4.4-52.4c4-46.8,4.5-50.3,6.5-52.3c2.5-2.5,3.1-2.6,3.1-0.6c0,0.8-0.6,1.5-1.3,1.5
		c-1,0-2.7,16.5-7,68.8c-3.2,37.8-6,69.9-6.3,71.4c-0.6,3.1-1.8,2.8,25.5,5.4c13.2,1.3,18.5,2.2,18.8,3.1c0.3,0.8,0.4,1.5,0.2,1.7
		s-10.2-0.8-22.2-2.1c-12.1-1.3-22.1-2.2-22.4-2c-0.2,0.3-1.1,9.2-1.9,19.9c-0.8,10.6-1.7,20.8-2,22.6
		C201.4,1064.5,200.2,1065.6,199.2,1064L199.2,1064z"/>
	<path class="st4" d="M392.5,1055c0-3.9-3.1-42.7-3.5-43.1c-0.2-0.3-31.4,3-41.2,4.4c-3.4,0.4-4.3,0.2-4.3-0.9c0-2,1.5-2.2,22.5-4.2
		c23.4-2.2,22.5-2,22.5-5.3c0-3-10.6-126.6-11.5-134.9c-0.5-3.6-1.1-5.3-2.1-5.3c-0.8,0-1.4-0.7-1.4-1.5c0-0.9,0.9-1.5,2.4-1.5
		c1.9,0,2.6,0.7,3,2.8c0.3,1.5,2.4,23.6,4.6,49.2c2.2,25.6,4.2,48.9,4.5,51.8l0.6,5.2h16.5c13.9,0,16.4,0.2,16.4,1.5
		s-2.5,1.5-16.5,1.5h-16.6l0.6,4.8c0.7,5.4,5.3,57.5,6.2,70c0.5,7.2,0.4,8.2-1.1,8.2C393,1057.7,392.5,1056.8,392.5,1055L392.5,1055
		z"/>
	<path class="st4" d="M203.1,975c-1.1-1.1-0.6-2.3,0.9-2.3c0.8,0,1.5,0.4,1.5,0.9C205.5,974.9,203.9,975.8,203.1,975L203.1,975z"/>
	<path class="st4" d="M389.5,967.2c0-0.9,0.5-1.5,1.1-1.3s1.1,0.8,1.1,1.3s-0.5,1.1-1.1,1.3S389.5,968.1,389.5,967.2z"/>
	<path class="st4" d="M339.5,821.8c0-0.5,1.4-1.9,3-3.1l3-2.1v3c0,2.8-0.3,3.1-3,3.1C340.9,822.7,339.5,822.3,339.5,821.8z"/>
	<path class="st4" d="M121.8,820c-1.8-0.7-1.6-3.3,0.2-3.3c1.3,0,1.5-1.6,0.9-11.7c-0.3-6.5-0.9-19-1.2-27.8l-0.7-16l-4.6-0.3
		c-5.6-0.4-16.5,2-21.9,4.8c-4.8,2.4-4.7,2.4-5.3,0.1c-0.4-1.6,0.5-2.4,4.5-4.1c6.1-2.6,16.7-5,22.6-5h4.2v-5.2
		c0-3.8-2.7-66.1-3-68.5c0-0.2-0.7-0.3-1.5-0.3s-1.5-0.7-1.5-1.5c0-1.1,1.2-1.5,5-1.5s5,0.4,5,1.5c0,0.8-0.7,1.5-1.6,1.5
		c-1.5,0-1.6,1.2-1.1,10.8c0.4,5.9,1.6,33.4,2.7,61.2c2.4,59.6,2.6,63,4.6,63c0.8,0,1.4,0.7,1.4,1.5c0,1.1-1,1.5-3.7,1.4
		C124.7,820.6,122.4,820.3,121.8,820L121.8,820z"/>
	<path class="st4" d="M352.5,808.7c3.1-4.4,4-4.5,4-0.6c0,3.3-0.2,3.6-3.1,3.6h-3L352.5,808.7z"/>
	<path class="st5" d="M354.8,725.5c-3.3-1.6-4.9-5.9-9.8-27c-6.9-29.8-10.4-38.3-15.4-38.3c-2,0-2.7,1-4.7,7
		c-2.6,7.6-9.8,19-14.8,23.2c-4.8,4-9.4,5.6-15,5c-4.1-0.4-5.5-1.1-8.2-3.9c-2.9-3.2-7.4-13.1-7.4-16.3c0-0.9-0.6-1.2-1.5-0.9
		c-1.1,0.5-1.5-0.1-1.5-1.7c0.1-1.7,1.3-3.2,4.4-5.1c4.8-3,10.8-4,8.6-1.4c-0.9,1.2-0.7,2.4,0.8,6c3,6.7,8.4,8.6,13.4,4.7
		c3.3-2.7,8.1-12,10.8-21.1c4.1-14.1,8.3-17.7,16.2-14.2c9.8,4.3,25.9,28.4,33.6,50.4c5.5,15.4,5.2,26-0.8,32
		C360.5,726.9,358.4,727.2,354.8,725.5L354.8,725.5z"/>
	<path class="st5" d="M244.5,706.3c0-1.9,0.7-4.1,1.5-5c1-1,1.5-3.5,1.5-8.2c0-7.6,1.2-9.3,6.8-9.4c3.7,0,3.9,0.5,1.3,2.8
		c-1,1-2.6,4.6-3.5,8.2c-1.9,7.4-5.3,15-6.7,15C244.9,709.7,244.5,708.2,244.5,706.3L244.5,706.3z"/>
	<path class="st5" d="M246.7,676c1.4-1.7,4.8-13.4,4.8-16.7c0-1-0.6-1.3-1.5-1c-2.4,1-1.8-2.1,1.4-6.8c3.7-5.4,6.8-8.4,10.4-9.7
		c3.9-1.5,14.9-1.4,17,0.2c3.3,2.4,6.7,8.1,6.7,11.1c0,4.1-6.4,9.6-11.1,9.6c-2.6,0-3-0.3-2.1-1.2s0.8-1.6-0.5-3
		c-3.2-3.5-7-1.3-10.8,6c-1.7,3.5-1.3,5.4,0.7,3.4s2.7-1.3,1.5,1.7c-1.2,3.4-9.9,8.1-14.9,8.1C245.4,677.7,245.3,677.6,246.7,676
		L246.7,676z M283.8,651.3c0.3-0.8,0-1.7-0.8-1.9c-1.7-0.7-2.5,0.1-1.8,1.9C281.9,653.1,283.1,653.1,283.8,651.3z"/>
	<path class="st4" d="M511.3,625.6c-1-0.5-1.8-2.1-1.8-3.4c0-1.7,0.4-2.2,1.8-1.9c1.4,0.4,6.7-10.1,30.4-60.3
		c28.3-59.9,28.7-60.8,26.5-62c-2-1.1-1.6-1.2,3.1-1.3c4.5,0,5.2,0.2,5.2,2c0,1.1-0.6,2-1.3,2s-6.7,11.6-13.4,25.8
		c-9.9,21-11.9,25.9-10.9,27c2.4,2.5,15,6.4,22.4,6.9c5.8,0.5,7.2,0.9,6.8,2c-0.4,0.8-0.6,1.7-0.6,1.9c0,0.8-8,0.4-13.2-0.7
		c-2.9-0.6-8.2-2.4-11.7-4c-3.6-1.6-6.8-2.6-7.2-2.2c-0.3,0.5-7.5,15.4-15.9,33.2c-13.6,28.9-15.1,32.6-13.6,33.6
		c0.9,0.7,1.6,1.5,1.6,1.9C519.5,627.1,513.2,626.7,511.3,625.6L511.3,625.6z"/>
	<path class="st4" d="M474.4,575.2c-10.5-9.7-28.6-25.1-35.2-30.1l-5.9-4.4l-3.1,2.3c-2.8,1.9-4.5,2.2-12.2,2.2s-9.8-0.4-14.9-2.8
		c-11.6-5.4-17.6-12.3-17.6-20.1c0-10.7,17.2-13.7,32.8-5.7c8.5,4.4,13.5,9.7,15.7,16.7c0.7,2.3,3.9,5.4,11.5,11.4
		c10.5,8.3,21,17.3,32.8,28c4.4,4.1,6,6.2,5.6,7.4c-0.3,0.9-1,1.6-1.5,1.6S478.3,578.8,474.4,575.2L474.4,575.2z"/>
	<path class="st4" d="M112.1,578c-1.7-1.8,0.1-4.5,7.2-10.9c12.5-11.4,28.2-24.6,35.4-29.9c4-2.9,6.8-5.7,6.8-6.8
		c0-3,3.7-9.3,7.2-12.2c1.8-1.6,6.2-4.2,9.8-5.9c5.4-2.6,8-3.1,15-3.4c7.2-0.2,9,0,11.8,1.8c6.8,4.2,6.6,11.5-0.5,19.1
		c-10.8,11.6-32.2,16.2-40.2,8.8l-2.2-2l-8.2,6.4c-4.5,3.5-14,11.6-21.1,17.8c-7.2,6.3-14.6,12.8-16.7,14.6
		C114.4,577.2,112.5,578.3,112.1,578L112.1,578z"/>
	<path class="st4" d="M526.5,329.5c0-3,1.3-5.8,2.6-5.8c0.9,0,1.4,1.2,1.4,3.5c0,2.8-0.4,3.5-2,3.5
		C527.4,330.7,526.5,330.1,526.5,329.5z"/>
	<path class="st4" d="M532.5,292.5c0-3,1.3-5.8,2.6-5.8c0.9,0,1.4,1.2,1.4,3.5c0,2.8-0.4,3.5-2,3.5
		C533.4,293.7,532.5,293.1,532.5,292.5z"/>
	<path class="st4" d="M533.5,279.5c0-3,1.3-5.8,2.6-5.8c0.9,0,1.4,1.2,1.4,3.5c0,2.8-0.4,3.5-2,3.5
		C534.4,280.7,533.5,280.1,533.5,279.5z"/>
	<path class="st4" d="M532.1,231.5c-0.9-3.6-0.7-3.9,1.4-2.6c2.3,1.5,2.7,4.8,0.6,4.8C533.4,233.7,532.5,232.7,532.1,231.5
		L532.1,231.5z"/>
</g>
<g>
	<path class="st6" d="M136.5,1100.7c0-1.8,0.7-2,7.3-2c8.5,0,11.7,0.7,11.7,2.6c0,1.1-2.1,1.4-9.5,1.4
		C137.2,1102.7,136.5,1102.6,136.5,1100.7z"/>
	<path class="st6" d="M367.5,1094.7c0-1.9,0.7-2,25.5-2s25.5,0.1,25.5,2s-0.7,2-25.5,2S367.5,1096.6,367.5,1094.7z"/>
	<path class="st6" d="M449.5,1094.3c0-1.8,3.1-2.6,10.3-2.6c5,0,5.7,0.2,5.7,2s-0.7,2-8,2C451.4,1095.7,449.5,1095.4,449.5,1094.3z"
		/>
	<path class="st6" d="M246.4,1086.9c-1.4-4.2-2.9-8.5-3.4-9.6c-0.7-1.6-0.6-1.7,1.4-0.7c3.7,2,9.7,8.6,8.1,8.9
		c-1.1,0.2-1.4,1.4-1.2,4.7C251.9,1097.5,249.4,1095.8,246.4,1086.9L246.4,1086.9z"/>
	<path class="st6" d="M342.5,1088.9c0-3.1,0.4-7.2,0.9-9c0.7-2.3,0.6-3.2-0.2-3.2c-1.3-0.1,6.1-7,7.5-7c0.4,0-0.1,2.3-1.2,5.1
		c-4.2,10.4-4.7,17.9-1.4,17.9c0.8,0,1.4,0.5,1.4,1c0,0.6-1.6,1-3.5,1h-3.5L342.5,1088.9L342.5,1088.9z"/>
	<path class="st6" d="M247.2,890.6c-1-4.1-7.4-11.6-12.3-14.5c-3.1-1.8-6.5-2.8-10.8-3.1c-5.7-0.5-6.3-0.8-5.8-2.5
		c0.4-1.8,1-1.9,7.1-1.3c3.6,0.4,8.5,1.5,10.9,2.5c3.6,1.6,4.2,2.3,4.2,4.9c0,2.8,0.3,3.1,3.1,3.1c2.2,0,3.2,0.5,3.6,2
		c0.3,1.1,0.9,2,1.4,2c1.1,0,1.1,4.7,0,7.5C247.9,893,247.8,892.9,247.2,890.6L247.2,890.6z"/>
	<path class="st6" d="M347.4,879.2c-0.1-1.6,0-3.7,0.1-4.5c0.2-2,6-8,7.7-8c0.7,0,1.3-0.4,1.3-0.8c0-1.4,7.5-3.3,15.1-3.9
		c6.6-0.6,6.9-0.5,6.9,1.6c0,1.9-0.6,2.1-4.8,2.1c-8.2,0-14.2,2.4-19.3,7.7c-2.6,2.6-5.1,5.7-5.7,6.8
		C347.7,882,347.5,881.9,347.4,879.2L347.4,879.2z"/>
	<path class="st6" d="M251.5,830.8c0-0.5-0.9-1.1-2-1.4c-1.1-0.3-2-1.2-2-2.1c0-0.9-0.8-1.6-1.8-1.6c-2.3,0-4.2-1.9-4.2-4.2
		c0-1.2-0.7-1.8-2.2-1.8c-3,0-10.8-7.7-10.8-10.7c0-1.4-0.6-2.3-1.5-2.3c-1.6,0-1.9-0.9-0.9-3.3c0.4-1.1,2.8,0.8,8.4,6.6
		c4.3,4.5,11,10.6,14.8,13.6c4.1,3.3,6.8,6,6.5,6.8C255.2,831.8,251.5,832.2,251.5,830.8z"/>
	<path class="st6" d="M133.5,823.8c0-0.4-2.7-1.4-6-2.1c-5.1-1.1-6.6-1-10.9,0.4c-2.7,0.9-6.2,1.6-7.7,1.6c-2.6,0-2.7-0.1-0.9-2
		c5.4-5.9,23.9-5.7,30,0.4c2.2,2.1,1.9,2.6-1.5,2.6C134.9,824.7,133.5,824.3,133.5,823.8z"/>
	<path class="st6" d="M339.5,822.9c0-1.1,1.2-2.7,2.6-3.7l2.5-1.6l-0.3,3.3c-0.2,2.5-0.8,3.4-2.5,3.6
		C340.1,824.8,339.5,824.3,339.5,822.9z"/>
	<path class="st6" d="M353.2,808.4c10.2-13.2,14.2-17.5,14.7-16.1c1,2.6,0.7,5.3-0.7,6.1c-0.8,0.4-1.7,1.6-2,2.6
		c-0.4,1.1-1.6,2.1-2.7,2.4c-1.1,0.3-2,1.3-2,2.3c0,2.5-3.2,5-6.4,5C351.3,810.7,351.3,810.7,353.2,808.4L353.2,808.4z"/>
	<path class="st6" d="M205.3,770c-1-0.2-1.8-1.1-1.8-1.9c0-1.2,12.6-1.4,89-1.4c75.1,0,89,0.2,89,1.4c0,0.7-1,1.6-2.2,2
		C376.7,770.8,207.9,770.7,205.3,770z"/>
	<path class="st6" d="M275.5,743.7c0-1.7,0.7-2,4.3-2c5.6,0,8.7,0.9,8.7,2.6c0,1.1-1.6,1.4-6.5,1.4
		C276.2,745.7,275.5,745.5,275.5,743.7z"/>
	<path class="st6" d="M317.5,744.3c0-1.7,3.1-2.6,8.8-2.6c3.5,0,4.2,0.3,4.2,2c0,1.8-0.7,2-6.5,2
		C319.1,745.7,317.5,745.4,317.5,744.3z"/>
	<path class="st6" d="M262.5,742.7c0-1.5,0.7-2,2.8-2c4.2,0,7.2,1.1,7.2,2.6c0,1-1.4,1.4-5,1.4C263.2,744.7,262.5,744.4,262.5,742.7
		z"/>
	<path class="st6" d="M334.5,743.3c0-1.5,3-2.6,7.3-2.6c2,0,2.7,0.5,2.7,2c0,1.7-0.7,2-5,2C335.9,744.7,334.5,744.3,334.5,743.3z"/>
	<path class="st6" d="M250.5,743.1c-1.4-0.3-7.7-1.1-14-2c-14.5-1.9-18-3-18-5.5c0-2.1,2.1-2.5,5-0.9c1.1,0.6,8.6,1.9,16.7,3.1
		c21.8,2.9,21.3,2.8,21.3,4.4C261.5,743.7,256.9,744,250.5,743.1z"/>
	<path class="st6" d="M345.5,742.4c0-1.6,0.8-1.8,10.5-3.1c2.2-0.3,6.1-1.7,8.8-3.1c2.7-1.4,5.1-2.5,5.3-2.5s0.4,1.1,0.4,2.5
		c0,2.1-0.5,2.5-3,2.5c-1.9,0-3,0.5-3,1.4c0,1.7-2.6,2.4-11.7,3.3C346.5,743.9,345.5,743.8,345.5,742.4L345.5,742.4z"/>
	<path class="st7" d="M225.8,717.3c-3.8-1.7-6.3-6.1-6.3-11.1c0-11,10.7-21.4,36-35c17.6-9.4,30.9-19.7,28-21.5
		c-0.8-0.5-1.8-0.6-2.2-0.4c-0.5,0.3-2.1-0.8-3.7-2.5c-4.9-5.3-13.9-3.7-19.6,3.3c-7.5,9.3-8.2,9.6-15.8,7.5
		c-5-1.4-9.6-5.6-10.3-9.6c-0.6-2.8-0.4-3.3,1.3-3.3c1.3,0,2.4,1.2,3.3,3.5c0.8,1.9,1.9,3.5,2.6,3.5c0.7,0,1.4,0.4,1.6,1
		c0.2,0.5,2.4,1.3,4.9,1.6c4.4,0.6,4.7,0.5,5.3-2c0.3-1.4,1.3-2.6,2-2.6c0.8,0,1.6-1,1.8-2.2c0.2-1.9,1-2.4,4.1-2.6
		c2.4-0.2,3.7-0.8,3.7-1.8s-1.4-1.4-5.3-1.4c-6.6,0-8.7-1.5-9.4-6.7c-0.6-4.2,1.2-11.3,2.8-11.3c0.5,0,0.9-0.6,0.9-1.3
		c0-1.8,4.2-5.7,6.2-5.7c0.9,0,1.8-0.9,2.1-2c0.3-1.2,1.4-2,2.6-2s2.1-0.6,2.1-1.5c0-0.8,0.9-1.5,2-1.5s2-0.7,2-1.5s0.6-1.5,1.4-1.5
		s1.6-0.7,2-1.5c0.3-0.8,1.2-1.5,2-1.5c0.7,0,1.6-0.7,2-1.5c0.3-0.8,1.2-1.5,2-1.5c0.7,0,1.6-0.7,2-1.5c0.3-0.8,1.2-1.5,2-1.5
		c0.7,0,1.6-0.7,2-1.5c0.3-0.9,1.8-1.5,3.6-1.5c2.7,0,3-0.3,3-3c0-1.6,0.4-3,0.9-3s1.2-1.3,1.6-3c0.5-2.1,1.2-3,2.7-3
		c1.8,0,2,0.4,1.4,3.2c-1,5.3-5.3,9.6-21,21.4c-21.2,16-25.3,20.5-24.4,26.5c0.6,4.5,3.9,5,20.3,2.9c18.6-2.5,18.5-2.5,18.5,0
		c0,1.6-0.7,2-3.7,2.1c-4.2,0-12.8,1.6-10,1.8c1,0.1,1.7,0.9,1.7,2c0,1.4,1,2.1,3.7,2.6c4.4,0.8,5.3,1.8,5.3,6.3
		c0,2.5-0.4,3.2-2,3.2c-1.3,0-2,0.7-2,1.8c0,2.3-1.9,4.2-4.1,4.2c-0.9,0-1.9,0.9-2.2,2s-1.2,2-2.1,2s-1.6,0.5-1.6,1
		c0,0.6-0.7,1-1.5,1s-1.5,0.4-1.5,0.9s-1.6,1.5-3.5,2.2s-3.5,1.7-3.5,2.1c0,0.4-1.3,0.8-3,0.8c-1.8,0-3,0.5-3,1.3s-1.9,2.2-4.2,3.3
		c-2.4,1-4.9,2.4-5.6,3.1c-0.7,0.7-2,1.3-2.8,1.3s-1.4,0.5-1.4,1c0,0.6-0.7,1-1.5,1s-1.5,0.5-1.5,1c0,0.6-0.8,1-1.9,1
		c-1,0-2.1,0.9-2.4,2c-0.4,1.5-1.4,2-4.1,2c-3.4,0-3.6,0.2-3.6,3.5c0,1.8-0.6,3.8-1.3,4.2c-2.9,1.9-5.3,13.3-2.7,13.3
		c0.6,0,1-2.2,1-4.8c0-5.1,2-8.2,5.2-8.2c0.9,0,1.8-0.9,2.1-2c0.4-1.6,1.4-2,5-2c4.2,0,4.6-0.2,4.9-2.6c0.2-1.9,1.4-3.2,4.3-4.8
		c2.2-1.1,4.2-2.4,4.5-2.7c1.1-1.4,17.1-8.9,19-8.9c1.1,0,2-0.6,2-1.4c0-1.5,2.1-2.6,5.1-2.6c1,0,1.9-0.7,1.9-1.5s0.9-1.5,2-1.5
		s2-0.7,2-1.5c0-0.9,0.9-1.5,2.5-1.5c1.7,0,2.5-0.5,2.5-1.8c0-2,5.9-8.2,7.8-8.2c0.7,0,1.2-0.9,1.2-2s0.4-2,0.9-2s1.2-1.3,1.6-3
		c0.5-2.1,1.3-3,2.6-3c5.7,0-2.3,13-13.2,21.6c-6.9,5.5-15,10.4-29.5,17.8l-9.1,4.6l0.1,5.8c0,4.7-0.6,6.9-3.4,12.1
		C242.2,716.5,233.5,720.8,225.8,717.3L225.8,717.3z M235.2,713.5c4.4-2.1,7.5-5.8,8.1-10c0.4-3.2,0.2-3.7-1.1-3.2
		c-0.8,0.3-1.8,1.6-2.1,3c-0.4,1.3-1.1,2.4-1.6,2.4c-0.6,0-1,0.7-1,1.5s-0.7,1.5-1.5,1.5s-1.5,0.7-1.5,1.5c0,1.1-1.2,1.5-4.2,1.5
		c-4,0.1-4.2,0.2-2.4,1.5C230.3,715,231.6,715.1,235.2,713.5L235.2,713.5z M233.8,705.4c0.7-1.2,2.4-4,3.7-6.2l2.5-4l-4,3.1
		c-5.8,4.6-7.8,7.1-7.2,8.8C229.6,709.1,232,708.2,233.8,705.4L233.8,705.4z"/>
	<path class="st6" d="M138,686.1c-3.8-1.3-8.1-2.3-9.5-2.4c-4.1-0.1-7-1.2-7-2.6c0-2,5.8-1.8,15.3,0.5c8.8,2.1,9,2.2,8.5,4.8
		C145,688.2,144.8,688.2,138,686.1z"/>
	<path class="st6" d="M300.5,641.8c0-1.4-1-2.1-3.5-2.5c-2.6-0.5-3.5-1.2-3.5-2.6c0-2.9,4.2-2.6,7.9,0.6c3.6,3,4.1,6.4,1.1,6.4
		C301.2,643.7,300.5,643,300.5,641.8z"/>
	<path class="st6" d="M231.5,639.5c0.1-10.1,30.2-49.8,49.3-65c6.8-5.3,12.4-5.2,15.2,0.3c2.1,3.9,1.9,5.9-0.5,5.9
		c-1.2,0-2-0.7-2-1.8c0-0.9-0.9-2.3-2-2.9c-2.2-1.5-8-0.6-8,1.1c0,0.6-3.9,5.1-8.8,9.9c-6.7,6.7-9.4,8.7-11.5,8.7
		c-2.4,0-2.7,0.4-2.7,3.3c0,3.7-1.5,5.7-4.2,5.7c-1.3,0-1.8,0.8-1.8,2.5c0,1.4-0.7,2.8-1.5,3.1c-0.8,0.4-1.5,1.3-1.5,2
		c0,0.8-0.7,1.7-1.5,2c-0.8,0.4-1.5,1.2-1.5,2s-0.4,1.4-1,1.4c-0.5,0-1,0.7-1,1.5s-0.4,1.5-1,1.5c-0.5,0-1,0.7-1,1.5s-0.4,1.5-1,1.5
		c-0.5,0-1,0.6-1,1.4c0,0.8-0.3,1.6-0.7,1.8c-1.1,0.4-6.3,11.5-6.3,13.3c0,0.8-0.9,1.5-2,1.5C232.1,641.7,231.5,641,231.5,639.5z"/>
	<path class="st6" d="M159.6,626.5c-5.6-17-7.5-25.6-6-27.4c1.9-2.3,2.4-1.7,3.8,4.9c0.7,3.4,3.2,12.2,5.7,19.6
		c2.4,7.3,4.4,13.7,4.4,14.2s-0.9,0.9-1.9,0.9C164,638.7,162.9,636.4,159.6,626.5z"/>
	<path class="st6" d="M522.5,630.7c0-0.5-0.9-1-2-1c-2.4,0-9-3.1-9-4.2c0-0.4-0.7-0.8-1.5-0.8s-1.5-0.4-1.5-1c0-0.5-0.7-1-1.5-1
		s-1.5-0.4-1.5-0.9s-0.9-1.1-2-1.4c-1.5-0.4-2-1.4-2-3.7v-3.1l6.4,4.5c3.5,2.5,9.3,6,13,7.7c6.1,2.8,6.5,3.3,4.9,4.5
		C523.6,631.9,522.5,632.1,522.5,630.7L522.5,630.7z"/>
	<path class="st6" d="M427.4,623.4c-1.3-0.8-1.4-1.7-0.6-5.1c0.5-2.3,1.7-8.6,2.6-14.1l1.8-10l-9.8-3.2c-26.4-8.6-47-22.7-54-37
		c-3.5-7-3.3-16.1,0.4-22.8c1.5-2.7,3.7-6.1,4.7-7.5c2-2.5,2-2.4,0,2.1c-3.9,9.1-2.3,18,5.1,27.6c4.2,5.4,15.1,14.2,22.7,18.3
		c4.9,2.8,5.3,4,1.3,4c-3.9,0-6.1-0.9-6.1-2.6c0-0.8-0.9-1.4-2-1.4s-2,0.5-2,1c0,0.6,0.7,1,1.5,1s1.5,0.7,1.5,1.5s0.9,1.5,2,1.5
		s4.8,1.4,8.1,3.1c3.4,1.7,6.3,2.8,6.6,2.6c0.2-0.3-0.5-0.8-1.6-1.2c-1.4-0.4-2.1-1.5-2.1-3.1v-2.4l3.8,1.6
		c12.4,5.3,23.7,8.7,36.5,10.9c4.9,0.8,5.1,3.5,0.3,3.5c-4.3,0-15-2.2-23.6-4.9c-3.5-1.1-6.6-1.8-6.8-1.6s2.9,1.4,6.9,2.6
		c8.5,2.6,9.9,3.7,9.9,7.7c0,3.7-2.9,20.3-4.3,25.2C429.2,623.8,428.7,624.3,427.4,623.4L427.4,623.4z M386.9,568.2
		c-0.4-0.8-1-1.5-1.5-1.5s-0.9,0.7-0.9,1.5s0.7,1.5,1.5,1.5C386.9,569.7,387.2,569.1,386.9,568.2z M381.7,562.2
		c-0.3-2.9-0.8-3.5-2.8-3.5c-2.1,0-2.4,0.5-2.4,3.5c0,3.2,0.3,3.5,2.8,3.5C381.9,565.7,382.1,565.5,381.7,562.2z M371.1,548
		c-1.1-1.1-1.7,0.4-0.9,2.3c0.7,1.8,0.8,1.8,1.1,0.1C371.5,549.4,371.4,548.3,371.1,548L371.1,548z"/>
	<path class="st6" d="M452.5,590.7c0-1.8,0.7-2,6-2s6,0.2,6,2s-0.7,2-6,2S452.5,592.5,452.5,590.7z"/>
	<path class="st6" d="M154.5,590c0-1.4,2-2.3,8.8-4c14.5-3.7,17.6-4.7,19.2-6.2c1.3-1.3,1.3-1.4-0.5-0.7
		c-16.9,6.8-28.4,9.1-45.2,9.1c-12.7,0-14.4-0.2-16.9-2c-1.5-1.2-3.3-3-4.1-4.2l-1.5-2.2l4.4,2.1c5.4,2.7,21.5,3.6,32.7,1.8
		c15.8-2.5,38.1-11.5,51.7-20.7c5.9-4,18.4-16.5,18.4-18.3c0-0.6,0.5-1,1-1c0.6,0,1,1.2,1,2.8l0.1,2.7l1.4-2.5c1.9-3.4,1.8-4-0.5-4
		c-1.7,0-1.8-0.3-0.9-2.7c1.6-4.2,1.4-13.3-0.5-17.8l-1.6-4l2,2.5c3,3.7,7,12.1,7,14.6c0,1.2-0.7,2.4-1.5,2.8
		c-0.8,0.3-1.5,1-1.5,1.6c0,0.5,0.7,1,1.5,1c4.5,0-1.2,12.6-9.5,21c-10.8,11.1-31.3,21.9-52.1,27.5
		C156.2,592.2,154.5,592.3,154.5,590L154.5,590z M188.5,577.8c0-0.5,2.5-1.9,5.5-3.2s5.5-2.8,5.5-3.2s-0.9-0.3-1.9,0.3
		c-1.1,0.5-3.1,1-4.5,1c-1.5,0-2.6,0.6-2.6,1.3s-1.5,2.1-3.2,3c-2.9,1.4-3,1.6-1,1.6C187.5,578.7,188.5,578.3,188.5,577.8
		L188.5,577.8z M204.5,568.6c0-0.5,0.6-0.9,1.4-0.9s1.6-0.7,2-1.5c0.3-0.8,0.1-1.5-0.4-1.5c-0.6,0-1,0.5-1,1c0,0.6-0.7,1-1.5,1
		s-1.5,0.5-1.5,1c0,0.6-0.7,1-1.5,1s-1.5,0.4-1.5,0.9s0.9,0.7,2,0.4S204.5,569.1,204.5,568.6z M212.8,562.7c0.4-1.5,0-2-1.4-2
		c-1.2,0-1.9,0.7-1.9,2c0,1.1,0.6,2,1.4,2C211.6,564.7,212.5,563.8,212.8,562.7z M221.5,553.8c0-1.1,0.6-2.2,1.3-2.4
		c0.7-0.4,0.6-0.6-0.4-0.6c-1-0.1-1.9,0.9-2.1,2.4c-0.3,1.4-0.1,2.5,0.3,2.5C221.1,555.7,221.5,554.8,221.5,553.8L221.5,553.8z"/>
	<path class="st6" d="M465.5,590.4c0-1,1.7-1.9,4.8-2.7c2.7-0.6,6.1-1.7,7.5-2.5c3.3-1.7,3.4-0.9,0.3,2.9c-1.9,2.3-3.4,3-7.5,3.4
		S465.5,591.7,465.5,590.4L465.5,590.4z"/>
	<path class="st6" d="M273.5,554.1c-14.2-3-26.6-9.2-31.2-15.6c-3-4.2-3.4-11.4-1-15.8c2.5-4.5,10.2-10.4,17.4-13.2
		c3.2-1.3,5.9-3,6.2-3.8c0.2-0.8,0.4,0.1,0.5,2.1c0.1,3.5-0.1,3.7-5.9,6c-3.3,1.3-6,2.7-6,3.1c0,0.5-0.4,0.8-1,0.8
		c-0.5,0-2.6,1.7-4.7,3.8c-3.3,3.2-3.8,4.3-3.8,8.4c0,3.9,0.5,5,2.8,6.8c1.5,1.2,2.7,2.8,2.7,3.6s0.9,1.4,2,1.4s2,0.7,2,1.5
		c0,0.9,0.9,1.5,2.5,1.5c1.4,0,2.5,0.4,2.5,0.9s1.2,1.1,2.8,1.4c1.5,0.2,6.3,1.4,10.6,2.6c4.4,1.1,9.2,2.1,10.8,2.1
		c2.1,0,2.8,0.5,2.8,2C285.5,556.1,283.1,556.2,273.5,554.1L273.5,554.1z"/>
	<path class="st6" d="M296.5,554.1c0-1.6,1.4-2.2,8.4-3.5c14.3-2.8,25.9-9.1,30.2-16.5c2.5-4.2,2.5-4.4,0.8-7.9
		c-2-4.4-6.8-8.4-14-11.9c-5.3-2.6-5.4-2.7-5.4-7.1c0-3.2,0.4-4.5,1.4-4.5c0.7,0,1.6,0.8,1.8,1.8c0.3,1.1,2.3,2.3,4.9,3.1
		c12.2,3.7,23.1,12.3,24.4,19.4c2.6,13.5-17.6,26.6-43.7,28.4C297.1,556,296.5,555.9,296.5,554.1L296.5,554.1z"/>
	<path class="st6" d="M571.9,499.6c-5-1.9-9.4-5.1-9.4-6.9c0-1.2,4.7-1.3,5.2-0.2c0.4,1,10.2,5.2,12.2,5.2c0.9,0,1.6,0.9,1.6,2
		C581.5,502.3,578.7,502.3,571.9,499.6z"/>
	<path class="st6" d="M586.5,499.7c0-1.6,0.7-2,3.5-2c3.9,0,4.3,0.6,1.8,2.6C589.1,502.3,586.5,502,586.5,499.7z"/>
	<path class="st6" d="M305.5,481.7c0-1.9,0.5-2.1,6.7-1.8c5.5,0.2,6.8,0.6,7.1,2.1s-0.5,1.7-6.7,1.7
		C306.1,483.7,305.5,483.5,305.5,481.7z"/>
	<path class="st6" d="M272.5,481.3c0-1.6,3.1-2.6,8.5-2.6s8.5,1,8.5,2.6c0,1.1-1.9,1.4-8.5,1.4S272.5,482.4,272.5,481.3z"/>
	<path class="st6" d="M273.3,418c-1-0.2-1.8-1.1-1.8-1.9c0-1.1,1.5-1.4,6.5-1.4c5.8,0,6.5,0.2,6.5,2c0,1.7-0.6,2-4.7,1.9
		C277.1,418.5,274.2,418.3,273.3,418z"/>
	<path class="st6" d="M307.5,416.7c0-1.8,0.7-2,7.5-2c5.7,0,7.5,0.3,7.5,1.4c0,1.7-3.1,2.6-9.7,2.6
		C308.2,418.7,307.5,418.4,307.5,416.7z"/>
	<path class="st6" d="M254.5,416.6c-13.2-1.5-34.2-5.7-47-9.4c-51.2-14.7-85.8-40.8-98.9-74.5c-2.9-7.4-5.3-17.5-6.6-27.7
		c-0.6-4.8-0.5-5.3,1.3-5.3c1.6,0,2,0.9,2.6,6.1c1.5,12.8,8.9,33.9,13.8,39.3c1,1.1,1.8,2.6,1.8,3.3c0,0.7,0.5,1.3,1,1.3
		c0.6,0,1,0.9,1,2s0.7,2,1.5,2c1,0,1.5,1,1.5,3c0,2.5,0.4,3,2.3,3c2.9,0,7.7,4.9,7.7,7.8c0,1.8,0.6,2.2,3.1,2.2c2.2,0,3.2,0.5,3.6,2
		c0.3,1.1,1.4,2,2.4,2c1.1,0,2.2,0.7,2.5,1.5c0.4,0.8,1.2,1.5,2,1.5s1.4,0.5,1.4,1c0,0.6,0.7,1,1.5,1s1.5,0.5,1.5,1
		c0,0.6,0.6,1,1.4,1s2.1,0.6,2.8,1.3c0.7,0.6,5.9,3.4,11.6,6.2c5.6,2.7,10.2,5.2,10.2,5.6s1.2,0.9,2.8,1.2c1.5,0.3,9.2,2.8,17.2,5.6
		c16.2,5.5,38.5,10.4,56.3,12.3c10.1,1.1,11.7,1.5,11.7,3C268.5,417.9,267,418,254.5,416.6z"/>
	<path class="st6" d="M325.5,415.7c0-1.7,0.7-2,3.9-2c6.3,0,31.6-3.7,44.8-6.5c15.3-3.2,34.8-9.4,47.7-15.1
		c5.4-2.4,10.7-4.4,11.7-4.4c1.1,0,1.9-0.6,1.9-1.4s1.6-2,3.5-2.7s3.5-1.7,3.5-2.1s0.7-0.8,1.5-0.8s1.5-0.4,1.5-1c0-0.5,0.7-1,1.5-1
		s1.5-0.4,1.5-1c0-0.5,0.7-1,1.5-1s1.5-0.4,1.5-1c0-0.5,0.8-1,1.9-1c1,0,2.1-0.9,2.4-2c0.4-1.5,1.4-2,3.6-2c2.6,0,3.1-0.4,3.1-2.3
		c0-2.9,4.9-7.7,7.8-7.7c1.8,0,2.2-0.6,2.2-3c0-1.8,0.6-3.3,1.5-3.6c0.8-0.4,1.5-1.3,1.5-2c0-0.8,0.7-1.7,1.5-2
		c0.8-0.4,1.5-1.2,1.5-1.9c0-0.8,0.6-2,1.3-2.7c1.4-1.5,6.9-13.1,9.2-19.8c2.5-6.9,5.5-26.3,5.5-34.8c0-9.3-2.8-23.4-6.4-32.3
		c-1.4-3.6-2.6-7.5-2.6-8.7s-0.6-2.2-1.4-2.2s-2-1.6-2.7-3.5s-1.7-3.5-2.1-3.5s-0.8-0.7-0.8-1.5s-0.4-1.5-1-1.5c-0.5,0-1-0.6-1-1.4
		s-0.7-1.6-1.5-2c-0.8-0.3-1.5-1.7-1.5-3.1c0-1.7-0.5-2.5-1.8-2.5c-2.3,0-11.2-9-11.2-11.3c0-1.1-0.8-1.7-2.5-1.7
		c-1.6,0-2.5-0.6-2.5-1.5c0-0.8-0.9-1.5-2-1.5s-2-0.4-2-1c0-0.5-0.7-1-1.5-1s-1.5-0.7-1.5-1.5s-0.8-1.5-1.9-1.5
		c-1,0-5.6-1.8-10.2-3.9c-8.1-3.8-22.9-8.1-27.6-8.1c-1.7,0-2.3-0.6-2.3-2.1c0-1.9,0.4-2,5.3-1.4c27,3.7,53.1,19.9,68.7,42.5
		c10.2,15,15.9,31.3,17.5,50.5c0.8,9.3-1.4,28-4.5,39.3c-13.6,49-65.5,81.1-147.4,91.2C325.9,418.2,325.5,418.2,325.5,415.7
		L325.5,415.7z"/>
	<path class="st6" d="M507.1,387.9c12.1-28.2,19.2-52.6,23.4-79.9c1.1-7.6,2.3-15.3,2.6-17c0.3-2.1,1.1-3.3,2.1-3.3
		c1.4,0,1.5,1.1,0.9,8.1c-1.9,23.2-10.1,56-20.7,83.4c-3.3,8.7-4.3,10.2-6.9,11.2l-2.9,1.1L507.1,387.9L507.1,387.9z"/>
	<path class="st6" d="M83.9,388.8c-2.7-1.6-3.7-3.7-8.2-17.2C67.8,348,63.1,327,60,302.5c-1.9-15.5-1.9-19.8-0.1-19.8
		c1.6,0,2.6,3,2.6,8c0,6.2,4,31.1,7.2,45c3.3,14.6,10,36.3,14.7,47.8c1.7,4,2.9,7.2,2.8,7.2S85.6,389.9,83.9,388.8z"/>
	<path class="st6" d="M288.8,390c-3-0.4-3.3-0.7-3.3-3.9c0-3.8,0.3-3.9,8.4-2.8c4.4,0.6,4.6,0.8,4.6,4
		C298.5,391,298,391.1,288.8,390L288.8,390z"/>
	<path class="st6" d="M306.5,387.4v-3.3l8-1.4c4.4-0.7,8-1.7,8-2.2c0-0.4,1.6-0.8,3.5-0.8c3.3,0,3.5,0.2,3.5,3.5
		c0,3.2-0.2,3.5-3,3.5c-1.6,0-3,0.4-3,0.9c0,0.9-10.6,3.1-14.8,3.1C306.9,390.7,306.5,390.1,306.5,387.4L306.5,387.4z"/>
	<path class="st6" d="M268.8,383.5c-1.7-0.8-2.3-2-2.3-4.5c0-3,0.3-3.3,3-3.3c5.3,0,8,1.9,8,5.7c0,3.1-0.2,3.3-3.2,3.2
		C272.5,384.6,270,384.1,268.8,383.5L268.8,383.5z"/>
	<path class="st6" d="M334.5,377.2c0-2.4,0.5-3.5,1.5-3.5c0.8,0,1.5-0.4,1.5-1c0-0.5,1.3-1,2.9-1c2.5,0,3-0.4,3.3-2.7
		c0.2-2.2,0.9-2.9,3.1-3.1c2.2-0.3,2.7-0.8,2.7-3c0-5.7,1-7.2,4.6-7.2c3,0,3.4,0.3,3.4,2.8c0,5-1.1,7.2-3.6,7.2
		c-1.9,0-2.3,0.6-2.6,3.8c-0.3,3.4-0.6,3.7-3.5,4c-2.7,0.3-3.3,0.7-3.3,2.8c0,1.5-0.6,2.4-1.5,2.4c-0.8,0-1.5,0.5-1.5,1
		c0,0.6-1.6,1-3.5,1C334.7,380.7,334.5,380.5,334.5,377.2L334.5,377.2z"/>
	<path class="st6" d="M61.1,376.2c-3.7-2.8-13.4-40.8-17.5-69c-2.6-17.4-2.6-18.5-0.3-18.5c1.5,0,2,1.6,3,10.8
		c2.4,19.9,8,45.5,14.3,64.9c1.7,5.1,2.9,10.1,2.7,11.2C63,377.3,62.8,377.4,61.1,376.2z"/>
	<path class="st6" d="M530.5,374.9c0-1.5,1.6-7.5,3.5-13.3c7.4-21.5,14.4-52.9,16.1-71.1c0.6-6.8,0.9-7.8,2.6-7.8
		c1.8,0,1.9,0.5,1.3,6.8c-1.2,11.6-5.4,35-8.5,47.6c-3,11.9-10.3,35.4-12.2,38.9C532,378.6,530.5,378.1,530.5,374.9L530.5,374.9z"/>
	<path class="st6" d="M256.5,372.2c0-3.3,0.2-3.5,3.5-3.5s3.5,0.2,3.5,3.5s-0.2,3.5-3.5,3.5S256.5,375.5,256.5,372.2z"/>
	<path class="st6" d="M247.5,357.2v-6.5h3.5c3.1,0,3.5-0.3,3.5-2.5s0.4-2.5,3.5-2.5c3.3,0,3.5,0.2,3.5,3.5s-0.2,3.5-3.5,3.5h-3.5
		v5.5v5.5H251h-3.5V357.2z"/>
	<path class="st6" d="M553.6,353.9c3.9-13.4,8.5-34.4,10.4-48.2c2.4-17.7,2.5-18,4-18c2,0,1.9,3.6-0.5,20.5
		c-2.2,14.5-5.2,29.2-9,43.4c-1.7,6.3-2.8,8.6-5,10.1l-2.8,2L553.6,353.9L553.6,353.9z"/>
	<path class="st6" d="M39.8,359.7c-3.4-2.7-8.7-25.9-12.3-53.8c-2.4-18.6-2.5-22.2-0.5-22.2c1.6,0,1.6,0.3,4,20
		c1.9,15.5,5.5,34.3,9.1,47.9c1.3,5.2,2.3,9.5,2.2,9.7C42.1,361.4,41,360.7,39.8,359.7L39.8,359.7z"/>
	<path class="st6" d="M338.5,348.2c0-3.3,0.2-3.5,3.5-3.5s3.5,0.2,3.5,3.5s-0.2,3.5-3.5,3.5S338.5,351.5,338.5,348.2z"/>
	<path class="st6" d="M268.5,347.2v-3.5h5h5v3.5v3.5h-5h-5V347.2z"/>
	<path class="st6" d="M326.5,347.2c0-3.5,0-3.5,4.5-3.5s4.5,0,4.5,3.5s0,3.5-4.5,3.5S326.5,350.7,326.5,347.2z"/>
	<path class="st6" d="M206.5,305.7c0-0.5-1.6-1-3.5-1c-3.3,0-3.5-0.2-3.5-3.5s0.2-3.5,3.5-3.5c1.9,0,3.5,0.5,3.5,1c0,0.6,2,1,4.5,1
		s4.5-0.4,4.5-1c0-0.5,0.6-1,1.4-1s1.6-0.7,2-1.5c0.3-0.8,1.2-1.5,2.1-1.5c0.8,0,1.5-0.9,1.5-2c0-1.6,0.7-2,3.5-2
		c3.3,0,3.5,0.2,3.5,3.5c0,2.4-0.5,3.5-1.5,3.5c-0.9,0-1.5,0.9-1.5,2.1s-0.8,2.3-2,2.6c-1.1,0.3-2,0.9-2,1.4s-1.6,0.9-3.5,0.9
		s-3.5,0.5-3.5,1c0,0.6-2,1-4.5,1S206.5,306.3,206.5,305.7z"/>
	<path class="st6" d="M385.5,297.2c0-3.3,0.2-3.5,3.5-3.5s3.5,0.2,3.5,3.5s-0.2,3.5-3.5,3.5S385.5,300.5,385.5,297.2z"/>
	<path class="st6" d="M373.5,296.2c0-3.3,0.2-3.5,3.5-3.5s3.5,0.2,3.5,3.5s-0.2,3.5-3.5,3.5S373.5,299.5,373.5,296.2z"/>
	<path class="st6" d="M191.5,291.2c0-3.3,0.2-3.5,3.5-3.5s3.5,0.2,3.5,3.5s-0.2,3.5-3.5,3.5S191.5,294.5,191.5,291.2z"/>
	<path class="st6" d="M365.5,288.2c0-3.3,0.2-3.5,3.5-3.5s3.5,0.2,3.5,3.5s-0.2,3.5-3.5,3.5S365.5,291.5,365.5,288.2z"/>
	<path class="st6" d="M41.1,285.5c-0.3-1.3-0.6-3.8-0.6-5.5c0-2.6,0.4-3.3,2-3.3c1.8,0,2,0.7,2,5.5c0,4-0.4,5.5-1.4,5.5
		C42.4,287.7,41.5,286.7,41.1,285.5z"/>
	<path class="st6" d="M533.5,283c0-5.3,1-8.3,2.6-8.3c1,0,1.4,1.6,1.4,6c0,5.3-0.2,6-2,6C533.9,286.7,533.5,286,533.5,283z"/>
	<path class="st6" d="M566.5,283.5c0-4.8,1-7.8,2.6-7.8c1,0,1.4,1.5,1.4,5.5c0,4.8-0.2,5.5-2,5.5C566.9,286.7,566.5,286,566.5,283.5
		z"/>
	<path class="st6" d="M397.5,281.2c0-2.5-0.4-4.5-1-4.5c-0.5,0-1-0.6-1-1.4s-0.7-1.6-1.5-2c-0.9-0.3-1.5-1.9-1.5-4.1
		c0-3.4,0.1-3.5,3.6-3.5c2.7,0,3.7,0.5,4.1,2c0.3,1.1,0.9,2,1.4,2s0.9,1.6,0.9,3.5s0.5,3.5,1,3.5c0.6,0,1,2,1,4.5
		c0,4.5,0,4.5-3.5,4.5S397.5,285.7,397.5,281.2z"/>
	<path class="st6" d="M223.5,282.7c0-1.1-0.4-2-1-2c-0.5,0-1-1.1-1-2.5c0-1.7-0.6-2.5-1.7-2.5c-0.9,0-3.2-0.5-5-1.2
		c-2.8-1-3.3-1.7-3.3-4.5c0-3,0.3-3.3,2.9-3.3c5.2,0,9.1,2,9.1,4.6c0,1.9,0.5,2.4,2.5,2.4c1.8,0,2.5,0.5,2.5,2c0,1.1,0.5,2,1,2
		c0.6,0,1,1.6,1,3.5c0,3.3-0.2,3.5-3.5,3.5C224.2,284.7,223.5,284.3,223.5,282.7z"/>
	<path class="st6" d="M101.9,278c4-28.4,20.6-54.6,44.2-70c13-8.4,27.9-14.1,41.7-15.8c5.3-0.7,5.7-0.6,5.7,1.2
		c0,1.7-0.9,2.1-5.5,2.7c-3,0.3-9,1.7-13.2,3.1c-4.3,1.4-8.6,2.5-9.5,2.5c-1,0-1.8,0.4-1.8,0.8c0,1.1-6.6,4.2-9,4.2
		c-1.1,0-2,0.7-2,1.5s-0.7,1.5-1.5,1.5s-1.5,0.5-1.5,1c0,0.6-0.7,1-1.5,1s-1.5,0.5-1.5,1c0,0.6-0.6,1-1.4,1s-1.6,0.7-2,1.5
		c-0.3,0.9-1.8,1.5-3.6,1.5c-2.5,0-3,0.4-3,2.3c0,2.9-4.9,7.7-7.8,7.7c-1.8,0-2.2,0.6-2.2,3c0,1.8-0.6,3.3-1.5,3.6
		c-0.8,0.4-1.5,1.2-1.5,2s-0.4,1.4-1,1.4c-0.5,0-1,0.7-1,1.5s-0.4,1.5-1,1.5c-0.5,0-1,0.6-1,1.4s-0.3,1.6-0.7,1.8
		c-0.5,0.2-1.9,2.7-3.2,5.6c-1.4,2.8-2.8,5.2-3.3,5.2c-0.4,0-0.8,0.8-0.8,1.8c0,0.9-1.1,5.1-2.5,9.3c-1.3,4.2-2.7,10-3.1,12.8
		c-0.5,4.2-1,5.1-2.6,5.1C101.5,282.7,101.3,282.2,101.9,278L101.9,278z"/>
	<path class="st6" d="M192.5,279.2c0-3.3,0.2-3.5,3.5-3.5s3.5,0.2,3.5,3.5s-0.2,3.5-3.5,3.5S192.5,282.5,192.5,279.2z"/>
	<path class="st6" d="M24.5,274.2c0-4.9,0.3-6.5,1.4-6.5c1.7,0,2.6,3.1,2.6,8.8c0,3.5-0.3,4.2-2,4.2C24.7,280.7,24.5,280,24.5,274.2
		z"/>
	<path class="st6" d="M551.5,274.2c0-5.8,0.2-6.5,2-6.5c1.7,0,2,0.7,2,4.3c0,5.6-0.9,8.7-2.6,8.7
		C551.8,280.7,551.5,279.1,551.5,274.2z"/>
	<path class="st6" d="M57.5,271.7c0-6.1,0.3-8,1.4-8c1.8,0,2.6,3.1,2.6,10.3c0,5-0.2,5.7-2,5.7S57.5,279,57.5,271.7z"/>
	<path class="st6" d="M366.5,272.2c0-3.3,0.2-3.5,3.5-3.5s3.5,0.2,3.5,3.5s-0.2,3.5-3.5,3.5S366.5,275.5,366.5,272.2z"/>
	<path class="st6" d="M200.5,271.3c0-3.6,1.5-4.6,7.3-4.6c2.4,0,2.7,0.4,2.7,3.4c0,3.6-1.5,4.6-7.2,4.6
		C200.8,274.7,200.5,274.3,200.5,271.3z"/>
	<path class="st6" d="M40.1,267.5c-1-3.8-0.7-19.8,0.4-21.9c2.3-4.2,3-1.6,3,11.1c0,10.4-0.3,13-1.4,13
		C41.4,269.7,40.5,268.7,40.1,267.5z"/>
	<path class="st6" d="M375.5,265.2c0-3.3,0.2-3.5,3.5-3.5s3.5,0.2,3.5,3.5s-0.2,3.5-3.5,3.5S375.5,268.5,375.5,265.2z"/>
	<path class="st6" d="M567.5,261.5l0.1-3.3l1.9,2.4c2.5,3,2.5,4.1,0,4.1C567.9,264.7,567.5,264,567.5,261.5z"/>
	<path class="st6" d="M57.5,248.2c0-6.8,0.2-7.5,2-7.5c1.7,0,2,0.7,2,5.3c0,6.6-0.9,9.7-2.6,9.7C57.8,255.7,57.5,253.9,57.5,248.2z"
		/>
	<path class="st6" d="M534.1,248.5c-0.6-4.2-2.3-20.2-2.2-20.5c0.1-0.1,1.1,0.6,2.3,1.5c1.9,1.5,2.3,3,2.9,12
		c0.6,9,0.5,10.2-0.9,10.2C535.2,251.7,534.4,250.6,534.1,248.5z"/>
	<path class="st6" d="M551.5,246.7c0-3.8,0.2-4,2-3c1.3,0.7,2,2.1,2,4c0,2.3-0.4,3-2,3C551.8,250.7,551.5,250,551.5,246.7z"/>
	<path class="st6" d="M58.5,234.2c0-2.4,0.6-3.7,2-4.5c1.7-0.9,2-0.8,2,1.2c0,3.9-1.2,6.8-2.6,6.8C59,237.7,58.5,236.5,58.5,234.2z"
		/>
	<path class="st6" d="M194.5,193.3c0-1.6,3-2.6,7.8-2.6c2.5,0,3.2,0.4,3.2,2c0,1.8-0.7,2-5.5,2C196,194.7,194.5,194.3,194.5,193.3z"
		/>
	<path class="st6" d="M393.5,192.7c0-1.6,0.7-2,3.8-2c5.2,0,8.2,1,8.2,2.6c0,1-1.6,1.4-6,1.4C394.2,194.7,393.5,194.5,393.5,192.7z"
		/>
	<path class="st6" d="M208.5,192.3c0-1.6,3-2.6,8.3-2.6c3,0,3.7,0.4,3.7,2c0,1.8-0.7,2-6,2C210.1,193.7,208.5,193.3,208.5,192.3z"/>
	<path class="st6" d="M378.5,191.7c0-1.6,0.7-2,3.8-2c5.2,0,8.2,1,8.2,2.6c0,1-1.6,1.4-6,1.4C379.2,193.7,378.5,193.5,378.5,191.7z"
		/>
	<path class="st6" d="M225.5,191.3c0-1.7,3.1-2.6,9.3-2.6c4,0,4.7,0.3,4.7,2c0,1.8-0.7,2-7,2C227.2,192.7,225.5,192.4,225.5,191.3z"
		/>
	<path class="st6" d="M359.5,190.7c0-1.7,0.7-2,4.8-2c6.1,0,9.2,0.9,9.2,2.6c0,1.1-1.7,1.4-7,1.4
		C360.2,192.7,359.5,192.5,359.5,190.7z"/>
	<path class="st6" d="M248.5,190.3c0-1.9,3.2-2.6,11.8-2.6c6.5,0,7.2,0.2,7.2,2c0,1.9-0.7,2-9.5,2
		C250.6,191.7,248.5,191.4,248.5,190.3z"/>
	<path class="st6" d="M331.5,189.7c0-1.8,0.7-2,7.3-2c8.5,0,11.7,0.7,11.7,2.6c0,1.1-2.1,1.4-9.5,1.4
		C332.2,191.7,331.5,191.6,331.5,189.7z"/>
</g>
<g>
	<path class="st8" d="M286,389.1c-14.6-2.8-33.3-14.9-37-23.9c-2-4.5-1.9-12.5,0-15.3c0.9-1.2,4-2.9,7.3-3.9
		c5-1.6,10.3-1.8,45.2-1.8c42.8,0,49.2,0.6,53.6,5.1c3,2.9,3.2,10,0.5,15.9c-4.3,9.6-21.8,20.8-37.3,23.9
		C309,391,295.6,391,286,389.1L286,389.1z"/>
	<path class="st8" d="M199.5,303.5c-6.1-4.2-7.5-7.1-7.8-16.1c-0.2-7,0.1-8.8,2-12.2c6.2-10.8,26.6-11.6,33.9-1.4
		c2,2.8,2.5,4.9,2.7,11.9c0.3,7.6,0.1,8.9-2,12c-4.3,6.3-8,8-17.3,8C204.1,305.7,202.3,305.3,199.5,303.5L199.5,303.5z"/>
	<path class="st8" d="M373,298.5c-2.2-1.3-5-4.1-6.3-6.3c-1.9-3.4-2.2-5.1-2-12.1c0.3-7.1,0.6-8.5,3.2-11.8c3.8-5,7.9-6.6,16.9-6.6
		c8.4,0,12.4,1.9,16.4,7.9c1.9,2.9,2.3,4.7,2.3,11.6s-0.4,8.7-2.2,11.5c-4.2,6.1-7.1,7.5-16.1,7.8
		C378.1,300.7,376.4,300.5,373,298.5L373,298.5z"/>
</g>
<g>
	<path class="st5" d="M158.5,1108.7c-33.9-1-36.8-1.6-34.3-7.3l1-2.1l61.4-0.1H248l0.3-4.1c0.2-2.5-0.7-6.7-2.2-10.9
		c-1.4-3.8-2.3-7.1-2.1-7.3c0.2-0.3,2.8,2,5.7,4.9c5.9,6,9.8,15,9.8,22.5v4.1l-5.2,0.7C247.8,1109.8,191.5,1109.6,158.5,1108.7
		L158.5,1108.7z"/>
	<path class="st5" d="M334.8,1101.2c-0.9-2.5,0.3-9.5,2.6-15.7c2.1-5.4,7.8-12.5,11.9-14.7c1.8-1,1.8-0.6-0.6,5.2
		c-1.3,3.4-2.5,8.4-2.6,11.2l-0.1,5l20,0.8c11.1,0.5,38.5,0.4,61.5-0.1c26.8-0.6,41.9-0.6,42.8,0.1c2.2,1.7,1.4,5.7-1.4,6.7
		c-4.2,1.6-45,3-90.7,3C340.5,1102.7,335.4,1102.5,334.8,1101.2z"/>
	<path class="st5" d="M118.5,920.8c-3.1-3.2-9.3-11.3-13.8-18c-8.1-12-8.2-12.2-8.2-18.4c0.1-7.2,2.3-32.9,4.1-46.6
		c1.1-8.9,1.4-9.6,5.3-13.6c4.5-4.7,9.2-6.5,16.6-6.5c14.1,0,20.7,6.2,23.6,22.2c1.1,6,3,11.4,6.9,19.3c4.9,9.9,6,13.3,5.6,17.3
		c-0.4,4.2-13-3.2-20.6-12.1c-4-4.7-5.5-4.5-8.9,1.2c-2.9,4.9-9.6,24.8-9.6,28.4c0,1.7,1.8,9.1,4.1,16.4
		C129.2,928.6,128.1,930.9,118.5,920.8L118.5,920.8z"/>
	<path class="st5" d="M247.1,889.3c-0.3-1.3-2.9-4.9-5.6-7.9c-5.4-5.9-9.8-8.1-18.2-9.2c-3.6-0.5-4.8-1.1-4.8-2.3
		c0-2.4,7.1-64.4,7.6-66c0.2-0.8,4,2.3,9.1,7.5c4.9,4.8,11.5,10.8,14.8,13.3l6.1,4.5l-3.6,30.7c-2,16.9-3.9,31-4.2,31.3
		S247.5,890.7,247.1,889.3L247.1,889.3z"/>
	<path class="st5" d="M347.2,877.4c-0.3-1.7-2.3-14.8-4.3-28.9l-3.7-25.7l10.4-10.8c5.7-6,12-13,13.8-15.6c1.9-2.6,3.8-4.4,4.1-4
		c0.4,0.5,2.8,15.9,5.4,34.3c2.7,18.4,5,34.5,5.3,35.6c0.4,1.9-0.1,2.2-5.6,2.8c-10.9,1.2-16.7,4.3-22.1,11.7l-2.8,3.9L347.2,877.4
		L347.2,877.4z"/>
	<path class="st5" d="M200.7,768c-4.9-2.4-6.2-5.8-6.2-16.3c0-15,2.9-18,17.3-18c4.9,0,9.9,0.6,11.8,1.4c3.4,1.3,16.4,3.4,37.4,5.8
		c14.4,1.7,70.1,1.7,85.5,0c9-1,12.8-1.9,17.6-4.2c5.1-2.5,7.4-3,13.3-3c6.7,0,7.3,0.2,10.9,3.4c3.7,3.4,3.7,3.5,4,12.3
		c0.5,10.6-1.1,15.3-6,18.3c-3.2,2-4.8,2-92.8,2C212.9,769.7,203.7,769.5,200.7,768z"/>
	<path class="st9" d="M227.9,717.6c-5.2-1.4-7.8-5.2-7.8-11.2c0.1-11.8,10.1-21.5,36.9-35.7c20.1-10.6,32.9-22,24.7-22
		c-0.9,0-2.9-1.2-4.4-2.7c-5.7-5.4-16.5-1.9-22.2,7.1c-2.8,4.5-3,4.6-8,4.6c-14.9,0-19.7-12.5-11.2-28.7c6.5-12.1,16.8-25.3,32-41
		c16.4-16.9,20-19.2,25.1-15.9c5.1,3.4,5.8,12.1,1.5,19.1c-1.3,2.2-9.1,8.8-20.1,17.1c-17.4,13.2-20.8,16.4-22.9,21.8
		c-1.3,3.6,0.3,7.4,3.5,8.2c1.4,0.3,10.5-0.4,20.1-1.6c19-2.4,23.3-2.2,27,1.5c5.2,5.2,2,13.8-9,24.3c-7.6,7.2-13.4,10.9-32.1,20.6
		c-16.5,8.5-16,8-14.5,15.8c1,5.6,1,7-0.4,9.6c-2,3.8-7,8-10.4,8.8c-1.5,0.3-3.1,0.7-3.7,0.8C231.5,718.3,229.6,718,227.9,717.6
		L227.9,717.6z M235.9,702.4c2.1-3.2,3.6-6,3.4-6.3c-0.3-0.2-2.8,1.4-5.6,3.7c-3.8,2.9-5.2,4.8-5.2,6.6
		C228.5,710.5,231.6,708.8,235.9,702.4L235.9,702.4z"/>
	<path class="st5" d="M142.5,687.3c-3.8-2.1-16.2-4.6-22.5-4.6h-5.7l0.7-3.2c1.5-7,11-31,18-45.3c6.8-14.1,21-37.3,22.1-36.2
		c0.3,0.2,1.3,4,2.4,8.3c1,4.4,3.7,13.3,6,19.8l4.1,12l-5.1,10.4c-5.6,11.4-10.5,23.1-13.9,33.5c-1.3,3.7-2.6,6.7-2.9,6.7
		C145.3,688.6,143.9,688,142.5,687.3z"/>
	<path class="st5" d="M465,640c-3.8-0.8-10.4-2.8-14.5-4.4c-7.6-2.9-22.3-11-23.5-12.9c-0.3-0.5,0.3-5.2,1.3-10.2
		c1.1-5.1,2.3-11.4,2.6-13.9l0.7-4.7l-10-3.2c-21.4-6.8-41.5-19-49.7-30.2c-5.1-7-6.8-11.6-6.7-18.3c0-4.5,3.3-13.7,5.2-14.9
		c0.4-0.3,0.5,2.6,0.3,6.4c-0.4,5.7,0,7.7,2.1,12.4c7.8,16.9,36.5,34.4,67.8,41.2c11,2.4,27,2.2,33.8-0.5c3-1.1,5.6-2,5.7-1.8
		c0.1,0.1-0.8,1.5-2.1,3.1c-1.5,1.9-3.7,3.1-6.6,3.7c-6.2,1.2-18.8,1.1-27-0.2c-3.9-0.6-7.3-0.8-7.6-0.6c-0.3,0.3,2.2,0.9,5.6,1.3
		c4.2,0.4,6.1,1.1,6.1,2c0,0.8-0.8,1.4-1.7,1.4c-3,0,6.5,5.8,15.2,9.2c7.4,3,8.9,3.2,21.4,3.5l13.4,0.2l4.6,4.4
		c5.5,5.4,15.1,11.7,21.6,14.1l4.7,1.8l-4.4,2.9C510.2,640.5,484.4,644.2,465,640L465,640z M418.5,584.7c0-0.5-0.7-1-1.5-1
		s-1.5,0.5-1.5,1c0,0.6,0.7,1,1.5,1S418.5,585.3,418.5,584.7z M413.5,582.7c0-0.5-0.7-1-1.5-1s-1.5,0.5-1.5,1c0,0.6,0.7,1,1.5,1
		S413.5,583.3,413.5,582.7z M384.5,565.7c0-1.1-0.6-2-1.4-2c-0.9,0-1.2,0.7-0.9,2c0.3,1.1,0.9,2,1.4,2S384.5,566.8,384.5,565.7z
		 M376.5,557.7c0-1.1-0.4-2-1-2c-0.5,0-1,0.9-1,2s0.5,2,1,2C376.1,559.7,376.5,558.8,376.5,557.7z"/>
	<path class="st5" d="M152.5,589.9c0-1.9-0.5-2-6-1.5c-5.1,0.5-6,0.3-6-1c0-1.1,1.2-1.8,3.8-2.2c11.8-1.8,16.7-3,25.9-6
		c15.1-5.1,27.8-11.8,40.7-21.6l2.9-2.3l-0.5,3.7c-0.4,3.4-0.2,3.7,2.2,3.7c2.4,0.1,2.4,0.2-1.5,3.6c-11.4,10.1-39.1,22.3-56.8,24.9
		C152.9,591.9,152.5,591.7,152.5,589.9L152.5,589.9z M185.5,578.7c0-0.5-0.7-1-1.5-1s-1.5,0.5-1.5,1c0,0.6,0.7,1,1.5,1
		S185.5,579.3,185.5,578.7z"/>
	<path class="st5" d="M123,588c-2.2-0.5-7.5-5.2-7.5-6.5c0-0.5,1.2-0.2,2.8,0.6c2.1,1.1,12.5,3.6,14.9,3.6c0.2,0,0.3,0.7,0.3,1.5
		c0,1.1-1.1,1.5-4.2,1.4C126.9,588.5,124.1,588.3,123,588L123,588z"/>
	<path class="st5" d="M219.5,557.4c0-3.1-0.3-3.7-2.1-3.7c-2.1,0-2.1-0.1,0.3-3.2c6.9-9,9.1-18.1,6.4-25.8c-1.3-4-1.3-4.3,0-2.5
		c4.7,6.1,7.5,15.2,5.3,16.6c-1.2,0.7-1.2,0.9,0,0.9c3.2,0-2.3,14.2-7.5,19.1l-2.4,2.2V557.4L219.5,557.4z"/>
	<path class="st5" d="M275.5,554.2c-14.8-2.8-25-7.4-31.3-14.4c-9-10-4.2-21,12.5-28.9l7.8-3.7v-13.7v-13.8h19.3
		c10.5,0,22.9,0.3,27.5,0.7l8.2,0.6v13.8v13.8l5.4,2.7c14.2,6.9,18.9,16.1,13.2,25.9c-4.4,7.3-15.7,13.4-30.9,16.6
		c-12.4,2.5-16.7,2.5-16.7-0.1c0-1.1-0.4-2-1-2c-0.5,0-1,0.9-1,2C288.5,556.1,286.5,556.2,275.5,554.2L275.5,554.2z M263,544.5
		c-0.4-1.3-1-8.7-1.2-16.6c-0.3-7.9-0.8-14.2-1.1-14c-0.4,0.2-2.4,1-4.4,1.8c-2.1,0.8-3.8,1.8-3.8,2.2s-0.9,0.8-2,0.8s-2,0.7-2,1.5
		s-0.6,1.5-1.3,1.5c-2,0-4.1,8.4-2.8,10.8c0.6,1.2,1.1,3.2,1.1,4.6c0,2.2,0.4,2.6,3,2.6c1.6,0,3.3,0.6,3.7,1.3
		c0.8,1.2,8.9,5.5,10.7,5.6C263.3,546.7,263.4,545.7,263,544.5L263,544.5z M331.9,538.2c2.4-2.4,4.6-6.8,4.6-9.2s-4.7-8-9.1-11
		c-2.2-1.4-4.1-2.4-4.3-2.2s-0.6,6.8-0.8,14.6l-0.3,14.1l3.9-2.1C328.1,541.2,330.8,539.3,331.9,538.2L331.9,538.2z"/>
	<path class="st5" d="M575,500.3c-11.2-3.5-13.8-6.9-19.9-26c-4.9-14.8-6-17.4-11.1-24.1c-3.8-4.9-4.2-8-1.4-9.8
		c2.9-1.8,10.4,2.8,15.5,9.4c5,6.6,8.1,7.5,12.5,4c2.4-1.9,2.4-2.3,2.9-23c0.4-17.4,0.8-21.3,2-22.1c2.1-1.3,3.2-1.2,5.8,0.5
		c2.1,1.6,2.2,2.1,2,19c-0.3,25.7,1,25.5,10.2-1.2c5.7-16.5,5.9-16.8,10-13.5l2.2,1.8l-4.6,16.9c-2.5,9.3-4.6,17.7-4.6,18.7
		c0,5,5.3-1.3,13.1-15.9c5.5-10,6.9-11.6,9.3-10.7c3.7,1.4,3,5.1-3.8,19.2c-10,21-8.6,23.4,5.9,10.2c10.1-9.3,12.1-10.6,12.8-8.6
		c1.2,3-4.7,12.1-12.8,20.2c-6.1,6-9.3,10.1-12.4,16.1c-2.3,4.4-5.7,9.8-7.6,12.1C594.6,500.9,584.9,503.4,575,500.3L575,500.3z"/>
	<path class="st5" d="M276,418c-38-2-76.3-11.1-104.6-24.9c-16.9-8.3-27.6-15.4-38.4-25.6c-19.9-18.8-29.6-41-31.2-71
		c-2-39.9,19.3-76.5,55.2-94.5c17.4-8.8,31.9-10.9,92.5-13.3c62.4-2.5,151.4,0.6,173,6.1c10.3,2.5,25,9.3,33.4,15.3
		c14.3,10.2,28.5,28.5,35.1,45.1c10.5,26.6,8,63.8-6.1,89.4c-14,25.5-41.3,45.3-80.4,58.2C368.9,414.5,319.8,420.3,276,418L276,418z
		 M316,386.2c17.5-3.7,36.1-17,38.1-27.3c1-4.9-1.5-7.8-8.4-9.9c-5-1.6-10.1-1.8-41.2-1.8c-38.7,0-45.2,0.5-50.2,3.8
		c-12.3,8.3,8.7,29.5,34.7,35.2C297.1,388,307.5,388,316,386.2L316,386.2z M219.1,301.1c5-2.4,7.8-7,8.2-13.9c0.3-5,0-6.6-2-9.4
		c-3.4-5.1-7.1-7.3-12.6-7.9c-9.6-0.9-17.2,5.5-18,15.2c-0.5,5.9,0.9,9.5,5.5,13.8C205.2,303.6,211.9,304.4,219.1,301.1L219.1,301.1
		z M391.4,296.2c9.1-4.7,12.2-16.4,6.5-25c-4.1-6.2-16.1-8.5-22.4-4.2c-5.8,3.9-7.5,7.1-7.5,14.1c0,5.2,0.4,6.8,2.7,9.8
		c1.5,1.9,4.2,4.2,6,5.1C380.8,298.1,387.7,298.2,391.4,296.2z"/>
	<path class="st5" d="M506.5,390.3c0-0.2,1.3-3.3,3-6.9c11.1-24.6,21.2-64.3,24.1-95c1.1-12.6,0.7-49.2-0.7-56.6l-0.7-3.4l3.2,1.9
		c3,1.8,10.6,7.3,16.7,12.2l2.9,2.4l-0.1,17.1c-0.2,33-5.2,62.3-16.6,98.5l-5.2,16.3l-5.5,3.3C517.3,386.3,506.5,391.5,506.5,390.3
		L506.5,390.3z"/>
	<path class="st5" d="M74,383.6c-6.1-3.3-11.7-6.8-12.6-7.7c-3-3.1-9.2-24.6-13.8-47.7c-4.9-24.4-6.4-39.8-6.5-63l-0.1-21l10.4-7.8
		c5.7-4.2,10.5-7.6,10.6-7.5c0.2,0.2-0.2,4.8-0.7,10.3c-2,20.4,0.3,57.4,5.3,83.3c4.1,21.3,13.5,53.8,18.4,63.3
		C87.8,391.2,87.5,391.1,74,383.6L74,383.6z"/>
	<path class="st5" d="M552,361c1.8-4.7,8.7-33.1,10.5-43.3c2.9-16.5,5-36.1,5-46.5c0-12.3,0.8-13,5.8-5.3
		c11.4,17.5,14.6,34,10.2,51.3c-3.5,13.6-12.8,28.4-25.3,40.3C552.3,363,550.9,363.8,552,361z"/>
	<path class="st5" d="M35.5,355.7C23.8,344,15.2,330.1,12,317.6c-2-7.7-2.3-20.5-0.5-28c1.6-6.8,7.7-19.9,12.2-26.2l3.5-4.8
		l0.6,14.6c1.2,24.8,5.6,53.9,12.1,79.3c1.3,5,2.2,9.2,2,9.2S38.8,359,35.5,355.7L35.5,355.7z"/>
</g>
<g>
	<path class="st10" d="M437,595.1c-42.4-10.7-71.5-32-71.5-52.4c0-4.5,2.9-14,4.2-14c0.2,0,0.3,2.8,0.3,6.3c0,15.1,14,30.1,39,41.8
		c24.9,11.7,51.4,15.7,66.3,10.1l5.1-2l-2.1,2.9c-1.1,1.5-4.4,3.8-7.2,5.1c-4.4,1.9-7,2.3-18.6,2.4
		C445.1,595.5,438.1,595.3,437,595.1L437,595.1z"/>
	<path class="st10" d="M132.7,591.6c-6.4-1.1-11.8-3.8-15.2-7.5c-2.2-2.4-2.2-2.6-0.5-1.9c7.3,2.9,12.5,3.6,23,3.2
		c33-1.5,72.5-21.7,82.6-42.2c2.8-5.7,3.1-7.2,2.7-13l-0.4-6.6l2.5,4.8c6.5,12.5,0.8,26.9-15.6,39.3c-14.2,10.8-38.3,20.7-57,23.5
		C144,592.8,140.6,592.9,132.7,591.6z"/>
	<path class="st10" d="M278,554.3c-19.4-3.1-33.4-10.7-37.1-20.1c-1.6-4.2-1.6-4.8,0-9c2.2-5.5,7-9.8,16-14.1l7.1-3.4l0.5,15.7
		c0.4,13.1,0.8,16.5,2.5,19.8c1.9,3.7,2.4,4.1,7.5,4.8c6.2,0.9,37.6,0.4,40.1-0.7c3.4-1.5,4.3-5.8,4.7-21.8
		c0.2-8.7,0.6-15.8,0.9-15.8s3.2,1.4,6.5,3.2c26.7,14.2,11.3,37-28.2,41.8C288.6,555.9,288.4,555.9,278,554.3z"/>
</g>
<g>
	<path d="M292.5,99.5c0-12.9,0.2-13.4,6.4-15.4c2.8-0.9,5.4-1.9,5.8-2.3s-5.7-2.6-13.6-5s-14.9-4.7-15.5-5c-0.7-0.5,2.8-2.8,8.3-5.7
		l9.5-4.9l0.3-12c0.3-11.6,0.4-12,2.6-12.3l2.3-0.3l-0.3,13.8L298,64.2l-5.3,2.8c-2.9,1.6-5.1,3.1-4.8,3.4c0.2,0.3,8.3,2.9,17.8,5.8
		c9.5,3,17.1,5.4,16.8,5.5s-5.9,1.8-12.5,3.9l-12,3.7l-0.3,9.7c-0.3,9.6-0.3,9.7-2.7,9.7C292.5,108.7,292.5,108.6,292.5,99.5z"/>
	<path d="M291.5,33.9c-7.4-3.6-8.9-13.7-2.9-19.2c5.2-4.9,12.7-4.4,17.3,1.1c5.2,6.1,2.6,15.3-5,18.5
		C296.6,36.1,295.7,36.1,291.5,33.9L291.5,33.9z"/>
</g>
<rect id="_x3C_Slice_x3E_" y="0" class="st11" width="641.5" height="1113.5"/>
</svg>
